# Blender v2.80 (sub 75) OBJ File: ''
# www.blender.org
mtllib PAINEL DE LUZ SALA DE CONTROLE.mtl
o caixa_de_energia_Cylinder.009
v 0.032246 0.000000 -0.012395
v 0.032232 0.000000 0.012432
v 0.031627 -0.006290 -0.012395
v 0.031613 -0.006290 0.012431
v 0.029792 -0.012337 -0.012396
v 0.029778 -0.012337 0.012430
v 0.026813 -0.017911 -0.012398
v 0.026799 -0.017911 0.012428
v 0.022803 -0.022796 -0.012400
v 0.022789 -0.022796 0.012426
v 0.017918 -0.026806 -0.012403
v 0.017904 -0.026806 0.012423
v 0.012344 -0.029785 -0.012406
v 0.012330 -0.029785 0.012420
v 0.006297 -0.031620 -0.012410
v 0.006282 -0.031620 0.012417
v 0.000007 -0.032239 -0.012413
v -0.000007 -0.032239 0.012413
v -0.006282 -0.031620 -0.012417
v -0.006297 -0.031620 0.012410
v -0.012330 -0.029785 -0.012420
v -0.012344 -0.029785 0.012406
v -0.017904 -0.026806 -0.012423
v -0.017918 -0.026806 0.012403
v -0.022789 -0.022796 -0.012426
v -0.022803 -0.022796 0.012400
v -0.026799 -0.017911 -0.012428
v -0.026813 -0.017911 0.012398
v -0.029778 -0.012337 -0.012430
v -0.029792 -0.012337 0.012396
v -0.031613 -0.006290 -0.012431
v -0.031627 -0.006290 0.012395
v -0.032232 0.000000 -0.012432
v -0.032246 0.000000 0.012395
v -0.031613 0.006290 -0.012431
v -0.031627 0.006290 0.012395
v -0.029778 0.012337 -0.012430
v -0.029792 0.012337 0.012396
v -0.026799 0.017911 -0.012428
v -0.026813 0.017911 0.012398
v -0.022789 0.022796 -0.012426
v -0.022803 0.022796 0.012400
v -0.017904 0.026806 -0.012423
v -0.017918 0.026806 0.012403
v -0.012330 0.029785 -0.012420
v -0.012344 0.029785 0.012406
v -0.006282 0.031620 -0.012417
v -0.006297 0.031620 0.012410
v 0.000007 0.032239 -0.012413
v -0.000007 0.032239 0.012413
v 0.006297 0.031620 -0.012410
v 0.006283 0.031620 0.012417
v 0.012344 0.029785 -0.012406
v 0.012330 0.029785 0.012420
v 0.017918 0.026806 -0.012403
v 0.017904 0.026806 0.012423
v 0.022803 0.022796 -0.012400
v 0.022789 0.022796 0.012426
v 0.026813 0.017911 -0.012398
v 0.026799 0.017911 0.012428
v 0.029792 0.012337 -0.012396
v 0.029778 0.012337 0.012430
v 0.031627 0.006289 -0.012395
v 0.031613 0.006289 0.012431
v 0.000014 0.000000 -0.024999
v 0.026118 0.000000 -0.024985
v 0.025616 -0.005093 -0.024985
v 0.024131 -0.009989 -0.024986
v 0.021719 -0.014502 -0.024987
v 0.018472 -0.018458 -0.024989
v 0.014517 -0.021704 -0.024991
v 0.010004 -0.024117 -0.024994
v 0.005107 -0.025602 -0.024997
v 0.000014 -0.026104 -0.024999
v -0.005078 -0.025602 -0.025002
v -0.009975 -0.024117 -0.025005
v -0.014488 -0.021704 -0.025008
v -0.018444 -0.018458 -0.025010
v -0.021690 -0.014502 -0.025012
v -0.024103 -0.009989 -0.025013
v -0.025588 -0.005093 -0.025014
v -0.026090 0.000000 -0.025014
v -0.025588 0.005093 -0.025014
v -0.024103 0.009989 -0.025013
v -0.021690 0.014502 -0.025012
v -0.018444 0.018458 -0.025010
v -0.014488 0.021704 -0.025008
v -0.009975 0.024117 -0.025005
v -0.005078 0.025602 -0.025002
v 0.000014 0.026104 -0.024999
v 0.005107 0.025602 -0.024997
v 0.010004 0.024117 -0.024994
v 0.014517 0.021704 -0.024991
v 0.018472 0.018458 -0.024989
v 0.021719 0.014502 -0.024987
v 0.024131 0.009989 -0.024986
v 0.025616 0.005093 -0.024985
v 0.010233 0.000000 -0.024994
v 0.010037 -0.001994 -0.024994
v 0.009455 -0.003911 -0.024994
v 0.008511 -0.005677 -0.024995
v 0.007240 -0.007226 -0.024995
v 0.005692 -0.008497 -0.024996
v 0.003925 -0.009441 -0.024997
v 0.002008 -0.010023 -0.024998
v 0.000014 -0.010219 -0.024999
v -0.001979 -0.010023 -0.025001
v -0.003896 -0.009441 -0.025002
v -0.005663 -0.008497 -0.025003
v -0.007212 -0.007226 -0.025004
v -0.008483 -0.005677 -0.025004
v -0.009427 -0.003911 -0.025005
v -0.010009 -0.001994 -0.025005
v -0.010205 0.000000 -0.025005
v -0.010009 0.001994 -0.025005
v -0.009427 0.003911 -0.025005
v -0.008483 0.005677 -0.025004
v -0.007212 0.007226 -0.025004
v -0.005663 0.008497 -0.025003
v -0.003896 0.009441 -0.025002
v -0.001979 0.010023 -0.025001
v 0.000014 0.010219 -0.024999
v 0.002008 0.010023 -0.024998
v 0.003925 0.009441 -0.024997
v 0.005692 0.008497 -0.024996
v 0.007240 0.007226 -0.024995
v 0.008511 0.005677 -0.024995
v 0.009455 0.003911 -0.024994
v 0.010037 0.001994 -0.024994
v 0.751384 -0.762294 0.309939
v -0.190098 -0.762294 0.309406
v 0.751384 0.685149 0.309939
v -0.190098 0.685149 0.309406
v 0.677202 0.570835 0.004095
v 0.677202 -0.647979 0.004095
v -0.115569 -0.647980 0.003646
v -0.115569 0.570835 0.003646
v 0.707836 0.617933 0.004112
v 0.707837 -0.695078 0.004112
v -0.146204 -0.695078 0.003628
v -0.146204 0.617933 0.003628
v 0.651052 0.530628 -0.000900
v 0.651052 -0.607773 -0.000900
v -0.089414 -0.607773 -0.001320
v -0.089414 0.530628 -0.001320
vt 1.000000 0.500000
vt 1.000000 1.000000
vt 0.968750 1.000000
vt 0.968750 0.500000
vt 0.937500 1.000000
vt 0.937500 0.500000
vt 0.906250 1.000000
vt 0.906250 0.500000
vt 0.875000 1.000000
vt 0.875000 0.500000
vt 0.843750 1.000000
vt 0.843750 0.500000
vt 0.812500 1.000000
vt 0.812500 0.500000
vt 0.781250 1.000000
vt 0.781250 0.500000
vt 0.750000 1.000000
vt 0.750000 0.500000
vt 0.718750 1.000000
vt 0.718750 0.500000
vt 0.687500 1.000000
vt 0.687500 0.500000
vt 0.656250 1.000000
vt 0.656250 0.500000
vt 0.625000 1.000000
vt 0.625000 0.500000
vt 0.593750 1.000000
vt 0.593750 0.500000
vt 0.562500 1.000000
vt 0.562500 0.500000
vt 0.531250 1.000000
vt 0.531250 0.500000
vt 0.500000 1.000000
vt 0.500000 0.500000
vt 0.468750 1.000000
vt 0.468750 0.500000
vt 0.437500 1.000000
vt 0.437500 0.500000
vt 0.406250 1.000000
vt 0.406250 0.500000
vt 0.375000 1.000000
vt 0.375000 0.500000
vt 0.343750 1.000000
vt 0.343750 0.500000
vt 0.312500 1.000000
vt 0.312500 0.500000
vt 0.281250 1.000000
vt 0.281250 0.500000
vt 0.250000 1.000000
vt 0.250000 0.500000
vt 0.218750 1.000000
vt 0.218750 0.500000
vt 0.187500 1.000000
vt 0.187500 0.500000
vt 0.156250 1.000000
vt 0.156250 0.500000
vt 0.125000 1.000000
vt 0.125000 0.500000
vt 0.093750 1.000000
vt 0.093750 0.500000
vt 0.062500 1.000000
vt 0.062500 0.500000
vt 0.296822 0.485388
vt 0.250000 0.490000
vt 0.203179 0.485389
vt 0.158156 0.471731
vt 0.116663 0.449553
vt 0.080295 0.419706
vt 0.050447 0.383337
vt 0.028269 0.341844
vt 0.014612 0.296822
vt 0.010000 0.250000
vt 0.014611 0.203179
vt 0.028269 0.158156
vt 0.050447 0.116663
vt 0.080294 0.080294
vt 0.116663 0.050447
vt 0.158156 0.028269
vt 0.203178 0.014612
vt 0.250000 0.010000
vt 0.296822 0.014612
vt 0.341844 0.028269
vt 0.383337 0.050447
vt 0.419706 0.080294
vt 0.449553 0.116663
vt 0.471731 0.158156
vt 0.485388 0.203178
vt 0.490000 0.250000
vt 0.485388 0.296822
vt 0.471731 0.341844
vt 0.449553 0.383337
vt 0.419706 0.419706
vt 0.383337 0.449553
vt 0.341844 0.471731
vt 0.031250 1.000000
vt 0.031250 0.500000
vt 0.000000 1.000000
vt 0.000000 0.500000
vt 0.687500 0.500000
vt 0.718750 0.500000
vt 0.406250 0.500000
vt 0.437500 0.500000
vt 0.125000 0.500000
vt 0.156250 0.500000
vt 0.812500 0.500000
vt 0.843750 0.500000
vt 0.531250 0.500000
vt 0.562500 0.500000
vt 0.250000 0.500000
vt 0.281250 0.500000
vt 0.937500 0.500000
vt 0.968750 0.500000
vt 0.656250 0.500000
vt 0.375000 0.500000
vt 0.093750 0.500000
vt 0.781250 0.500000
vt 0.500000 0.500000
vt 0.218750 0.500000
vt 0.906250 0.500000
vt 0.625000 0.500000
vt 0.343750 0.500000
vt 0.062500 0.500000
vt 0.750000 0.500000
vt 0.468750 0.500000
vt 0.187500 0.500000
vt 0.875000 0.500000
vt 0.593750 0.500000
vt 0.312500 0.500000
vt 0.031250 0.500000
vt 1.000000 0.500000
vt 0.000000 0.500000
vt 0.768329 0.342149
vt 0.750000 0.343955
vt 0.750000 0.490000
vt 0.796822 0.485388
vt 0.785955 0.336803
vt 0.841844 0.471731
vt 0.802198 0.328120
vt 0.883337 0.449553
vt 0.816436 0.316436
vt 0.919706 0.419706
vt 0.828120 0.302198
vt 0.949553 0.383337
vt 0.836803 0.285955
vt 0.971731 0.341844
vt 0.842149 0.268330
vt 0.985388 0.296822
vt 0.843955 0.250000
vt 0.990000 0.250000
vt 0.842150 0.231671
vt 0.985388 0.203178
vt 0.836803 0.214045
vt 0.971731 0.158156
vt 0.828120 0.197802
vt 0.949553 0.116663
vt 0.816436 0.183564
vt 0.919706 0.080294
vt 0.802198 0.171879
vt 0.883337 0.050447
vt 0.785955 0.163197
vt 0.841844 0.028269
vt 0.768330 0.157850
vt 0.796822 0.014612
vt 0.750000 0.156046
vt 0.750000 0.010000
vt 0.731670 0.157851
vt 0.703178 0.014612
vt 0.714045 0.163197
vt 0.658156 0.028269
vt 0.697801 0.171880
vt 0.616663 0.050447
vt 0.683564 0.183564
vt 0.580294 0.080294
vt 0.671880 0.197802
vt 0.550447 0.116663
vt 0.663197 0.214045
vt 0.528269 0.158156
vt 0.657851 0.231670
vt 0.514611 0.203179
vt 0.656045 0.250000
vt 0.510000 0.250000
vt 0.657851 0.268330
vt 0.514612 0.296822
vt 0.663197 0.285955
vt 0.528269 0.341844
vt 0.671880 0.302198
vt 0.550447 0.383337
vt 0.683564 0.316436
vt 0.580295 0.419706
vt 0.697802 0.328120
vt 0.616663 0.449553
vt 0.714045 0.336803
vt 0.658156 0.471731
vt 0.731671 0.342149
vt 0.703179 0.485389
vt 0.750000 0.307729
vt 0.761262 0.306619
vt 0.772092 0.303334
vt 0.782072 0.298000
vt 0.790820 0.290820
vt 0.798000 0.282072
vt 0.803334 0.272092
vt 0.806619 0.261262
vt 0.807729 0.250000
vt 0.806619 0.238738
vt 0.803334 0.227908
vt 0.798000 0.217928
vt 0.790820 0.209180
vt 0.782072 0.202000
vt 0.772092 0.196666
vt 0.761262 0.193381
vt 0.750000 0.192271
vt 0.738738 0.193381
vt 0.727908 0.196666
vt 0.717928 0.202000
vt 0.709180 0.209180
vt 0.702000 0.217928
vt 0.696666 0.227908
vt 0.693381 0.238738
vt 0.692271 0.250000
vt 0.693381 0.261262
vt 0.696666 0.272092
vt 0.702000 0.282072
vt 0.709180 0.290820
vt 0.717928 0.298000
vt 0.727908 0.303334
vt 0.738738 0.306619
vt 0.000000 0.000000
vt 0.000000 1.000000
vt 1.000000 1.000000
vt 1.000000 0.000000
vt 0.964130 0.964130
vt 0.035870 0.964130
vt 0.035870 0.964130
vt 0.964130 0.964130
vt 0.000000 0.000000
vt 0.000000 1.000000
vt 1.000000 1.000000
vt 1.000000 0.000000
vt 0.035870 0.035870
vt 0.964130 0.035870
vt 0.035870 0.035870
vt 0.964130 0.035870
vn 0.9952 -0.0980 0.0006
vn 0.9569 -0.2903 0.0005
vn 0.8819 -0.4714 0.0005
vn 0.7730 -0.6344 0.0004
vn 0.6344 -0.7730 0.0004
vn 0.4714 -0.8819 0.0003
vn 0.2903 -0.9569 0.0002
vn 0.0980 -0.9952 0.0001
vn -0.0980 -0.9952 -0.0001
vn -0.2903 -0.9569 -0.0002
vn -0.4714 -0.8819 -0.0003
vn -0.6344 -0.7730 -0.0004
vn -0.7730 -0.6344 -0.0004
vn -0.8819 -0.4714 -0.0005
vn -0.9569 -0.2903 -0.0005
vn -0.9952 -0.0980 -0.0006
vn -0.9952 0.0980 -0.0006
vn -0.9569 0.2903 -0.0005
vn -0.8819 0.4714 -0.0005
vn -0.7730 0.6344 -0.0004
vn -0.6344 0.7730 -0.0004
vn -0.4714 0.8819 -0.0003
vn -0.2903 0.9569 -0.0002
vn -0.0980 0.9952 -0.0001
vn 0.0980 0.9952 0.0001
vn 0.2903 0.9569 0.0002
vn 0.4714 0.8819 0.0003
vn 0.6344 0.7730 0.0004
vn 0.7730 0.6344 0.0004
vn 0.8819 0.4714 0.0005
vn -0.0006 0.0000 1.0000
vn 0.9569 0.2903 0.0005
vn 0.9952 0.0980 0.0006
vn -0.2609 -0.8610 -0.4366
vn -0.7932 0.4241 -0.4369
vn 0.5710 0.6955 -0.4361
vn 0.4244 -0.7935 -0.4362
vn -0.8607 -0.2612 -0.4370
vn -0.0879 0.8954 -0.4365
vn 0.8612 -0.2612 -0.4360
vn -0.4239 -0.7935 -0.4367
vn -0.6952 0.5708 -0.4369
vn 0.6957 0.5708 -0.4361
vn 0.2614 -0.8610 -0.4363
vn -0.8951 -0.0882 -0.4370
vn 0.0884 0.8954 -0.4364
vn 0.7937 -0.4241 -0.4360
vn -0.5705 -0.6955 -0.4368
vn -0.5705 0.6955 -0.4368
vn 0.7937 0.4241 -0.4360
vn 0.0884 -0.8954 -0.4364
vn -0.8951 0.0882 -0.4370
vn 0.2614 0.8610 -0.4363
vn 0.6957 -0.5708 -0.4361
vn -0.6952 -0.5708 -0.4369
vn -0.4239 0.7935 -0.4367
vn 0.8612 0.2612 -0.4360
vn -0.0879 -0.8954 -0.4365
vn -0.8607 0.2612 -0.4370
vn 0.4244 0.7935 -0.4362
vn 0.5710 -0.6955 -0.4361
vn -0.7932 -0.4241 -0.4369
vn -0.2609 0.8610 -0.4366
vn 0.8956 -0.0882 -0.4360
vn 0.8956 0.0882 -0.4360
vn 0.0006 -0.0000 -1.0000
vn 0.0006 0.1229 -0.9924
vn 0.9900 0.0000 -0.1410
vn 0.0001 0.9767 -0.2147
vn 0.0001 -0.9767 -0.2147
vn -0.9899 -0.0000 -0.1421
vn 0.0006 -0.1229 -0.9924
vn -0.1865 -0.0000 -0.9825
vn 0.1876 -0.0000 -0.9822
usemtl (null)
s off
f 1/1/1 2/2/1 4/3/1 3/4/1
f 3/4/2 4/3/2 6/5/2 5/6/2
f 5/6/3 6/5/3 8/7/3 7/8/3
f 7/8/4 8/7/4 10/9/4 9/10/4
f 9/10/5 10/9/5 12/11/5 11/12/5
f 11/12/6 12/11/6 14/13/6 13/14/6
f 13/14/7 14/13/7 16/15/7 15/16/7
f 15/16/8 16/15/8 18/17/8 17/18/8
f 17/18/9 18/17/9 20/19/9 19/20/9
f 19/20/10 20/19/10 22/21/10 21/22/10
f 21/22/11 22/21/11 24/23/11 23/24/11
f 23/24/12 24/23/12 26/25/12 25/26/12
f 25/26/13 26/25/13 28/27/13 27/28/13
f 27/28/14 28/27/14 30/29/14 29/30/14
f 29/30/15 30/29/15 32/31/15 31/32/15
f 31/32/16 32/31/16 34/33/16 33/34/16
f 33/34/17 34/33/17 36/35/17 35/36/17
f 35/36/18 36/35/18 38/37/18 37/38/18
f 37/38/19 38/37/19 40/39/19 39/40/19
f 39/40/20 40/39/20 42/41/20 41/42/20
f 41/42/21 42/41/21 44/43/21 43/44/21
f 43/44/22 44/43/22 46/45/22 45/46/22
f 45/46/23 46/45/23 48/47/23 47/48/23
f 47/48/24 48/47/24 50/49/24 49/50/24
f 49/50/25 50/49/25 52/51/25 51/52/25
f 51/52/26 52/51/26 54/53/26 53/54/26
f 53/54/27 54/53/27 56/55/27 55/56/27
f 55/56/28 56/55/28 58/57/28 57/58/28
f 57/58/29 58/57/29 60/59/29 59/60/29
f 59/60/30 60/59/30 62/61/30 61/62/30
f 4/63/31 2/64/31 64/65/31 62/66/31 60/67/31 58/68/31 56/69/31 54/70/31 52/71/31 50/72/31 48/73/31 46/74/31 44/75/31 42/76/31 40/77/31 38/78/31 36/79/31 34/80/31 32/81/31 30/82/31 28/83/31 26/84/31 24/85/31 22/86/31 20/87/31 18/88/31 16/89/31 14/90/31 12/91/31 10/92/31 8/93/31 6/94/31
f 61/62/32 62/61/32 64/95/32 63/96/32
f 63/96/33 64/95/33 2/97/33 1/98/33
f 19/20/34 21/22/34 76/99/34 75/100/34
f 37/38/35 39/40/35 85/101/35 84/102/35
f 55/56/36 57/58/36 94/103/36 93/104/36
f 11/12/37 13/14/37 72/105/37 71/106/37
f 29/30/38 31/32/38 81/107/38 80/108/38
f 47/48/39 49/50/39 90/109/39 89/110/39
f 3/4/40 5/6/40 68/111/40 67/112/40
f 21/22/41 23/24/41 77/113/41 76/99/41
f 39/40/42 41/42/42 86/114/42 85/101/42
f 57/58/43 59/60/43 95/115/43 94/103/43
f 13/14/44 15/16/44 73/116/44 72/105/44
f 31/32/45 33/34/45 82/117/45 81/107/45
f 49/50/46 51/52/46 91/118/46 90/109/46
f 5/6/47 7/8/47 69/119/47 68/111/47
f 23/24/48 25/26/48 78/120/48 77/113/48
f 41/42/49 43/44/49 87/121/49 86/114/49
f 59/60/50 61/62/50 96/122/50 95/115/50
f 15/16/51 17/18/51 74/123/51 73/116/51
f 33/34/52 35/36/52 83/124/52 82/117/52
f 51/52/53 53/54/53 92/125/53 91/118/53
f 7/8/54 9/10/54 70/126/54 69/119/54
f 25/26/55 27/28/55 79/127/55 78/120/55
f 43/44/56 45/46/56 88/128/56 87/121/56
f 61/62/57 63/96/57 97/129/57 96/122/57
f 17/18/58 19/20/58 75/100/58 74/123/58
f 35/36/59 37/38/59 84/102/59 83/124/59
f 53/54/60 55/56/60 93/104/60 92/125/60
f 9/10/61 11/12/61 71/106/61 70/126/61
f 27/28/62 29/30/62 80/108/62 79/127/62
f 45/46/63 47/48/63 89/110/63 88/128/63
f 1/1/64 3/4/64 67/112/64 66/130/64
f 63/96/65 1/98/65 66/131/65 97/129/65
f 99/132/66 98/133/66 66/134/66 67/135/66
f 100/136/66 99/132/66 67/135/66 68/137/66
f 101/138/66 100/136/66 68/137/66 69/139/66
f 102/140/66 101/138/66 69/139/66 70/141/66
f 103/142/66 102/140/66 70/141/66 71/143/66
f 104/144/66 103/142/66 71/143/66 72/145/66
f 105/146/66 104/144/66 72/145/66 73/147/66
f 106/148/66 105/146/66 73/147/66 74/149/66
f 107/150/66 106/148/66 74/149/66 75/151/66
f 108/152/66 107/150/66 75/151/66 76/153/66
f 109/154/66 108/152/66 76/153/66 77/155/66
f 110/156/66 109/154/66 77/155/66 78/157/66
f 111/158/66 110/156/66 78/157/66 79/159/66
f 112/160/66 111/158/66 79/159/66 80/161/66
f 113/162/66 112/160/66 80/161/66 81/163/66
f 114/164/66 113/162/66 81/163/66 82/165/66
f 115/166/66 114/164/66 82/165/66 83/167/66
f 116/168/66 115/166/66 83/167/66 84/169/66
f 117/170/66 116/168/66 84/169/66 85/171/66
f 118/172/66 117/170/66 85/171/66 86/173/66
f 119/174/66 118/172/66 86/173/66 87/175/66
f 120/176/66 119/174/66 87/175/66 88/177/66
f 121/178/66 120/176/66 88/177/66 89/179/66
f 122/180/66 121/178/66 89/179/66 90/181/66
f 123/182/66 122/180/66 90/181/66 91/183/66
f 124/184/66 123/182/66 91/183/66 92/185/66
f 125/186/66 124/184/66 92/185/66 93/187/66
f 126/188/66 125/186/66 93/187/66 94/189/66
f 127/190/66 126/188/66 94/189/66 95/191/66
f 128/192/66 127/190/66 95/191/66 96/193/66
f 129/194/66 128/192/66 96/193/66 97/195/66
f 98/133/66 129/194/66 97/195/66 66/134/66
f 65/196/66 98/133/66 99/132/66
f 65/197/66 99/132/66 100/136/66
f 65/198/66 100/136/66 101/138/66
f 65/199/66 101/138/66 102/140/66
f 65/200/66 102/140/66 103/142/66
f 65/201/66 103/142/66 104/144/66
f 65/202/66 104/144/66 105/146/66
f 65/203/66 105/146/66 106/148/66
f 65/204/66 106/148/66 107/150/66
f 65/205/66 107/150/66 108/152/66
f 65/206/66 108/152/66 109/154/66
f 65/207/66 109/154/66 110/156/66
f 65/208/66 110/156/66 111/158/66
f 65/209/66 111/158/66 112/160/66
f 65/210/66 112/160/66 113/162/66
f 65/211/66 113/162/66 114/164/66
f 65/212/66 114/164/66 115/166/66
f 65/213/66 115/166/66 116/168/66
f 65/214/66 116/168/66 117/170/66
f 65/215/66 117/170/66 118/172/66
f 65/216/66 118/172/66 119/174/66
f 65/217/66 119/174/66 120/176/66
f 65/218/66 120/176/66 121/178/66
f 65/219/66 121/178/66 122/180/66
f 65/220/66 122/180/66 123/182/66
f 65/221/66 123/182/66 124/184/66
f 65/222/66 124/184/66 125/186/66
f 65/223/66 125/186/66 126/188/66
f 65/224/66 126/188/66 127/190/66
f 65/225/66 127/190/66 128/192/66
f 65/226/66 128/192/66 129/194/66
f 65/227/66 129/194/66 98/133/66
f 130/228/31 132/229/31 133/230/31 131/231/31
f 137/232/67 134/233/67 142/234/67 145/235/67
f 132/229/68 130/228/68 139/236/68 138/237/68
f 133/230/69 132/229/69 138/237/69 141/238/69
f 130/228/70 131/231/70 140/239/70 139/236/70
f 131/231/71 133/230/71 141/238/71 140/239/71
f 135/240/66 134/233/66 138/237/66 139/236/66
f 136/241/66 135/240/66 139/236/66 140/239/66
f 137/232/66 136/241/66 140/239/66 141/238/66
f 134/233/66 137/232/66 141/238/66 138/237/66
f 143/242/66 144/243/66 145/235/66 142/234/66
f 135/240/72 136/241/72 144/243/72 143/242/72
f 136/241/73 137/232/73 145/235/73 144/243/73
f 134/233/74 135/240/74 143/242/74 142/234/74
