# Blender v2.80 (sub 75) OBJ File: ''
# www.blender.org
mtllib PAREDE ESQUERDA SALA DE CONTROLE .mtl
o PAREDE_DIREITA.006_Plane.009
v -0.242405 3.085901 -7.721539
v -0.242404 -3.085901 -7.721539
v -0.251158 3.085901 7.721260
v -0.251157 -3.085901 7.721260
v 0.242404 3.085901 7.721539
v 0.251157 3.085901 -7.721260
v 0.251158 -3.085901 -7.721260
v 0.242405 -3.085901 7.721539
v -0.249407 3.085901 4.632700
v -0.247657 3.085901 1.544140
v -0.245906 3.085901 -1.544420
v -0.244155 3.085901 -4.632980
v -0.242405 1.851541 -7.721539
v -0.242405 0.617180 -7.721539
v -0.242405 -0.617180 -7.721539
v -0.242404 -1.851541 -7.721539
v -0.244155 -3.085901 -4.632979
v -0.245906 -3.085901 -1.544419
v -0.247656 -3.085901 1.544140
v -0.249407 -3.085901 4.632700
v -0.251158 -1.851541 7.721260
v -0.251158 -0.617180 7.721260
v -0.251158 0.617180 7.721260
v -0.251158 1.851541 7.721260
v 0.244155 3.085901 4.632979
v 0.245905 3.085901 1.544420
v 0.247656 3.085901 -1.544140
v 0.249407 3.085901 -4.632700
v 0.251157 1.851541 -7.721260
v 0.251157 0.617180 -7.721260
v 0.251158 -0.617180 -7.721260
v 0.251158 -1.851541 -7.721260
v 0.249407 -3.085901 -4.632700
v 0.247656 -3.085901 -1.544140
v 0.245906 -3.085901 1.544420
v 0.244155 -3.085901 4.632980
v 0.242405 -1.851541 7.721539
v 0.242404 -0.617180 7.721539
v 0.242404 0.617180 7.721539
v 0.242404 1.851541 7.721539
v -0.152445 -3.085901 7.721316
v -0.053733 -3.085901 7.721372
v 0.044980 -3.085901 7.721428
v 0.143692 -3.085901 7.721484
v 0.152445 -3.085901 -7.721316
v 0.053733 -3.085901 -7.721372
v -0.044980 -3.085901 -7.721428
v -0.143692 -3.085901 -7.721484
v -0.143692 3.085901 -7.721484
v -0.044980 3.085901 -7.721428
v 0.053732 3.085901 -7.721372
v 0.152445 3.085901 -7.721316
v 0.143692 3.085901 7.721484
v 0.044979 3.085901 7.721428
v -0.053733 3.085901 7.721372
v -0.152445 3.085901 7.721316
v -0.143692 1.851541 -7.721484
v -0.044980 1.851541 -7.721428
v 0.053733 1.851541 -7.721372
v 0.152445 1.851541 -7.721316
v -0.143692 0.617180 -7.721484
v -0.044980 0.617180 -7.721428
v 0.053733 0.617180 -7.721372
v 0.152445 0.617180 -7.721316
v -0.143692 -0.617180 -7.721484
v -0.044980 -0.617180 -7.721428
v 0.053733 -0.617180 -7.721372
v 0.152445 -0.617180 -7.721316
v -0.143692 -1.851541 -7.721484
v -0.044980 -1.851541 -7.721428
v 0.053733 -1.851541 -7.721372
v 0.152445 -1.851541 -7.721316
v -0.152445 -1.851541 7.721316
v -0.053733 -1.851541 7.721372
v 0.044980 -1.851541 7.721428
v 0.143692 -1.851541 7.721484
v -0.152445 -0.617180 7.721316
v -0.053733 -0.617180 7.721372
v 0.044980 -0.617180 7.721428
v 0.143692 -0.617180 7.721484
v -0.152445 0.617180 7.721316
v -0.053733 0.617180 7.721372
v 0.044980 0.617180 7.721428
v 0.143692 0.617180 7.721484
v -0.152445 1.851541 7.721316
v -0.053733 1.851541 7.721372
v 0.044979 1.851541 7.721428
v 0.143692 1.851541 7.721484
v -0.150695 3.085901 4.632756
v -0.051982 3.085901 4.632812
v 0.046730 3.085901 4.632868
v 0.145442 3.085901 4.632924
v -0.148944 3.085901 1.544196
v -0.050232 3.085901 1.544252
v 0.048481 3.085901 1.544308
v 0.147193 3.085901 1.544364
v -0.147194 3.085901 -1.544364
v -0.048481 3.085901 -1.544308
v 0.050231 3.085901 -1.544252
v 0.148944 3.085901 -1.544196
v -0.145443 3.085901 -4.632924
v -0.046731 3.085901 -4.632868
v 0.051982 3.085901 -4.632812
v 0.150694 3.085901 -4.632756
v -0.145443 -3.085901 -4.632924
v -0.046730 -3.085901 -4.632868
v 0.051982 -3.085901 -4.632812
v 0.150695 -3.085901 -4.632756
v -0.147193 -3.085901 -1.544363
v -0.048481 -3.085901 -1.544308
v 0.050232 -3.085901 -1.544252
v 0.148944 -3.085901 -1.544196
v -0.148944 -3.085901 1.544196
v -0.050231 -3.085901 1.544252
v 0.048481 -3.085901 1.544308
v 0.147193 -3.085901 1.544364
v -0.150694 -3.085901 4.632756
v -0.051982 -3.085901 4.632812
v 0.046730 -3.085901 4.632868
v 0.145443 -3.085901 4.632924
v 0.249407 1.851541 -4.632700
v 0.247656 1.851541 -1.544140
v 0.245905 1.851541 1.544420
v 0.244155 1.851541 4.632980
v 0.249407 0.617180 -4.632700
v 0.247656 0.617180 -1.544140
v 0.245906 0.617180 1.544420
v 0.244155 0.617180 4.632980
v 0.249407 -0.617180 -4.632700
v 0.247656 -0.617180 -1.544140
v 0.245906 -0.617180 1.544420
v 0.244155 -0.617180 4.632980
v 0.249407 -1.851541 -4.632700
v 0.247656 -1.851541 -1.544140
v 0.245906 -1.851541 1.544420
v 0.244155 -1.851541 4.632980
v -0.244155 1.851541 -4.632980
v -0.244155 0.617180 -4.632980
v -0.244155 -0.617180 -4.632980
v -0.244155 -1.851541 -4.632979
v -0.245906 1.851541 -1.544420
v -0.245906 0.617180 -1.544420
v -0.245906 -0.617180 -1.544420
v -0.245906 -1.851541 -1.544419
v -0.247657 1.851541 1.544140
v -0.247656 0.617180 1.544140
v -0.247656 -0.617180 1.544140
v -0.247656 -1.851541 1.544140
v -0.249407 1.851541 4.632700
v -0.249407 0.617180 4.632700
v -0.249407 -0.617180 4.632700
v -0.249407 -1.851541 4.632700
vt 0.800000 0.800000
vt 0.800000 1.000000
vt 1.000000 1.000000
vt 1.000000 0.800000
vt 0.800000 0.800000
vt 1.000000 0.800000
vt 1.000000 1.000000
vt 0.800000 1.000000
vt 1.000000 0.800000
vt 1.000000 1.000000
vt 0.000000 0.200000
vt 0.000000 0.000000
vt 0.000000 0.000000
vt 0.000000 0.200000
vt 0.200000 1.000000
vt 0.000000 1.000000
vt 0.000000 1.000000
vt 0.200000 1.000000
vt 0.800000 0.000000
vt 1.000000 0.000000
vt 1.000000 0.000000
vt 0.800000 0.000000
vt 0.200000 0.000000
vt 0.200000 0.000000
vt 0.400000 0.000000
vt 0.400000 0.000000
vt 0.600000 0.000000
vt 0.600000 0.000000
vt 0.000000 0.000000
vt 0.200000 0.000000
vt 0.200000 0.000000
vt 0.000000 0.000000
vt 0.200000 0.000000
vt 0.000000 0.000000
vt 0.200000 0.000000
vt 0.000000 0.000000
vt 0.400000 0.000000
vt 0.400000 0.000000
vt 0.400000 0.000000
vt 0.400000 0.000000
vt 0.600000 0.000000
vt 0.600000 0.000000
vt 0.600000 0.000000
vt 0.600000 0.000000
vt 0.800000 0.000000
vt 0.800000 0.000000
vt 0.800000 0.000000
vt 0.800000 0.000000
vt 1.000000 0.000000
vt 1.000000 0.000000
vt 1.000000 0.000000
vt 1.000000 0.000000
vt 0.800000 1.000000
vt 0.600000 1.000000
vt 0.600000 1.000000
vt 0.400000 1.000000
vt 0.400000 1.000000
vt 0.800000 1.000000
vt 1.000000 1.000000
vt 0.800000 1.000000
vt 1.000000 1.000000
vt 0.800000 1.000000
vt 1.000000 1.000000
vt 0.600000 1.000000
vt 0.600000 1.000000
vt 0.600000 1.000000
vt 0.600000 1.000000
vt 0.400000 1.000000
vt 0.400000 1.000000
vt 0.400000 1.000000
vt 0.400000 1.000000
vt 0.200000 1.000000
vt 0.200000 1.000000
vt 0.200000 1.000000
vt 0.200000 1.000000
vt 0.000000 1.000000
vt 0.000000 1.000000
vt 0.000000 1.000000
vt 0.000000 1.000000
vt 0.000000 0.800000
vt 0.000000 0.800000
vt 0.000000 0.600000
vt 0.000000 0.600000
vt 0.000000 0.400000
vt 0.000000 0.400000
vt 0.000000 0.800000
vt 0.000000 0.800000
vt 0.000000 0.800000
vt 0.000000 0.800000
vt 0.000000 0.600000
vt 0.000000 0.600000
vt 0.000000 0.600000
vt 0.000000 0.600000
vt 0.000000 0.400000
vt 0.000000 0.400000
vt 0.000000 0.400000
vt 0.000000 0.400000
vt 0.000000 0.200000
vt 0.000000 0.200000
vt 0.000000 0.200000
vt 0.000000 0.200000
vt 1.000000 0.200000
vt 1.000000 0.200000
vt 1.000000 0.400000
vt 1.000000 0.400000
vt 1.000000 0.600000
vt 1.000000 0.600000
vt 1.000000 0.200000
vt 1.000000 0.200000
vt 1.000000 0.200000
vt 1.000000 0.200000
vt 1.000000 0.400000
vt 1.000000 0.400000
vt 1.000000 0.400000
vt 1.000000 0.400000
vt 1.000000 0.600000
vt 1.000000 0.600000
vt 1.000000 0.600000
vt 1.000000 0.600000
vt 1.000000 0.800000
vt 1.000000 0.800000
vt 1.000000 0.800000
vt 0.200000 0.800000
vt 0.400000 0.800000
vt 0.600000 0.800000
vt 0.200000 0.200000
vt 0.200000 0.400000
vt 0.200000 0.600000
vt 0.400000 0.200000
vt 0.400000 0.400000
vt 0.400000 0.600000
vt 0.600000 0.200000
vt 0.600000 0.400000
vt 0.600000 0.600000
vt 0.800000 0.200000
vt 0.800000 0.400000
vt 0.800000 0.600000
vt 0.800000 0.200000
vt 0.800000 0.400000
vt 0.800000 0.600000
vt 0.200000 0.200000
vt 0.400000 0.200000
vt 0.600000 0.200000
vt 0.200000 0.400000
vt 0.400000 0.400000
vt 0.600000 0.400000
vt 0.200000 0.600000
vt 0.400000 0.600000
vt 0.600000 0.600000
vt 0.200000 0.800000
vt 0.400000 0.800000
vt 0.600000 0.800000
vn 1.0000 0.0000 0.0006
vn -1.0000 -0.0000 -0.0006
vn 0.0000 1.0000 -0.0000
vn 0.0000 -1.0000 -0.0000
vn 0.0006 0.0000 -1.0000
vn -0.0006 -0.0000 1.0000
usemtl (null)
s off
f 152/1/1 21/2/1 4/3/1 20/4/1
f 136/5/2 36/6/2 8/7/2 37/8/2
f 120/9/3 44/10/3 8/7/3 36/6/3
f 104/11/4 52/12/4 6/13/4 28/14/4
f 88/15/5 53/16/5 5/17/5 40/18/5
f 72/19/6 45/20/6 7/21/6 32/22/6
f 52/12/6 60/23/6 29/24/6 6/13/6
f 60/23/6 64/25/6 30/26/6 29/24/6
f 64/25/6 68/27/6 31/28/6 30/26/6
f 68/27/6 72/19/6 32/22/6 31/28/6
f 1/29/6 13/30/6 57/31/6 49/32/6
f 49/32/6 57/31/6 58/33/6 50/34/6
f 50/34/6 58/33/6 59/35/6 51/36/6
f 51/36/6 59/35/6 60/23/6 52/12/6
f 13/30/6 14/37/6 61/38/6 57/31/6
f 57/31/6 61/38/6 62/39/6 58/33/6
f 58/33/6 62/39/6 63/40/6 59/35/6
f 59/35/6 63/40/6 64/25/6 60/23/6
f 14/37/6 15/41/6 65/42/6 61/38/6
f 61/38/6 65/42/6 66/43/6 62/39/6
f 62/39/6 66/43/6 67/44/6 63/40/6
f 63/40/6 67/44/6 68/27/6 64/25/6
f 15/41/6 16/45/6 69/46/6 65/42/6
f 65/42/6 69/46/6 70/47/6 66/43/6
f 66/43/6 70/47/6 71/48/6 67/44/6
f 67/44/6 71/48/6 72/19/6 68/27/6
f 16/45/6 2/49/6 48/50/6 69/46/6
f 69/46/6 48/50/6 47/51/6 70/47/6
f 70/47/6 47/51/6 46/52/6 71/48/6
f 71/48/6 46/52/6 45/20/6 72/19/6
f 44/10/5 76/53/5 37/8/5 8/7/5
f 76/53/5 80/54/5 38/55/5 37/8/5
f 80/54/5 84/56/5 39/57/5 38/55/5
f 84/56/5 88/15/5 40/18/5 39/57/5
f 4/3/5 21/2/5 73/58/5 41/59/5
f 41/59/5 73/58/5 74/60/5 42/61/5
f 42/61/5 74/60/5 75/62/5 43/63/5
f 43/63/5 75/62/5 76/53/5 44/10/5
f 21/2/5 22/64/5 77/65/5 73/58/5
f 73/58/5 77/65/5 78/66/5 74/60/5
f 74/60/5 78/66/5 79/67/5 75/62/5
f 75/62/5 79/67/5 80/54/5 76/53/5
f 22/64/5 23/68/5 81/69/5 77/65/5
f 77/65/5 81/69/5 82/70/5 78/66/5
f 78/66/5 82/70/5 83/71/5 79/67/5
f 79/67/5 83/71/5 84/56/5 80/54/5
f 23/68/5 24/72/5 85/73/5 81/69/5
f 81/69/5 85/73/5 86/74/5 82/70/5
f 82/70/5 86/74/5 87/75/5 83/71/5
f 83/71/5 87/75/5 88/15/5 84/56/5
f 24/72/5 3/76/5 56/77/5 85/73/5
f 85/73/5 56/77/5 55/78/5 86/74/5
f 86/74/5 55/78/5 54/79/5 87/75/5
f 87/75/5 54/79/5 53/16/5 88/15/5
f 53/16/4 92/80/4 25/81/4 5/17/4
f 92/80/4 96/82/4 26/83/4 25/81/4
f 96/82/4 100/84/4 27/85/4 26/83/4
f 100/84/4 104/11/4 28/14/4 27/85/4
f 3/76/4 9/86/4 89/87/4 56/77/4
f 56/77/4 89/87/4 90/88/4 55/78/4
f 55/78/4 90/88/4 91/89/4 54/79/4
f 54/79/4 91/89/4 92/80/4 53/16/4
f 9/86/4 10/90/4 93/91/4 89/87/4
f 89/87/4 93/91/4 94/92/4 90/88/4
f 90/88/4 94/92/4 95/93/4 91/89/4
f 91/89/4 95/93/4 96/82/4 92/80/4
f 10/90/4 11/94/4 97/95/4 93/91/4
f 93/91/4 97/95/4 98/96/4 94/92/4
f 94/92/4 98/96/4 99/97/4 95/93/4
f 95/93/4 99/97/4 100/84/4 96/82/4
f 11/94/4 12/98/4 101/99/4 97/95/4
f 97/95/4 101/99/4 102/100/4 98/96/4
f 98/96/4 102/100/4 103/101/4 99/97/4
f 99/97/4 103/101/4 104/11/4 100/84/4
f 12/98/4 1/29/4 49/32/4 101/99/4
f 101/99/4 49/32/4 50/34/4 102/100/4
f 102/100/4 50/34/4 51/36/4 103/101/4
f 103/101/4 51/36/4 52/12/4 104/11/4
f 45/20/3 108/102/3 33/103/3 7/21/3
f 108/102/3 112/104/3 34/105/3 33/103/3
f 112/104/3 116/106/3 35/107/3 34/105/3
f 116/106/3 120/9/3 36/6/3 35/107/3
f 2/49/3 17/108/3 105/109/3 48/50/3
f 48/50/3 105/109/3 106/110/3 47/51/3
f 47/51/3 106/110/3 107/111/3 46/52/3
f 46/52/3 107/111/3 108/102/3 45/20/3
f 17/108/3 18/112/3 109/113/3 105/109/3
f 105/109/3 109/113/3 110/114/3 106/110/3
f 106/110/3 110/114/3 111/115/3 107/111/3
f 107/111/3 111/115/3 112/104/3 108/102/3
f 18/112/3 19/116/3 113/117/3 109/113/3
f 109/113/3 113/117/3 114/118/3 110/114/3
f 110/114/3 114/118/3 115/119/3 111/115/3
f 111/115/3 115/119/3 116/106/3 112/104/3
f 19/116/3 20/4/3 117/120/3 113/117/3
f 113/117/3 117/120/3 118/121/3 114/118/3
f 114/118/3 118/121/3 119/122/3 115/119/3
f 115/119/3 119/122/3 120/9/3 116/106/3
f 20/4/3 4/3/3 41/59/3 117/120/3
f 117/120/3 41/59/3 42/61/3 118/121/3
f 118/121/3 42/61/3 43/63/3 119/122/3
f 119/122/3 43/63/3 44/10/3 120/9/3
f 25/81/2 124/123/2 40/18/2 5/17/2
f 124/123/2 128/124/2 39/57/2 40/18/2
f 128/124/2 132/125/2 38/55/2 39/57/2
f 132/125/2 136/5/2 37/8/2 38/55/2
f 6/13/2 29/24/2 121/126/2 28/14/2
f 28/14/2 121/126/2 122/127/2 27/85/2
f 27/85/2 122/127/2 123/128/2 26/83/2
f 26/83/2 123/128/2 124/123/2 25/81/2
f 29/24/2 30/26/2 125/129/2 121/126/2
f 121/126/2 125/129/2 126/130/2 122/127/2
f 122/127/2 126/130/2 127/131/2 123/128/2
f 123/128/2 127/131/2 128/124/2 124/123/2
f 30/26/2 31/28/2 129/132/2 125/129/2
f 125/129/2 129/132/2 130/133/2 126/130/2
f 126/130/2 130/133/2 131/134/2 127/131/2
f 127/131/2 131/134/2 132/125/2 128/124/2
f 31/28/2 32/22/2 133/135/2 129/132/2
f 129/132/2 133/135/2 134/136/2 130/133/2
f 130/133/2 134/136/2 135/137/2 131/134/2
f 131/134/2 135/137/2 136/5/2 132/125/2
f 32/22/2 7/21/2 33/103/2 133/135/2
f 133/135/2 33/103/2 34/105/2 134/136/2
f 134/136/2 34/105/2 35/107/2 135/137/2
f 135/137/2 35/107/2 36/6/2 136/5/2
f 16/45/1 140/138/1 17/108/1 2/49/1
f 140/138/1 144/139/1 18/112/1 17/108/1
f 144/139/1 148/140/1 19/116/1 18/112/1
f 148/140/1 152/1/1 20/4/1 19/116/1
f 1/29/1 12/98/1 137/141/1 13/30/1
f 13/30/1 137/141/1 138/142/1 14/37/1
f 14/37/1 138/142/1 139/143/1 15/41/1
f 15/41/1 139/143/1 140/138/1 16/45/1
f 12/98/1 11/94/1 141/144/1 137/141/1
f 137/141/1 141/144/1 142/145/1 138/142/1
f 138/142/1 142/145/1 143/146/1 139/143/1
f 139/143/1 143/146/1 144/139/1 140/138/1
f 11/94/1 10/90/1 145/147/1 141/144/1
f 141/144/1 145/147/1 146/148/1 142/145/1
f 142/145/1 146/148/1 147/149/1 143/146/1
f 143/146/1 147/149/1 148/140/1 144/139/1
f 10/90/1 9/86/1 149/150/1 145/147/1
f 145/147/1 149/150/1 150/151/1 146/148/1
f 146/148/1 150/151/1 151/152/1 147/149/1
f 147/149/1 151/152/1 152/1/1 148/140/1
f 9/86/1 3/76/1 24/72/1 149/150/1
f 149/150/1 24/72/1 23/68/1 150/151/1
f 150/151/1 23/68/1 22/64/1 151/152/1
f 151/152/1 22/64/1 21/2/1 152/1/1
