# Blender v2.80 (sub 75) OBJ File: ''
# www.blender.org
mtllib TUBOS SALA DE CONTROLE 1.mtl
o CANOS_2_Plane.003
v -0.067771 -0.173123 0.045584
v -0.045584 -0.195310 0.045584
v -0.045584 -0.173123 0.067771
v 0.045584 -0.173123 0.067771
v 0.045584 -0.195310 0.045584
v 0.067771 -0.173123 0.045584
v -0.067771 -0.173123 -0.045584
v -0.045584 -0.173123 -0.067771
v -0.045584 -0.195310 -0.045584
v 0.067771 -0.173123 -0.045584
v 0.045584 -0.195310 -0.045584
v 0.045584 -0.173123 -0.067771
v -0.067771 1.213882 -0.045584
v -0.045584 1.213882 -0.067771
v -0.067771 1.213882 0.045584
v -0.045584 1.213882 0.067771
v 0.045584 1.213882 0.067771
v 0.067771 1.213882 0.045584
v 0.067771 1.213882 -0.045584
v 0.045584 1.213882 -0.067771
v -0.067771 -0.173123 -1.987551
v -0.045584 -0.195310 -1.987551
v -0.045584 -0.173123 -1.965365
v 0.045584 -0.173123 -1.965365
v 0.045584 -0.195310 -1.987551
v 0.067771 -0.173123 -1.987551
v -0.067771 -0.173123 -2.078720
v -0.045584 -0.173123 -2.100907
v -0.045584 -0.195310 -2.078720
v 0.067771 -0.173123 -2.078720
v 0.045584 -0.195310 -2.078720
v 0.045584 -0.173123 -2.100907
v -0.067771 1.213882 -2.078720
v -0.045584 1.213882 -2.100907
v -0.067771 1.213882 -1.987551
v -0.045584 1.213882 -1.965365
v 0.045584 1.213882 -1.965365
v 0.067771 1.213882 -1.987551
v 0.067771 1.213882 -2.078720
v 0.045584 1.213882 -2.100907
v -0.067771 -0.173123 -4.020687
v -0.045584 -0.195310 -4.020687
v -0.045584 -0.173123 -3.998501
v 0.045584 -0.173123 -3.998501
v 0.045584 -0.195310 -4.020687
v 0.067771 -0.173123 -4.020687
v -0.067771 -0.173123 -4.111856
v -0.045584 -0.173123 -4.134043
v -0.045584 -0.195310 -4.111856
v 0.067771 -0.173123 -4.111856
v 0.045584 -0.195310 -4.111856
v 0.045584 -0.173123 -4.134043
v -0.067771 1.213882 -4.111856
v -0.045584 1.213882 -4.134043
v -0.067771 1.213882 -4.020687
v -0.045584 1.213882 -3.998501
v 0.045584 1.213882 -3.998501
v 0.067771 1.213882 -4.020687
v 0.067771 1.213882 -4.111856
v 0.045584 1.213882 -4.134043
v -0.067771 -0.173123 -6.053823
v -0.045584 -0.195310 -6.053823
v -0.045584 -0.173123 -6.031636
v 0.045584 -0.173123 -6.031636
v 0.045584 -0.195310 -6.053823
v 0.067771 -0.173123 -6.053823
v -0.067771 -0.173123 -6.144992
v -0.045584 -0.173123 -6.167179
v -0.045584 -0.195310 -6.144992
v 0.067771 -0.173123 -6.144992
v 0.045584 -0.195310 -6.144992
v 0.045584 -0.173123 -6.167179
v -0.067771 1.213882 -6.144992
v -0.045584 1.213882 -6.167179
v -0.067771 1.213882 -6.053823
v -0.045584 1.213882 -6.031636
v 0.045584 1.213882 -6.031636
v 0.067771 1.213882 -6.053823
v 0.067771 1.213882 -6.144992
v 0.045584 1.213882 -6.167179
v -0.067771 -0.173123 -8.086959
v -0.045584 -0.195310 -8.086959
v -0.045584 -0.173123 -8.064773
v 0.045584 -0.173123 -8.064773
v 0.045584 -0.195310 -8.086959
v 0.067771 -0.173123 -8.086959
v -0.067771 -0.173123 -8.178128
v -0.045584 -0.173123 -8.200315
v -0.045584 -0.195310 -8.178128
v 0.067771 -0.173123 -8.178128
v 0.045584 -0.195310 -8.178128
v 0.045584 -0.173123 -8.200315
v -0.067771 1.213882 -8.178128
v -0.045584 1.213882 -8.200315
v -0.067771 1.213882 -8.086959
v -0.045584 1.213882 -8.064773
v 0.045584 1.213882 -8.064773
v 0.067771 1.213882 -8.086959
v 0.067771 1.213882 -8.178128
v 0.045584 1.213882 -8.200315
v -0.067771 -0.173123 -10.120095
v -0.045584 -0.195310 -10.120095
v -0.045584 -0.173123 -10.097908
v 0.045584 -0.173123 -10.097908
v 0.045584 -0.195310 -10.120095
v 0.067771 -0.173123 -10.120095
v -0.067771 -0.173123 -10.211264
v -0.045584 -0.173123 -10.233451
v -0.045584 -0.195310 -10.211264
v 0.067771 -0.173123 -10.211264
v 0.045584 -0.195310 -10.211264
v 0.045584 -0.173123 -10.233451
v -0.067771 1.213882 -10.211264
v -0.045584 1.213882 -10.233451
v -0.067771 1.213882 -10.120095
v -0.045584 1.213882 -10.097908
v 0.045584 1.213882 -10.097908
v 0.067771 1.213882 -10.120095
v 0.067771 1.213882 -10.211264
v 0.045584 1.213882 -10.233451
v -0.440146 -0.507022 1.062166
v 0.450320 -0.507022 1.062166
v -0.440146 -0.507022 -11.280217
v 0.450320 -0.507022 -11.280217
v -0.440146 -0.191799 -11.280217
v -0.440146 -0.191799 1.062166
v 0.450320 -0.191799 1.062166
v 0.450320 -0.191799 -11.280217
v -0.440146 -0.507022 1.372750
v 0.450320 -0.507022 1.372750
v -0.440146 -0.191799 1.372750
v 0.450320 -0.191799 1.372750
v -0.440146 1.244127 1.062166
v 0.450320 1.244127 1.062166
v -0.440146 1.244127 1.372750
v 0.450320 1.244127 1.372750
v 0.450320 -0.507022 -11.589673
v -0.440146 -0.507022 -11.589673
v 0.450320 -0.191799 -11.589673
v -0.440146 -0.191799 -11.589673
v 0.450320 1.265641 -11.280217
v -0.440146 1.265641 -11.280217
v 0.450320 1.265641 -11.589673
v -0.440146 1.265641 -11.589673
v -0.322342 -0.507022 -10.341417
v -0.322342 -0.507022 -10.161955
v -0.440146 -0.507022 -9.223153
v -0.440146 -0.507022 -8.537466
v -0.338676 -0.507022 -7.596821
v -0.338676 -0.507022 -7.421047
v -0.440146 -0.507022 -6.480402
v -0.340164 -0.507022 -5.540000
v -0.340164 -0.507022 -5.363740
v -0.440146 -0.507022 -4.423338
v -0.440146 -0.507022 -3.737650
v -0.360821 -0.507022 -2.812294
v -0.360821 -0.507022 -2.605942
v -0.440146 -0.507022 -1.680586
v -0.440146 -0.507022 -0.994898
v -0.304858 -0.507022 -0.073378
v -0.304858 -0.507022 0.140646
v 0.315032 -0.507022 0.140646
v 0.315032 -0.507022 -0.073378
v 0.450320 -0.507022 -0.994898
v 0.450320 -0.507022 -1.680586
v 0.370994 -0.507022 -2.605942
v 0.370994 -0.507022 -2.812294
v 0.450320 -0.507022 -3.737650
v 0.450320 -0.507022 -4.423338
v 0.350338 -0.507022 -5.363740
v 0.350338 -0.507022 -5.539999
v 0.450320 -0.507022 -6.480402
v 0.348850 -0.507022 -7.421046
v 0.348850 -0.507022 -7.596821
v 0.450320 -0.507022 -8.537465
v 0.450320 -0.507022 -9.223153
v 0.332515 -0.507022 -10.161954
v 0.332515 -0.507022 -10.341417
v -0.440146 -0.191799 -10.594529
v -0.440146 -0.191799 -9.908843
v -0.440146 -0.191799 -9.223153
v -0.440146 -0.191799 -8.537466
v -0.440146 -0.191799 -7.851778
v -0.440146 -0.191799 -7.166090
v -0.440146 -0.191799 -6.480402
v -0.440146 -0.191799 -5.794714
v -0.440146 -0.191799 -5.109026
v -0.440146 -0.191799 -4.423338
v -0.440146 -0.191799 -3.737650
v -0.440146 -0.191799 -3.051962
v -0.440146 -0.191799 -2.366274
v -0.440146 -0.191799 -1.680586
v -0.440146 -0.191799 -0.994898
v -0.440146 -0.191799 -0.309210
v -0.440146 -0.191799 0.376478
v 0.450320 -0.191799 0.376478
v 0.450320 -0.191799 -0.309210
v 0.450320 -0.191799 -0.994898
v 0.450320 -0.191799 -1.680586
v 0.450320 -0.191799 -2.366274
v 0.450320 -0.191799 -3.051962
v 0.450320 -0.191799 -3.737650
v 0.450320 -0.191799 -4.423338
v 0.450320 -0.191799 -5.109026
v 0.450320 -0.191799 -5.794714
v 0.450320 -0.191799 -6.480402
v 0.450320 -0.191799 -7.166090
v 0.450320 -0.191799 -7.851778
v 0.450320 -0.191799 -8.537465
v 0.450320 -0.191799 -9.223153
v 0.450320 -0.191799 -9.908841
v 0.450320 -0.191799 -10.594529
v -0.440146 -0.507022 -0.309210
v -0.440146 -0.507022 0.376478
v 0.450320 -0.507022 0.376478
v 0.450320 -0.507022 -0.309210
v -0.304858 -1.744854 -0.073378
v -0.304858 -1.744854 0.140646
v 0.315032 -1.744854 0.140646
v 0.315032 -1.744854 -0.073378
v -0.440146 -0.507022 -3.051962
v -0.440146 -0.507022 -2.366274
v 0.450320 -0.507022 -2.366274
v 0.450320 -0.507022 -3.051962
v -0.360821 -1.752102 -2.812294
v -0.360821 -1.752102 -2.605942
v 0.370994 -1.752102 -2.605942
v 0.370994 -1.752102 -2.812294
v -0.440146 -0.507022 -5.794714
v -0.440146 -0.507022 -5.109026
v 0.450320 -0.507022 -5.109026
v 0.450320 -0.507022 -5.794714
v -0.340164 -1.783303 -5.540000
v -0.340164 -1.783303 -5.363740
v 0.350338 -1.783303 -5.363740
v 0.350338 -1.783303 -5.539999
v -0.440146 -0.507022 -7.851778
v -0.440146 -0.507022 -7.166090
v 0.450320 -0.507022 -7.166090
v 0.450320 -0.507022 -7.851778
v -0.338676 -1.812085 -7.596821
v -0.338676 -1.812085 -7.421047
v 0.348850 -1.812085 -7.421046
v 0.348850 -1.812085 -7.596821
v -0.440146 -0.507022 -10.594529
v -0.440146 -0.507022 -9.908843
v 0.450320 -0.507022 -9.908841
v 0.450320 -0.507022 -10.594529
vt 0.163689 0.000000
vt 0.836311 0.000000
vt 0.836311 0.000000
vt 0.163689 0.000000
vt 0.000000 0.836311
vt 0.000000 0.163689
vt 0.000000 0.163689
vt 0.000000 0.836311
vt 0.163689 0.163689
vt 0.163689 0.836311
vt 0.836311 0.836311
vt 0.836311 0.163689
vt 1.000000 0.163689
vt 1.000000 0.836311
vt 1.000000 0.836311
vt 1.000000 0.163689
vt 0.836311 1.000000
vt 0.163689 1.000000
vt 0.163689 1.000000
vt 0.836311 1.000000
vt 0.163689 0.000000
vt 0.836311 0.000000
vt 0.836311 0.000000
vt 0.163689 0.000000
vt 0.000000 0.836311
vt 0.000000 0.163689
vt 0.000000 0.163689
vt 0.000000 0.836311
vt 0.163689 0.163689
vt 0.163689 0.836311
vt 0.836311 0.836311
vt 0.836311 0.163689
vt 1.000000 0.163689
vt 1.000000 0.836311
vt 1.000000 0.836311
vt 1.000000 0.163689
vt 0.836311 1.000000
vt 0.163689 1.000000
vt 0.163689 1.000000
vt 0.836311 1.000000
vt 0.163689 0.000000
vt 0.836311 0.000000
vt 0.836311 0.000000
vt 0.163689 0.000000
vt 0.000000 0.836311
vt 0.000000 0.163689
vt 0.000000 0.163689
vt 0.000000 0.836311
vt 0.163689 0.163689
vt 0.163689 0.836311
vt 0.836311 0.836311
vt 0.836311 0.163689
vt 1.000000 0.163689
vt 1.000000 0.836311
vt 1.000000 0.836311
vt 1.000000 0.163689
vt 0.836311 1.000000
vt 0.163689 1.000000
vt 0.163689 1.000000
vt 0.836311 1.000000
vt 0.163689 0.000000
vt 0.836311 0.000000
vt 0.836311 0.000000
vt 0.163689 0.000000
vt 0.000000 0.836311
vt 0.000000 0.163689
vt 0.000000 0.163689
vt 0.000000 0.836311
vt 0.163689 0.163689
vt 0.163689 0.836311
vt 0.836311 0.836311
vt 0.836311 0.163689
vt 1.000000 0.163689
vt 1.000000 0.836311
vt 1.000000 0.836311
vt 1.000000 0.163689
vt 0.836311 1.000000
vt 0.163689 1.000000
vt 0.163689 1.000000
vt 0.836311 1.000000
vt 0.163689 0.000000
vt 0.836311 0.000000
vt 0.836311 0.000000
vt 0.163689 0.000000
vt 0.000000 0.836311
vt 0.000000 0.163689
vt 0.000000 0.163689
vt 0.000000 0.836311
vt 0.163689 0.163689
vt 0.163689 0.836311
vt 0.836311 0.836311
vt 0.836311 0.163689
vt 1.000000 0.163689
vt 1.000000 0.836311
vt 1.000000 0.836311
vt 1.000000 0.163689
vt 0.836311 1.000000
vt 0.163689 1.000000
vt 0.163689 1.000000
vt 0.836311 1.000000
vt 0.163689 0.000000
vt 0.836311 0.000000
vt 0.836311 0.000000
vt 0.163689 0.000000
vt 0.163689 0.163689
vt 0.163689 0.836311
vt 0.836311 0.836311
vt 0.836311 0.163689
vt 1.000000 0.163689
vt 1.000000 0.836311
vt 1.000000 0.836311
vt 1.000000 0.163689
vt 0.836311 1.000000
vt 0.163689 1.000000
vt 0.163689 1.000000
vt 0.836311 1.000000
vt 0.000000 0.163689
vt 0.000000 0.836311
vt 0.000000 0.163689
vt 0.000000 0.836311
vt 0.000000 0.944444
vt 0.000000 1.000000
vt 1.000000 1.000000
vt 1.000000 0.944444
vt 0.000000 0.944444
vt 1.000000 0.944444
vt 1.000000 1.000000
vt 0.000000 1.000000
vt 1.000000 1.000000
vt 1.000000 1.000000
vt 1.000000 0.000000
vt 0.000000 0.000000
vt 0.000000 0.000000
vt 1.000000 0.000000
vt 0.000000 0.055556
vt 0.000000 0.000000
vt 0.000000 0.055556
vt 0.000000 0.000000
vt 1.000000 0.000000
vt 1.000000 0.000000
vt 0.000000 0.000000
vt 1.000000 0.000000
vt 0.000000 0.000000
vt 1.000000 0.000000
vt 0.000000 1.000000
vt 0.000000 1.000000
vt 1.000000 1.000000
vt 0.000000 1.000000
vt 1.000000 1.000000
vt 0.000000 1.000000
vt 0.000000 0.888889
vt 0.000000 0.888889
vt 0.000000 0.833333
vt 0.000000 0.833333
vt 0.000000 0.777778
vt 0.000000 0.777778
vt 0.000000 0.722222
vt 0.000000 0.722222
vt 0.000000 0.666667
vt 0.000000 0.666667
vt 0.000000 0.611111
vt 0.000000 0.611111
vt 0.000000 0.555556
vt 0.000000 0.555556
vt 0.000000 0.500000
vt 0.000000 0.500000
vt 0.000000 0.444444
vt 0.000000 0.444444
vt 0.000000 0.388889
vt 0.000000 0.388889
vt 0.000000 0.333333
vt 0.000000 0.333333
vt 0.000000 0.277778
vt 0.000000 0.277778
vt 0.000000 0.222222
vt 0.000000 0.222222
vt 0.000000 0.166667
vt 0.000000 0.166667
vt 0.000000 0.111111
vt 0.000000 0.111111
vt 1.000000 0.055556
vt 1.000000 0.055556
vt 1.000000 0.111111
vt 1.000000 0.111111
vt 1.000000 0.166667
vt 1.000000 0.166667
vt 1.000000 0.222222
vt 1.000000 0.222222
vt 1.000000 0.277778
vt 1.000000 0.277778
vt 1.000000 0.333333
vt 1.000000 0.333333
vt 1.000000 0.388889
vt 1.000000 0.388889
vt 1.000000 0.444444
vt 1.000000 0.444444
vt 1.000000 0.500000
vt 1.000000 0.500000
vt 1.000000 0.555556
vt 1.000000 0.555556
vt 1.000000 0.611111
vt 1.000000 0.611111
vt 1.000000 0.666667
vt 1.000000 0.666667
vt 1.000000 0.722222
vt 1.000000 0.722222
vt 1.000000 0.777778
vt 1.000000 0.833333
vt 1.000000 0.833333
vt 1.000000 0.777778
vt 1.000000 0.888889
vt 1.000000 0.888889
vt 0.018318 0.092004
vt 0.981682 0.092004
vt 0.981682 0.092004
vt 0.018318 0.092004
vt 0.981384 0.297196
vt 0.018616 0.297196
vt 0.018616 0.297196
vt 0.981384 0.297196
vt 0.019785 0.520637
vt 0.019785 0.534918
vt 0.019785 0.534918
vt 0.019785 0.520637
vt 0.980196 0.687324
vt 0.019804 0.687324
vt 0.019804 0.687324
vt 0.980196 0.687324
vt 0.018318 0.074663
vt 0.981682 0.074663
vt 0.018318 0.074663
vt 0.981682 0.074663
vt 0.018616 0.313915
vt 0.981384 0.313915
vt 0.018616 0.313915
vt 0.981384 0.313915
vt 0.980215 0.520637
vt 0.980215 0.534918
vt 0.980215 0.534918
vt 0.980215 0.520637
vt 0.019804 0.701565
vt 0.980196 0.701565
vt 0.019804 0.701565
vt 0.980196 0.701565
vt 0.019661 0.923937
vt 0.019661 0.909396
vt 0.980339 0.909396
vt 0.980340 0.923937
vn 0.0000 0.0000 1.0000
vn -1.0000 0.0000 0.0000
vn 0.0000 -1.0000 0.0000
vn 1.0000 0.0000 0.0000
vn 0.0000 0.0000 -1.0000
vn -0.5774 -0.5774 0.5774
vn 0.5774 -0.5774 0.5774
vn -0.5774 -0.5774 -0.5774
vn 0.5774 -0.5774 -0.5774
vn -0.5773 -0.5773 0.5774
vn 0.5773 -0.5773 0.5774
vn -0.5773 -0.5773 -0.5774
vn 0.5773 -0.5773 -0.5774
vn -0.5774 -0.5773 0.5773
vn 0.5774 -0.5773 0.5773
vn -0.5774 -0.5773 -0.5773
vn 0.5774 -0.5773 -0.5773
vn -0.5773 -0.5774 0.5774
vn 0.5773 -0.5774 0.5774
vn -0.5773 -0.5774 -0.5773
vn 0.5773 -0.5774 -0.5773
vn -0.7071 -0.7071 0.0000
vn 0.0000 -0.7071 0.7071
vn 0.7071 -0.7071 0.0000
vn 0.0000 -0.7071 -0.7071
vn -0.7071 0.0000 0.7071
vn -0.7071 0.0000 -0.7071
vn 0.7071 0.0000 -0.7071
vn 0.7071 0.0000 0.7071
vn 0.0000 1.0000 0.0000
usemtl (null)
s off
f 3/1/1 4/2/1 17/3/1 16/4/1
f 27/5/2 21/6/2 35/7/2 33/8/2
f 2/9/3 9/10/3 11/11/3 5/12/3
f 6/13/4 10/14/4 19/15/4 18/16/4
f 12/17/5 8/18/5 14/19/5 20/20/5
f 23/21/1 24/22/1 37/23/1 36/24/1
f 47/25/2 41/26/2 55/27/2 53/28/2
f 22/29/3 29/30/3 31/31/3 25/32/3
f 26/33/4 30/34/4 39/35/4 38/36/4
f 32/37/5 28/38/5 34/39/5 40/40/5
f 43/41/1 44/42/1 57/43/1 56/44/1
f 67/45/2 61/46/2 75/47/2 73/48/2
f 42/49/3 49/50/3 51/51/3 45/52/3
f 46/53/4 50/54/4 59/55/4 58/56/4
f 52/57/5 48/58/5 54/59/5 60/60/5
f 63/61/1 64/62/1 77/63/1 76/64/1
f 87/65/2 81/66/2 95/67/2 93/68/2
f 62/69/3 69/70/3 71/71/3 65/72/3
f 66/73/4 70/74/4 79/75/4 78/76/4
f 72/77/5 68/78/5 74/79/5 80/80/5
f 83/81/1 84/82/1 97/83/1 96/84/1
f 107/85/2 101/86/2 115/87/2 113/88/2
f 82/89/3 89/90/3 91/91/3 85/92/3
f 86/93/4 90/94/4 99/95/4 98/96/4
f 92/97/5 88/98/5 94/99/5 100/100/5
f 103/101/1 104/102/1 117/103/1 116/104/1
f 102/105/3 109/106/3 111/107/3 105/108/3
f 106/109/4 110/110/4 119/111/4 118/112/4
f 112/113/5 108/114/5 114/115/5 120/116/5
f 1/117/6 2/9/6 3/1/6
f 4/2/7 5/12/7 6/13/7
f 7/118/8 8/18/8 9/10/8
f 10/14/9 11/11/9 12/17/9
f 21/6/6 22/29/6 23/21/6
f 24/22/7 25/32/7 26/33/7
f 27/5/8 28/38/8 29/30/8
f 30/34/9 31/31/9 32/37/9
f 41/26/10 42/49/10 43/41/10
f 44/42/11 45/52/11 46/53/11
f 47/25/12 48/58/12 49/50/12
f 50/54/13 51/51/13 52/57/13
f 61/46/14 62/69/14 63/61/14
f 64/62/15 65/72/15 66/73/15
f 67/45/16 68/78/16 69/70/16
f 70/74/17 71/71/17 72/77/17
f 81/66/18 82/89/18 83/81/18
f 84/82/19 85/92/19 86/93/19
f 87/65/12 88/98/12 89/90/12
f 90/94/13 91/91/13 92/97/13
f 101/86/14 102/105/14 103/101/14
f 104/102/15 105/108/15 106/109/15
f 107/85/20 108/114/20 109/106/20
f 110/110/21 111/107/21 112/113/21
f 9/10/22 2/9/22 1/117/22 7/118/22
f 2/9/23 5/12/23 4/2/23 3/1/23
f 5/12/24 11/11/24 10/14/24 6/13/24
f 11/11/25 9/10/25 8/18/25 12/17/25
f 3/1/26 16/4/26 15/119/26 1/117/26
f 14/19/27 8/18/27 7/118/27 13/120/27
f 19/15/28 10/14/28 12/17/28 20/20/28
f 6/13/29 18/16/29 17/3/29 4/2/29
f 29/30/22 22/29/22 21/6/22 27/5/22
f 22/29/23 25/32/23 24/22/23 23/21/23
f 25/32/24 31/31/24 30/34/24 26/33/24
f 31/31/25 29/30/25 28/38/25 32/37/25
f 23/21/26 36/24/26 35/7/26 21/6/26
f 34/39/27 28/38/27 27/5/27 33/8/27
f 39/35/28 30/34/28 32/37/28 40/40/28
f 26/33/29 38/36/29 37/23/29 24/22/29
f 49/50/22 42/49/22 41/26/22 47/25/22
f 42/49/23 45/52/23 44/42/23 43/41/23
f 45/52/24 51/51/24 50/54/24 46/53/24
f 51/51/25 49/50/25 48/58/25 52/57/25
f 43/41/26 56/44/26 55/27/26 41/26/26
f 54/59/27 48/58/27 47/25/27 53/28/27
f 59/55/28 50/54/28 52/57/28 60/60/28
f 46/53/29 58/56/29 57/43/29 44/42/29
f 69/70/22 62/69/22 61/46/22 67/45/22
f 62/69/23 65/72/23 64/62/23 63/61/23
f 65/72/24 71/71/24 70/74/24 66/73/24
f 71/71/25 69/70/25 68/78/25 72/77/25
f 63/61/26 76/64/26 75/47/26 61/46/26
f 74/79/27 68/78/27 67/45/27 73/48/27
f 79/75/28 70/74/28 72/77/28 80/80/28
f 66/73/29 78/76/29 77/63/29 64/62/29
f 89/90/22 82/89/22 81/66/22 87/65/22
f 82/89/23 85/92/23 84/82/23 83/81/23
f 85/92/24 91/91/24 90/94/24 86/93/24
f 91/91/25 89/90/25 88/98/25 92/97/25
f 83/81/26 96/84/26 95/67/26 81/66/26
f 94/99/27 88/98/27 87/65/27 93/68/27
f 99/95/28 90/94/28 92/97/28 100/100/28
f 86/93/29 98/96/29 97/83/29 84/82/29
f 109/106/22 102/105/22 101/86/22 107/85/22
f 102/105/23 105/108/23 104/102/23 103/101/23
f 105/108/24 111/107/24 110/110/24 106/109/24
f 111/107/25 109/106/25 108/114/25 112/113/25
f 103/101/26 116/104/26 115/87/26 101/86/26
f 114/115/27 108/114/27 107/85/27 113/88/27
f 119/111/28 110/110/28 112/113/28 120/116/28
f 106/109/29 118/112/29 117/103/29 104/102/29
f 7/118/2 1/117/2 15/119/2 13/120/2
f 245/121/3 123/122/3 124/123/3 248/124/3
f 179/125/30 212/126/30 128/127/30 125/128/30
f 128/127/4 124/123/4 137/129/4 139/130/4
f 127/131/5 126/132/5 133/133/5 134/134/5
f 248/124/4 124/123/4 128/127/4 212/126/4
f 214/135/2 121/136/2 126/132/2 195/137/2
f 129/138/1 130/139/1 132/140/1 131/141/1
f 121/136/3 122/142/3 130/139/3 129/138/3
f 122/142/4 127/131/4 132/140/4 130/139/4
f 126/132/2 121/136/2 129/138/2 131/141/2
f 134/134/30 133/133/30 135/143/30 136/144/30
f 126/132/2 131/141/2 135/143/2 133/133/2
f 132/140/4 127/131/4 134/134/4 136/144/4
f 131/141/1 132/140/1 136/144/1 135/143/1
f 137/129/5 138/145/5 140/146/5 139/130/5
f 125/128/1 128/127/1 141/147/1 142/148/1
f 124/123/3 123/122/3 138/145/3 137/129/3
f 123/122/2 125/128/2 140/146/2 138/145/2
f 142/148/30 141/147/30 143/149/30 144/150/30
f 139/130/5 140/146/5 144/150/5 143/149/5
f 140/146/2 125/128/2 142/148/2 144/150/2
f 128/127/4 139/130/4 143/149/4 141/147/4
f 123/122/2 245/121/2 179/125/2 125/128/2
f 245/121/2 246/151/2 180/152/2 179/125/2
f 246/151/2 147/153/2 181/154/2 180/152/2
f 147/153/2 148/155/2 182/156/2 181/154/2
f 148/155/2 237/157/2 183/158/2 182/156/2
f 237/157/2 238/159/2 184/160/2 183/158/2
f 238/159/2 151/161/2 185/162/2 184/160/2
f 151/161/2 229/163/2 186/164/2 185/162/2
f 229/163/2 230/165/2 187/166/2 186/164/2
f 230/165/2 154/167/2 188/168/2 187/166/2
f 154/167/2 155/169/2 189/170/2 188/168/2
f 155/169/2 221/171/2 190/172/2 189/170/2
f 221/171/2 222/173/2 191/174/2 190/172/2
f 222/173/2 158/175/2 192/176/2 191/174/2
f 158/175/2 159/177/2 193/178/2 192/176/2
f 159/177/2 213/179/2 194/180/2 193/178/2
f 213/179/2 214/135/2 195/137/2 194/180/2
f 122/142/4 215/181/4 196/182/4 127/131/4
f 215/181/4 216/183/4 197/184/4 196/182/4
f 216/183/4 164/185/4 198/186/4 197/184/4
f 164/185/4 165/187/4 199/188/4 198/186/4
f 165/187/4 223/189/4 200/190/4 199/188/4
f 223/189/4 224/191/4 201/192/4 200/190/4
f 224/191/4 168/193/4 202/194/4 201/192/4
f 168/193/4 169/195/4 203/196/4 202/194/4
f 169/195/4 231/197/4 204/198/4 203/196/4
f 231/197/4 232/199/4 205/200/4 204/198/4
f 232/199/4 172/201/4 206/202/4 205/200/4
f 172/201/4 239/203/4 207/204/4 206/202/4
f 239/203/4 240/205/4 208/206/4 207/204/4
f 175/207/4 176/208/4 210/209/4 209/210/4
f 176/208/4 247/211/4 211/212/4 210/209/4
f 247/211/4 248/124/4 212/126/4 211/212/4
f 126/132/30 127/131/30 196/182/30 195/137/30
f 195/137/30 196/182/30 197/184/30 194/180/30
f 194/180/30 197/184/30 198/186/30 193/178/30
f 193/178/30 198/186/30 199/188/30 192/176/30
f 192/176/30 199/188/30 200/190/30 191/174/30
f 191/174/30 200/190/30 201/192/30 190/172/30
f 190/172/30 201/192/30 202/194/30 189/170/30
f 189/170/30 202/194/30 203/196/30 188/168/30
f 188/168/30 203/196/30 204/198/30 187/166/30
f 187/166/30 204/198/30 205/200/30 186/164/30
f 186/164/30 205/200/30 206/202/30 185/162/30
f 185/162/30 206/202/30 207/204/30 184/160/30
f 184/160/30 207/204/30 208/206/30 183/158/30
f 183/158/30 208/206/30 209/210/30 182/156/30
f 182/156/30 209/210/30 210/209/30 181/154/30
f 181/154/30 210/209/30 211/212/30 180/152/30
f 180/152/30 211/212/30 212/126/30 179/125/30
f 121/136/3 214/135/3 215/181/3 122/142/3
f 160/213/5 163/214/5 220/215/5 217/216/5
f 213/179/3 159/177/3 164/185/3 216/183/3
f 159/177/3 158/175/3 165/187/3 164/185/3
f 158/175/3 222/173/3 223/189/3 165/187/3
f 166/217/1 157/218/1 226/219/1 227/220/1
f 221/171/3 155/169/3 168/193/3 224/191/3
f 155/169/3 154/167/3 169/195/3 168/193/3
f 154/167/3 230/165/3 231/197/3 169/195/3
f 153/221/2 152/222/2 233/223/2 234/224/2
f 229/163/3 151/161/3 172/201/3 232/199/3
f 151/161/3 238/159/3 239/203/3 172/201/3
f 173/225/1 150/226/1 242/227/1 243/228/1
f 148/155/3 147/153/3 176/208/3 175/207/3
f 147/153/3 246/151/3 247/211/3 176/208/3
f 160/213/3 161/229/3 214/135/3 213/179/3
f 162/230/3 163/214/3 216/183/3 215/181/3
f 161/229/3 162/230/3 215/181/3 214/135/3
f 163/214/3 160/213/3 213/179/3 216/183/3
f 218/231/3 217/216/3 220/215/3 219/232/3
f 163/214/4 162/230/4 219/232/4 220/215/4
f 162/230/1 161/229/1 218/231/1 219/232/1
f 161/229/2 160/213/2 217/216/2 218/231/2
f 156/233/3 157/218/3 222/173/3 221/171/3
f 166/217/3 167/234/3 224/191/3 223/189/3
f 157/218/3 166/217/3 223/189/3 222/173/3
f 167/234/3 156/233/3 221/171/3 224/191/3
f 226/219/3 225/235/3 228/236/3 227/220/3
f 157/218/2 156/233/2 225/235/2 226/219/2
f 156/233/5 167/234/5 228/236/5 225/235/5
f 167/234/4 166/217/4 227/220/4 228/236/4
f 152/222/3 153/221/3 230/165/3 229/163/3
f 170/237/3 171/238/3 232/199/3 231/197/3
f 153/221/3 170/237/3 231/197/3 230/165/3
f 171/238/3 152/222/3 229/163/3 232/199/3
f 234/224/3 233/223/3 236/239/3 235/240/3
f 152/222/5 171/238/5 236/239/5 233/223/5
f 171/238/4 170/237/4 235/240/4 236/239/4
f 170/237/1 153/221/1 234/224/1 235/240/1
f 149/241/3 150/226/3 238/159/3 237/157/3
f 173/225/3 174/242/3 240/205/3 239/203/3
f 150/226/3 173/225/3 239/203/3 238/159/3
f 174/242/3 149/241/3 237/157/3 240/205/3
f 242/227/3 241/243/3 244/244/3 243/228/3
f 150/226/2 149/241/2 241/243/2 242/227/2
f 149/241/5 174/242/5 244/244/5 241/243/5
f 174/242/4 173/225/4 243/228/4 244/244/4
f 145/245/3 146/246/3 246/151/3 245/121/3
f 177/247/3 178/248/3 248/124/3 247/211/3
f 146/246/3 177/247/3 247/211/3 246/151/3
f 178/248/3 145/245/3 245/121/3 248/124/3
f 145/245/3 178/248/3 177/247/3 146/246/3
f 237/157/3 148/155/3 175/207/3 240/205/3
f 240/205/4 175/207/4 209/210/4 208/206/4
