# Blender v2.80 (sub 75) OBJ File: ''
# www.blender.org
mtllib PAREDE CIMA MANUTENÇAO.mtl
o PAREDE_FRENTE.002_Plane.022
v 7.931494 3.085901 -0.242544
v 7.931494 -3.085900 -0.242544
v -11.054610 3.085900 -0.249867
v -11.054610 -3.085901 -0.249867
v -11.054890 3.085900 0.243695
v 7.931215 3.085901 0.251018
v 7.931215 -3.085900 0.251018
v -11.054890 -3.085901 0.243695
v 0.139178 3.085901 -0.248357
v 2.668735 3.085901 -0.246924
v 4.324059 3.085901 -0.245491
v 6.853616 3.085901 -0.244058
v 7.931494 1.851541 -0.242544
v 7.931494 0.617181 -0.242544
v 7.931494 -0.617180 -0.242544
v 7.931494 -1.851540 -0.242544
v 6.853616 -3.085901 -0.244058
v 4.324058 -3.085901 -0.245491
v 2.668736 -3.085901 -0.246924
v 0.139178 -3.085901 -0.248357
v -11.054610 -1.851541 -0.249867
v -11.054610 -0.617181 -0.249867
v -11.054610 0.617180 -0.249867
v -11.054610 1.851540 -0.249867
v 0.138898 3.085901 0.245205
v 2.668456 3.085901 0.246638
v 4.323779 3.085901 0.248071
v 6.853336 3.085901 0.249504
v 7.931215 1.851541 0.251018
v 7.931215 0.617181 0.251018
v 7.931215 -0.617180 0.251018
v 7.931215 -1.851540 0.251018
v 6.853336 -3.085901 0.249504
v 4.323778 -3.085901 0.248071
v 2.668456 -3.085901 0.246638
v 0.138898 -3.085901 0.245205
v -11.054890 -1.851541 0.243695
v -11.054890 -0.617181 0.243695
v -11.054890 0.617180 0.243695
v -11.054890 1.851540 0.243695
v -11.054667 -3.085901 -0.151154
v -11.054723 -3.085901 -0.052442
v -11.054778 -3.085901 0.046270
v -11.054834 -3.085901 0.144983
v 7.931271 -3.085900 0.152305
v 7.931327 -3.085900 0.053593
v 7.931383 -3.085900 -0.045119
v 7.931438 -3.085900 -0.143832
v 7.931438 3.085901 -0.143832
v 7.931383 3.085901 -0.045119
v 7.931327 3.085901 0.053593
v 7.931271 3.085901 0.152305
v -11.054834 3.085900 0.144983
v -11.054778 3.085900 0.046270
v -11.054723 3.085900 -0.052442
v -11.054667 3.085900 -0.151154
v 7.931438 1.851541 -0.143832
v 7.931383 1.851541 -0.045119
v 7.931327 1.851541 0.053593
v 7.931271 1.851541 0.152305
v 7.931438 0.617181 -0.143832
v 7.931383 0.617181 -0.045119
v 7.931327 0.617181 0.053593
v 7.931271 0.617181 0.152305
v 7.931438 -0.617180 -0.143832
v 7.931383 -0.617180 -0.045119
v 7.931327 -0.617180 0.053593
v 7.931271 -0.617180 0.152305
v 7.931438 -1.851540 -0.143832
v 7.931383 -1.851540 -0.045119
v 7.931327 -1.851540 0.053593
v 7.931271 -1.851540 0.152305
v -11.054667 -1.851541 -0.151154
v -11.054723 -1.851541 -0.052442
v -11.054778 -1.851541 0.046270
v -11.054834 -1.851541 0.144983
v -11.054667 -0.617181 -0.151154
v -11.054723 -0.617181 -0.052442
v -11.054778 -0.617181 0.046270
v -11.054834 -0.617181 0.144983
v -11.054667 0.617180 -0.151154
v -11.054723 0.617180 -0.052442
v -11.054778 0.617180 0.046270
v -11.054834 0.617180 0.144983
v -11.054667 1.851540 -0.151154
v -11.054723 1.851540 -0.052442
v -11.054778 1.851540 0.046270
v -11.054834 1.851540 0.144983
v 0.139122 3.085901 -0.149644
v 0.139066 3.085901 -0.050932
v 0.139010 3.085901 0.047780
v 0.138954 3.085901 0.146493
v 2.668679 3.085901 -0.148212
v 2.668623 3.085901 -0.049499
v 2.668568 3.085901 0.049213
v 2.668512 3.085901 0.147926
v 4.324002 3.085901 -0.146779
v 4.323946 3.085901 -0.048066
v 4.323891 3.085901 0.050646
v 4.323834 3.085901 0.149359
v 6.853560 3.085901 -0.145346
v 6.853504 3.085901 -0.046633
v 6.853448 3.085901 0.052079
v 6.853392 3.085901 0.150792
v 6.853560 -3.085901 -0.145346
v 6.853504 -3.085901 -0.046633
v 6.853448 -3.085901 0.052079
v 6.853392 -3.085901 0.150792
v 4.324002 -3.085901 -0.146779
v 4.323946 -3.085901 -0.048066
v 4.323890 -3.085901 0.050646
v 4.323834 -3.085901 0.149359
v 2.668680 -3.085901 -0.148212
v 2.668624 -3.085901 -0.049499
v 2.668568 -3.085901 0.049213
v 2.668512 -3.085901 0.147926
v 0.139122 -3.085901 -0.149644
v 0.139066 -3.085901 -0.050932
v 0.139010 -3.085901 0.047780
v 0.138954 -3.085901 0.146493
v 6.853336 1.851541 0.249504
v 4.323778 1.851541 0.248071
v 2.668456 1.851541 0.246638
v 0.138898 1.851540 0.245205
v 6.853336 0.617181 0.249504
v 4.323778 0.617180 0.248071
v 2.668456 0.617180 0.246638
v 0.138898 0.617180 0.245205
v 6.853336 -0.617180 0.249504
v 4.323778 -0.617180 0.248071
v 2.668456 -0.617180 0.246638
v 0.138898 -0.617180 0.245205
v 6.853336 -1.851540 0.249504
v 4.323778 -1.851540 0.248071
v 2.668456 -1.851541 0.246638
v 0.138898 -1.851541 0.245205
v 6.853616 1.851541 -0.244058
v 6.853616 0.617181 -0.244058
v 6.853616 -0.617180 -0.244058
v 6.853616 -1.851540 -0.244058
v 4.324059 1.851541 -0.245491
v 4.324058 0.617180 -0.245491
v 4.324058 -0.617180 -0.245491
v 4.324058 -1.851540 -0.245491
v 2.668735 1.851541 -0.246924
v 2.668735 0.617180 -0.246924
v 2.668735 -0.617180 -0.246924
v 2.668736 -1.851541 -0.246924
v 0.139178 1.851540 -0.248357
v 0.139178 0.617180 -0.248357
v 0.139178 -0.617180 -0.248357
v 0.139178 -1.851541 -0.248357
v -2.685358 -3.085901 -0.248754
v -2.685637 -3.085901 0.244808
v -2.685358 3.085900 -0.248754
v -2.685637 3.085900 0.244808
v -2.685414 3.085900 -0.150041
v -2.685470 3.085900 -0.051329
v -2.685525 3.085900 0.047384
v -2.685581 3.085900 0.146096
v -2.685413 -3.085901 -0.150041
v -2.685469 -3.085901 -0.051329
v -2.685525 -3.085901 0.047384
v -2.685581 -3.085901 0.146096
v -2.685637 1.851540 0.244808
v -2.685637 0.617180 0.244808
v -2.685637 -0.617180 0.244808
v -2.685637 -1.851541 0.244808
v -2.685358 1.851540 -0.248754
v -2.685358 0.617180 -0.248754
v -2.685358 -0.617180 -0.248754
v -2.685357 -1.851541 -0.248754
v -5.677282 -3.085901 -0.249175
v -5.677562 -3.085901 0.244387
v -5.677338 3.085900 -0.150462
v -5.677394 3.085900 -0.051750
v -5.677450 3.085900 0.046962
v -5.677506 3.085900 0.145675
v -5.677562 1.851540 0.244387
v -5.677562 0.617180 0.244387
v -5.677562 -0.617180 0.244387
v -5.677562 -1.851541 0.244387
v -5.677282 3.085900 -0.249175
v -5.677562 3.085900 0.244387
v -5.677339 -3.085901 -0.150462
v -5.677394 -3.085901 -0.051750
v -5.677451 -3.085901 0.046962
v -5.677506 -3.085901 0.145675
v -5.677282 1.851540 -0.249175
v -5.677282 0.617180 -0.249175
v -5.677282 -0.617180 -0.249175
v -5.677282 -1.851541 -0.249175
vt 0.800000 0.908353
vt 1.000000 0.908353
vt 1.000000 1.000000
vt 0.800000 1.000000
vt 0.800000 0.908353
vt 0.800000 1.000000
vt 1.000000 1.000000
vt 1.000000 0.908353
vt 1.000000 0.908353
vt 1.000000 1.000000
vt 0.000000 0.200000
vt 0.000000 0.200000
vt 0.000000 0.000000
vt 0.000000 0.000000
vt 0.200000 1.000000
vt 0.200000 1.000000
vt 0.000000 1.000000
vt 0.000000 1.000000
vt 0.800000 0.000000
vt 0.800000 0.000000
vt 1.000000 0.000000
vt 1.000000 0.000000
vt 0.200000 0.000000
vt 0.200000 0.000000
vt 0.400000 0.000000
vt 0.400000 0.000000
vt 0.600000 0.000000
vt 0.600000 0.000000
vt 0.000000 0.000000
vt 0.000000 0.000000
vt 0.200000 0.000000
vt 0.200000 0.000000
vt 0.000000 0.000000
vt 0.200000 0.000000
vt 0.000000 0.000000
vt 0.200000 0.000000
vt 0.400000 0.000000
vt 0.400000 0.000000
vt 0.400000 0.000000
vt 0.400000 0.000000
vt 0.600000 0.000000
vt 0.600000 0.000000
vt 0.600000 0.000000
vt 0.600000 0.000000
vt 0.800000 0.000000
vt 0.800000 0.000000
vt 0.800000 0.000000
vt 0.800000 0.000000
vt 1.000000 0.000000
vt 1.000000 0.000000
vt 1.000000 0.000000
vt 1.000000 0.000000
vt 0.800000 1.000000
vt 0.600000 1.000000
vt 0.600000 1.000000
vt 0.400000 1.000000
vt 0.400000 1.000000
vt 1.000000 1.000000
vt 0.800000 1.000000
vt 1.000000 1.000000
vt 0.800000 1.000000
vt 1.000000 1.000000
vt 0.800000 1.000000
vt 0.600000 1.000000
vt 0.600000 1.000000
vt 0.600000 1.000000
vt 0.600000 1.000000
vt 0.400000 1.000000
vt 0.400000 1.000000
vt 0.400000 1.000000
vt 0.400000 1.000000
vt 0.200000 1.000000
vt 0.200000 1.000000
vt 0.200000 1.000000
vt 0.200000 1.000000
vt 0.000000 1.000000
vt 0.000000 1.000000
vt 0.000000 1.000000
vt 0.000000 1.000000
vt 0.000000 0.852545
vt 0.000000 0.852545
vt 0.000000 0.800000
vt 0.000000 0.800000
vt 0.000000 0.600000
vt 0.000000 0.600000
vt 0.000000 0.400000
vt 0.000000 0.400000
vt 0.000000 0.852546
vt 0.000000 0.852545
vt 0.000000 0.800000
vt 0.000000 0.800000
vt 0.000000 0.852545
vt 0.000000 0.800000
vt 0.000000 0.852545
vt 0.000000 0.800000
vt 0.000000 0.600000
vt 0.000000 0.600000
vt 0.000000 0.600000
vt 0.000000 0.600000
vt 0.000000 0.400000
vt 0.000000 0.400000
vt 0.000000 0.400000
vt 0.000000 0.400000
vt 0.000000 0.200000
vt 0.000000 0.200000
vt 0.000000 0.200000
vt 0.000000 0.200000
vt 1.000000 0.200000
vt 1.000000 0.200000
vt 1.000000 0.400000
vt 1.000000 0.400000
vt 1.000000 0.600000
vt 1.000000 0.600000
vt 1.000000 0.800000
vt 1.000000 0.800000
vt 1.000000 0.200000
vt 1.000000 0.200000
vt 1.000000 0.200000
vt 1.000000 0.200000
vt 1.000000 0.400000
vt 1.000000 0.400000
vt 1.000000 0.400000
vt 1.000000 0.400000
vt 1.000000 0.600000
vt 1.000000 0.600000
vt 1.000000 0.600000
vt 1.000000 0.600000
vt 1.000000 0.800000
vt 1.000000 0.800000
vt 1.000000 0.800000
vt 1.000000 0.800000
vt 1.000000 0.908353
vt 1.000000 0.908353
vt 1.000000 0.908353
vt 0.000000 0.908353
vt 0.200000 0.908353
vt 0.400000 0.908353
vt 0.600000 0.908353
vt 0.200000 0.200000
vt 0.200000 0.400000
vt 0.200000 0.600000
vt 0.200000 0.800000
vt 0.400000 0.200000
vt 0.400000 0.400000
vt 0.400000 0.600000
vt 0.400000 0.800000
vt 0.600000 0.200000
vt 0.600000 0.400000
vt 0.600000 0.600000
vt 0.600000 0.800000
vt 0.800000 0.200000
vt 0.800000 0.400000
vt 0.800000 0.600000
vt 0.800000 0.800000
vt 0.800000 0.200000
vt 0.800000 0.400000
vt 0.800000 0.600000
vt 0.800000 0.800000
vt 0.200000 0.200000
vt 0.400000 0.200000
vt 0.600000 0.200000
vt 0.200000 0.400000
vt 0.400000 0.400000
vt 0.600000 0.400000
vt 0.200000 0.600000
vt 0.400000 0.600000
vt 0.600000 0.600000
vt 0.200000 0.800000
vt 0.400000 0.800000
vt 0.600000 0.800000
vt 0.000000 0.908353
vt 0.200000 0.908353
vt 0.400000 0.908353
vt 0.600000 0.908353
vt 0.800000 0.852545
vt 0.600000 0.852545
vt 0.400000 0.852545
vt 0.200000 0.852545
vt 0.600000 0.852545
vt 0.800000 0.852545
vt 0.400000 0.852545
vt 0.200000 0.852545
vt 1.000000 0.852545
vt 1.000000 0.852545
vt 1.000000 0.852545
vt 1.000000 0.852545
vt 1.000000 0.852545
vt 1.000000 0.852545
vt 0.000000 0.908353
vt 0.000000 0.908353
vt 0.000000 0.908353
vt 0.000000 0.908353
vn 0.0001 0.0000 -1.0000
vn -0.0001 0.0000 1.0000
vn 0.0000 -1.0000 0.0000
vn -0.0000 1.0000 -0.0000
vn -1.0000 0.0000 -0.0006
vn 1.0000 0.0000 0.0006
vn -0.0014 0.0000 1.0000
vn -0.0006 0.0000 1.0000
vn -0.0009 0.0000 1.0000
vn 0.0014 0.0000 -1.0000
vn 0.0006 0.0000 -1.0000
vn 0.0009 0.0000 -1.0000
usemtl (null)
s off
f 192/1/1 173/2/1 4/3/1 21/4/1
f 182/5/2 37/6/2 8/7/2 174/8/2
f 188/9/3 174/8/3 8/7/3 44/10/3
f 104/11/4 28/12/4 6/13/4 52/14/4
f 88/15/5 40/16/5 5/17/5 53/18/5
f 72/19/6 32/20/6 7/21/6 45/22/6
f 52/14/6 6/13/6 29/23/6 60/24/6
f 60/24/6 29/23/6 30/25/6 64/26/6
f 64/26/6 30/25/6 31/27/6 68/28/6
f 68/28/6 31/27/6 32/20/6 72/19/6
f 1/29/6 49/30/6 57/31/6 13/32/6
f 49/30/6 50/33/6 58/34/6 57/31/6
f 50/33/6 51/35/6 59/36/6 58/34/6
f 51/35/6 52/14/6 60/24/6 59/36/6
f 13/32/6 57/31/6 61/37/6 14/38/6
f 57/31/6 58/34/6 62/39/6 61/37/6
f 58/34/6 59/36/6 63/40/6 62/39/6
f 59/36/6 60/24/6 64/26/6 63/40/6
f 14/38/6 61/37/6 65/41/6 15/42/6
f 61/37/6 62/39/6 66/43/6 65/41/6
f 62/39/6 63/40/6 67/44/6 66/43/6
f 63/40/6 64/26/6 68/28/6 67/44/6
f 15/42/6 65/41/6 69/45/6 16/46/6
f 65/41/6 66/43/6 70/47/6 69/45/6
f 66/43/6 67/44/6 71/48/6 70/47/6
f 67/44/6 68/28/6 72/19/6 71/48/6
f 16/46/6 69/45/6 48/49/6 2/50/6
f 69/45/6 70/47/6 47/51/6 48/49/6
f 70/47/6 71/48/6 46/52/6 47/51/6
f 71/48/6 72/19/6 45/22/6 46/52/6
f 44/10/5 8/7/5 37/6/5 76/53/5
f 76/53/5 37/6/5 38/54/5 80/55/5
f 80/55/5 38/54/5 39/56/5 84/57/5
f 84/57/5 39/56/5 40/16/5 88/15/5
f 4/3/5 41/58/5 73/59/5 21/4/5
f 41/58/5 42/60/5 74/61/5 73/59/5
f 42/60/5 43/62/5 75/63/5 74/61/5
f 43/62/5 44/10/5 76/53/5 75/63/5
f 21/4/5 73/59/5 77/64/5 22/65/5
f 73/59/5 74/61/5 78/66/5 77/64/5
f 74/61/5 75/63/5 79/67/5 78/66/5
f 75/63/5 76/53/5 80/55/5 79/67/5
f 22/65/5 77/64/5 81/68/5 23/69/5
f 77/64/5 78/66/5 82/70/5 81/68/5
f 78/66/5 79/67/5 83/71/5 82/70/5
f 79/67/5 80/55/5 84/57/5 83/71/5
f 23/69/5 81/68/5 85/72/5 24/73/5
f 81/68/5 82/70/5 86/74/5 85/72/5
f 82/70/5 83/71/5 87/75/5 86/74/5
f 83/71/5 84/57/5 88/15/5 87/75/5
f 24/73/5 85/72/5 56/76/5 3/77/5
f 85/72/5 86/74/5 55/78/5 56/76/5
f 86/74/5 87/75/5 54/79/5 55/78/5
f 87/75/5 88/15/5 53/18/5 54/79/5
f 160/80/4 156/81/4 25/82/4 92/83/4
f 92/83/4 25/82/4 26/84/4 96/85/4
f 96/85/4 26/84/4 27/86/4 100/87/4
f 100/87/4 27/86/4 28/12/4 104/11/4
f 155/88/4 157/89/4 89/90/4 9/91/4
f 157/89/4 158/92/4 90/93/4 89/90/4
f 158/92/4 159/94/4 91/95/4 90/93/4
f 159/94/4 160/80/4 92/83/4 91/95/4
f 9/91/4 89/90/4 93/96/4 10/97/4
f 89/90/4 90/93/4 94/98/4 93/96/4
f 90/93/4 91/95/4 95/99/4 94/98/4
f 91/95/4 92/83/4 96/85/4 95/99/4
f 10/97/4 93/96/4 97/100/4 11/101/4
f 93/96/4 94/98/4 98/102/4 97/100/4
f 94/98/4 95/99/4 99/103/4 98/102/4
f 95/99/4 96/85/4 100/87/4 99/103/4
f 11/101/4 97/100/4 101/104/4 12/105/4
f 97/100/4 98/102/4 102/106/4 101/104/4
f 98/102/4 99/103/4 103/107/4 102/106/4
f 99/103/4 100/87/4 104/11/4 103/107/4
f 12/105/4 101/104/4 49/30/4 1/29/4
f 101/104/4 102/106/4 50/33/4 49/30/4
f 102/106/4 103/107/4 51/35/4 50/33/4
f 103/107/4 104/11/4 52/14/4 51/35/4
f 45/22/3 7/21/3 33/108/3 108/109/3
f 108/109/3 33/108/3 34/110/3 112/111/3
f 112/111/3 34/110/3 35/112/3 116/113/3
f 116/113/3 35/112/3 36/114/3 120/115/3
f 2/50/3 48/49/3 105/116/3 17/117/3
f 48/49/3 47/51/3 106/118/3 105/116/3
f 47/51/3 46/52/3 107/119/3 106/118/3
f 46/52/3 45/22/3 108/109/3 107/119/3
f 17/117/3 105/116/3 109/120/3 18/121/3
f 105/116/3 106/118/3 110/122/3 109/120/3
f 106/118/3 107/119/3 111/123/3 110/122/3
f 107/119/3 108/109/3 112/111/3 111/123/3
f 18/121/3 109/120/3 113/124/3 19/125/3
f 109/120/3 110/122/3 114/126/3 113/124/3
f 110/122/3 111/123/3 115/127/3 114/126/3
f 111/123/3 112/111/3 116/113/3 115/127/3
f 19/125/3 113/124/3 117/128/3 20/129/3
f 113/124/3 114/126/3 118/130/3 117/128/3
f 114/126/3 115/127/3 119/131/3 118/130/3
f 115/127/3 116/113/3 120/115/3 119/131/3
f 173/2/3 185/132/3 41/58/3 4/3/3
f 185/132/3 186/133/3 42/60/3 41/58/3
f 186/133/3 187/134/3 43/62/3 42/60/3
f 187/134/3 188/9/3 44/10/3 43/62/3
f 184/135/2 5/17/2 40/16/2 179/136/2
f 179/136/2 40/16/2 39/56/2 180/137/2
f 180/137/2 39/56/2 38/54/2 181/138/2
f 181/138/2 38/54/2 37/6/2 182/5/2
f 6/13/7 28/12/7 121/139/7 29/23/7
f 28/12/8 27/86/8 122/140/8 121/139/8
f 27/86/9 26/84/9 123/141/9 122/140/9
f 26/84/8 25/82/8 124/142/8 123/141/8
f 29/23/7 121/139/7 125/143/7 30/25/7
f 121/139/8 122/140/8 126/144/8 125/143/8
f 122/140/9 123/141/9 127/145/9 126/144/9
f 123/141/8 124/142/8 128/146/8 127/145/8
f 30/25/7 125/143/7 129/147/7 31/27/7
f 125/143/8 126/144/8 130/148/8 129/147/8
f 126/144/9 127/145/9 131/149/9 130/148/9
f 127/145/8 128/146/8 132/150/8 131/149/8
f 31/27/7 129/147/7 133/151/7 32/20/7
f 129/147/8 130/148/8 134/152/8 133/151/8
f 130/148/9 131/149/9 135/153/9 134/152/9
f 131/149/8 132/150/8 136/154/8 135/153/8
f 32/20/7 133/151/7 33/108/7 7/21/7
f 133/151/8 134/152/8 34/110/8 33/108/8
f 134/152/9 135/153/9 35/112/9 34/110/9
f 135/153/8 136/154/8 36/114/8 35/112/8
f 16/46/10 2/50/10 17/117/10 140/155/10
f 140/155/11 17/117/11 18/121/11 144/156/11
f 144/156/12 18/121/12 19/125/12 148/157/12
f 148/157/11 19/125/11 20/129/11 152/158/11
f 1/29/10 13/32/10 137/159/10 12/105/10
f 13/32/10 14/38/10 138/160/10 137/159/10
f 14/38/10 15/42/10 139/161/10 138/160/10
f 15/42/10 16/46/10 140/155/10 139/161/10
f 12/105/11 137/159/11 141/162/11 11/101/11
f 137/159/11 138/160/11 142/163/11 141/162/11
f 138/160/11 139/161/11 143/164/11 142/163/11
f 139/161/11 140/155/11 144/156/11 143/164/11
f 11/101/12 141/162/12 145/165/12 10/97/12
f 141/162/12 142/163/12 146/166/12 145/165/12
f 142/163/12 143/164/12 147/167/12 146/166/12
f 143/164/12 144/156/12 148/157/12 147/167/12
f 10/97/11 145/165/11 149/168/11 9/91/11
f 145/165/11 146/166/11 150/169/11 149/168/11
f 146/166/11 147/167/11 151/170/11 150/169/11
f 147/167/11 148/157/11 152/158/11 151/170/11
f 183/171/1 189/172/1 24/73/1 3/77/1
f 189/172/1 190/173/1 23/69/1 24/73/1
f 190/173/1 191/174/1 22/65/1 23/69/1
f 191/174/1 192/1/1 21/4/1 22/65/1
f 151/170/1 152/158/1 172/175/1 171/176/1
f 150/169/1 151/170/1 171/176/1 170/177/1
f 149/168/1 150/169/1 170/177/1 169/178/1
f 9/91/1 149/168/1 169/178/1 155/88/1
f 132/150/2 167/179/2 168/180/2 136/154/2
f 128/146/2 166/181/2 167/179/2 132/150/2
f 124/142/2 165/182/2 166/181/2 128/146/2
f 25/82/2 156/81/2 165/182/2 124/142/2
f 119/131/3 120/115/3 164/183/3 163/184/3
f 118/130/3 119/131/3 163/184/3 162/185/3
f 117/128/3 118/130/3 162/185/3 161/186/3
f 20/129/3 117/128/3 161/186/3 153/187/3
f 120/115/3 36/114/3 154/188/3 164/183/3
f 136/154/2 168/180/2 154/188/2 36/114/2
f 152/158/1 20/129/1 153/187/1 172/175/1
f 53/18/4 5/17/4 184/135/4 178/189/4
f 3/77/4 56/76/4 175/190/4 183/171/4
f 56/76/4 55/78/4 176/191/4 175/190/4
f 55/78/4 54/79/4 177/192/4 176/191/4
f 54/79/4 53/18/4 178/189/4 177/192/4
f 171/176/5 172/175/5 153/187/5 161/186/5 162/185/5 163/184/5 164/183/5 154/188/5 168/180/5 167/179/5 166/181/5 165/182/5 156/81/5 160/80/5 159/94/5 158/92/5 157/89/5 155/88/5 169/178/5 170/177/5
f 184/135/6 179/136/6 180/137/6 181/138/6 182/5/6 174/8/6 188/9/6 187/134/6 186/133/6 185/132/6 173/2/6 192/1/6 191/174/6 190/173/6 189/172/6 183/171/6 175/190/6 176/191/6 177/192/6 178/189/6
