# Blender v2.80 (sub 75) OBJ File: ''
# www.blender.org
mtllib PEÇA.mtl
o Plane.013_Plane.052
v -0.275302 -0.013714 0.069689
v -0.275302 -0.013714 -0.069687
v -0.275302 0.013714 -0.069687
v -0.275302 0.013714 0.069689
v -0.322734 -0.013714 -0.069687
v -0.322734 -0.013714 0.069689
v -0.322734 0.013714 -0.069687
v -0.322734 0.013714 0.069689
v -0.348139 -0.013714 -0.125982
v -0.348139 0.013714 -0.125982
v -0.348139 0.013714 0.125979
v -0.348139 -0.013714 0.125979
v -0.395571 -0.013714 -0.125982
v -0.395571 0.013714 -0.125982
v -0.395571 0.013714 0.125979
v -0.395571 -0.013714 0.125979
v -0.351742 -0.013714 -0.091368
v -0.304309 -0.013714 -0.091368
v -0.304309 0.013714 -0.091368
v -0.351742 0.013714 -0.091368
v -0.351742 -0.013714 0.091367
v -0.351742 0.013714 0.091367
v -0.304309 -0.013714 0.091367
v -0.304309 0.013714 0.091367
v -0.509336 -0.004628 -0.093714
v -0.509336 0.004628 -0.093714
v -0.509336 0.004628 0.093711
v -0.509336 -0.004628 0.093711
v -0.478043 -0.004628 0.077131
v -0.478043 -0.004628 -0.077132
v -0.478043 0.004628 -0.077132
v -0.478043 0.004628 0.077131
v -0.250882 -0.030387 0.000001
v -0.250882 0.030387 0.000001
v -0.298314 -0.013714 0.000001
v -0.298314 0.013714 0.000001
v -0.050475 -0.013714 0.069689
v -0.050475 -0.013714 -0.069687
v -0.050475 0.013714 0.069689
v -0.050475 0.013714 -0.069687
v -0.049649 0.030387 0.000001
v -0.049649 -0.030387 0.000001
v 0.275302 -0.013714 -0.069689
v 0.275302 -0.013714 0.069687
v 0.275302 0.013714 0.069687
v 0.275302 0.013714 -0.069689
v 0.322735 -0.013714 0.069687
v 0.322735 -0.013714 -0.069689
v 0.322735 0.013714 0.069687
v 0.322735 0.013714 -0.069689
v 0.348139 -0.013714 0.125982
v 0.348139 0.013714 0.125982
v 0.348139 0.013714 -0.125979
v 0.348139 -0.013714 -0.125979
v 0.395572 -0.013714 0.125982
v 0.395572 0.013714 0.125982
v 0.395572 0.013714 -0.125979
v 0.395572 -0.013714 -0.125979
v 0.351742 -0.013714 0.091368
v 0.304310 -0.013714 0.091368
v 0.304310 0.013714 0.091368
v 0.351742 0.013714 0.091368
v 0.351742 -0.013714 -0.091367
v 0.351742 0.013714 -0.091367
v 0.304310 -0.013714 -0.091367
v 0.304310 0.013714 -0.091367
v 0.509336 -0.004628 0.093714
v 0.509336 0.004628 0.093714
v 0.509336 0.004628 -0.093711
v 0.509336 -0.004628 -0.093711
v 0.478043 -0.004628 -0.077131
v 0.478043 -0.004628 0.077132
v 0.478043 0.004628 0.077132
v 0.478043 0.004628 -0.077131
v 0.250882 -0.030387 -0.000001
v 0.250882 0.030387 -0.000001
v 0.298314 -0.013714 -0.000001
v 0.298314 0.013714 -0.000001
v 0.050475 -0.013714 -0.069689
v 0.050475 -0.013714 0.069687
v 0.050475 0.013714 -0.069689
v 0.050475 0.013714 0.069687
v 0.049649 0.030387 -0.000001
v 0.049649 -0.030387 -0.000001
vt 0.500000 1.000000
vt 0.000000 1.000000
vt 0.000000 1.000000
vt 0.500000 1.000000
vt 0.000000 0.500000
vt 0.000000 0.000000
vt 0.000000 0.000000
vt 0.000000 0.500000
vt 0.000000 0.500000
vt 0.000000 1.000000
vt 0.000000 0.000000
vt 0.000000 0.000000
vt 0.000000 0.000000
vt 0.000000 0.000000
vt 0.000000 0.500000
vt 0.000000 0.000000
vt 0.000000 0.000000
vt 0.000000 0.000000
vt 0.000000 0.000000
vt 0.000000 1.000000
vt 0.000000 1.000000
vt 0.000000 1.000000
vt 0.000000 1.000000
vt 0.000000 0.000000
vt 0.000000 0.000000
vt 0.000000 1.000000
vt 0.000000 1.000000
vt 0.000000 1.000000
vt 0.000000 1.000000
vt 0.000000 1.000000
vt 0.000000 1.000000
vt 0.000000 0.000000
vt 0.000000 1.000000
vt 0.000000 0.000000
vt 0.000000 0.000000
vt 0.000000 0.000000
vt 0.000000 1.000000
vt 0.000000 1.000000
vt 0.500000 0.500000
vt 0.500000 0.000000
vt 0.500000 0.000000
vt 0.500000 0.500000
vt 0.500000 1.000000
vt 0.000000 1.000000
vt 0.000000 1.000000
vt 0.500000 1.000000
vt 0.000000 0.500000
vt 0.000000 0.000000
vt 0.000000 0.000000
vt 0.000000 0.500000
vt 0.000000 0.500000
vt 0.000000 1.000000
vt 0.000000 0.000000
vt 0.000000 0.000000
vt 0.000000 0.000000
vt 0.000000 0.000000
vt 0.000000 0.500000
vt 0.000000 0.000000
vt 0.000000 0.000000
vt 0.000000 0.000000
vt 0.000000 0.000000
vt 0.000000 1.000000
vt 0.000000 1.000000
vt 0.000000 1.000000
vt 0.000000 1.000000
vt 0.000000 0.000000
vt 0.000000 0.000000
vt 0.000000 1.000000
vt 0.000000 1.000000
vt 0.000000 1.000000
vt 0.000000 1.000000
vt 0.000000 1.000000
vt 0.000000 1.000000
vt 0.000000 0.000000
vt 0.000000 1.000000
vt 0.000000 0.000000
vt 0.000000 0.000000
vt 0.000000 0.000000
vt 0.000000 1.000000
vt 0.000000 1.000000
vt 0.500000 0.500000
vt 0.500000 0.000000
vt 0.500000 0.000000
vt 0.500000 0.500000
vn -0.0000 0.0000 -1.0000
vn -0.9437 0.0000 -0.3307
vn -0.1728 0.9833 -0.0571
vn 0.0000 -1.0000 0.0000
vn -0.1728 -0.9833 0.0571
vn 0.1120 0.0000 -0.9937
vn 0.0000 0.0000 1.0000
vn 0.6198 0.0000 -0.7848
vn 0.0000 1.0000 0.0000
vn -0.2729 0.0000 -0.9620
vn 0.6198 0.0000 0.7848
vn -0.5987 0.0000 0.8010
vn 0.5987 0.0000 -0.8010
vn 0.5986 0.0000 0.8010
vn -0.5986 0.0000 -0.8010
vn -0.4682 0.0000 -0.8836
vn -0.4682 0.0000 0.8836
vn -0.0586 0.9946 0.0860
vn -0.2729 0.0000 0.9620
vn -0.0586 -0.9946 -0.0860
vn 0.1120 0.0000 0.9937
vn -0.0586 -0.9946 0.0860
vn -0.0586 0.9946 -0.0860
vn -0.1728 -0.9833 -0.0571
vn -0.1728 0.9833 0.0571
vn -0.9437 0.0000 0.3307
vn 0.0000 -0.9725 0.2327
vn 0.0000 0.9725 0.2327
vn -0.0000 0.9725 -0.2327
vn -0.0000 -0.9725 -0.2327
vn 0.9437 0.0000 0.3307
vn 0.1728 0.9833 0.0571
vn 0.1728 -0.9833 -0.0571
vn -0.1120 0.0000 0.9937
vn -0.6198 0.0000 0.7848
vn 0.2729 0.0000 0.9620
vn -0.6198 0.0000 -0.7848
vn 0.4682 0.0000 0.8836
vn 0.4682 0.0000 -0.8836
vn 0.0586 0.9946 -0.0860
vn 0.2729 0.0000 -0.9620
vn 0.0586 -0.9946 0.0860
vn -0.1120 0.0000 -0.9937
vn 0.0586 -0.9946 -0.0860
vn 0.0586 0.9946 0.0860
vn 0.1728 -0.9833 0.0571
vn 0.1728 0.9833 -0.0571
vn 0.9437 0.0000 -0.3307
usemtl None
s off
f 38/1/1 2/2/1 3/3/1 40/4/1
f 35/5/2 6/6/2 8/7/2 36/8/2
f 34/9/3 3/3/3 7/10/3 36/8/3
f 21/11/4 23/12/4 12/13/4 16/14/4
f 33/15/5 1/16/5 6/6/5 35/5/5
f 22/17/6 21/11/6 29/18/6 32/19/6
f 10/20/1 9/21/1 13/22/1 14/23/1
f 12/13/7 11/24/7 15/25/7 16/14/7
f 18/26/4 17/27/4 13/22/4 9/21/4
f 19/28/8 18/26/8 9/21/8 10/20/8
f 20/29/9 19/28/9 10/20/9 14/23/9
f 14/23/10 13/22/10 25/30/10 26/31/10
f 24/32/9 22/17/9 15/25/9 11/24/9
f 23/12/11 24/32/11 11/24/11 12/13/11
f 5/33/12 7/10/12 20/29/12 17/27/12
f 7/10/9 3/3/9 19/28/9 20/29/9
f 3/3/13 2/2/13 18/26/13 19/28/13
f 2/2/4 5/33/4 17/27/4 18/26/4
f 1/16/14 4/34/14 24/32/14 23/12/14
f 4/34/9 8/7/9 22/17/9 24/32/9
f 8/7/15 6/6/15 21/11/15 22/17/15
f 6/6/4 1/16/4 23/12/4 21/11/4
f 32/19/16 29/18/16 28/35/16 27/36/16
f 30/37/17 31/38/17 26/31/17 25/30/17
f 20/29/18 14/23/18 26/31/18 31/38/18
f 16/14/19 15/25/19 27/36/19 28/35/19
f 21/11/20 16/14/20 28/35/20 29/18/20
f 17/27/21 20/29/21 31/38/21 30/37/21
f 13/22/22 17/27/22 30/37/22 25/30/22
f 15/25/23 22/17/23 32/19/23 27/36/23
f 2/2/24 33/15/24 35/5/24 5/33/24
f 4/34/25 34/9/25 36/8/25 8/7/25
f 5/33/26 35/5/26 36/8/26 7/10/26
f 1/16/27 33/15/27 42/39/27 37/40/27
f 4/34/28 39/41/28 41/42/28 34/9/28
f 1/16/7 37/40/7 39/41/7 4/34/7
f 34/9/29 41/42/29 40/4/29 3/3/29
f 33/15/30 2/2/30 38/1/30 42/39/30
f 80/43/7 44/44/7 45/45/7 82/46/7
f 77/47/31 48/48/31 50/49/31 78/50/31
f 76/51/32 45/45/32 49/52/32 78/50/32
f 63/53/4 65/54/4 54/55/4 58/56/4
f 75/57/33 43/58/33 48/48/33 77/47/33
f 64/59/34 63/53/34 71/60/34 74/61/34
f 52/62/7 51/63/7 55/64/7 56/65/7
f 54/55/1 53/66/1 57/67/1 58/56/1
f 60/68/4 59/69/4 55/64/4 51/63/4
f 61/70/35 60/68/35 51/63/35 52/62/35
f 62/71/9 61/70/9 52/62/9 56/65/9
f 56/65/36 55/64/36 67/72/36 68/73/36
f 66/74/9 64/59/9 57/67/9 53/66/9
f 65/54/37 66/74/37 53/66/37 54/55/37
f 47/75/13 49/52/13 62/71/13 59/69/13
f 49/52/9 45/45/9 61/70/9 62/71/9
f 45/45/12 44/44/12 60/68/12 61/70/12
f 44/44/4 47/75/4 59/69/4 60/68/4
f 43/58/15 46/76/15 66/74/15 65/54/15
f 46/76/9 50/49/9 64/59/9 66/74/9
f 50/49/14 48/48/14 63/53/14 64/59/14
f 48/48/4 43/58/4 65/54/4 63/53/4
f 74/61/38 71/60/38 70/77/38 69/78/38
f 72/79/39 73/80/39 68/73/39 67/72/39
f 62/71/40 56/65/40 68/73/40 73/80/40
f 58/56/41 57/67/41 69/78/41 70/77/41
f 63/53/42 58/56/42 70/77/42 71/60/42
f 59/69/43 62/71/43 73/80/43 72/79/43
f 55/64/44 59/69/44 72/79/44 67/72/44
f 57/67/45 64/59/45 74/61/45 69/78/45
f 44/44/46 75/57/46 77/47/46 47/75/46
f 46/76/47 76/51/47 78/50/47 50/49/47
f 47/75/48 77/47/48 78/50/48 49/52/48
f 43/58/30 75/57/30 84/81/30 79/82/30
f 46/76/29 81/83/29 83/84/29 76/51/29
f 43/58/1 79/82/1 81/83/1 46/76/1
f 76/51/28 83/84/28 82/46/28 45/45/28
f 75/57/27 44/44/27 80/43/27 84/81/27
f 39/41/28 82/46/28 83/84/28 41/42/28
f 41/42/29 83/84/29 81/83/29 40/4/29
f 38/1/30 79/82/30 84/81/30 42/39/30
f 42/39/27 84/81/27 80/43/27 37/40/27
f 40/4/1 81/83/1 79/82/1 38/1/1
f 39/41/7 37/40/7 80/43/7 82/46/7
