# Blender v2.80 (sub 75) OBJ File: ''
# www.blender.org
mtllib TETO MANUTENÇAO.mtl
o PAREDE_CIMA.003_Plane.058
v 10.103768 0.246781 -3.735505
v -9.864434 0.246781 -3.743393
v 10.095016 0.246781 5.987724
v -9.873188 0.246781 5.979836
v 10.095016 -0.246781 5.987724
v 10.103768 -0.246781 -3.735505
v -9.864434 -0.246781 -3.743393
v -9.873188 -0.246781 5.979836
v 10.096766 0.246781 2.899164
v 10.102017 0.246781 -0.646945
v 7.320423 0.246781 -3.737082
v 4.537077 0.246781 -3.738660
v 1.753507 0.246781 -3.740237
v -7.081089 0.246781 -3.741815
v -9.866185 0.246781 -0.654833
v -9.871438 0.246781 2.891276
v -7.089842 0.246781 5.981414
v 1.744753 0.246781 5.982991
v 4.528324 0.246781 5.984569
v 7.311669 0.246781 5.986146
v 10.096766 -0.246781 2.899164
v 10.102017 -0.246781 -0.646945
v 7.320423 -0.246781 -3.737082
v 4.537077 -0.246781 -3.738660
v 1.753507 -0.246781 -3.740237
v -7.081089 -0.246781 -3.741815
v -9.866185 -0.246781 -0.654833
v -9.871438 -0.246781 2.891276
v -7.089842 -0.246781 5.981414
v 1.744753 -0.246781 5.982991
v 4.528324 -0.246781 5.984569
v 7.311669 -0.246781 5.986146
v -9.873188 0.148069 5.979836
v -9.873188 0.049356 5.979836
v -9.873188 -0.049356 5.979836
v -9.873188 -0.148069 5.979836
v -9.864434 -0.148069 -3.743393
v -9.864434 -0.049356 -3.743393
v -9.864434 0.049356 -3.743393
v -9.864434 0.148069 -3.743393
v 10.103768 0.148069 -3.735505
v 10.103768 0.049356 -3.735505
v 10.103768 -0.049356 -3.735505
v 10.103768 -0.148069 -3.735505
v 10.095016 -0.148069 5.987724
v 10.095016 -0.049356 5.987724
v 10.095016 0.049356 5.987724
v 10.095016 0.148069 5.987724
v 7.320423 0.148069 -3.737082
v 7.320423 0.049356 -3.737082
v 7.320423 -0.049356 -3.737082
v 7.320423 -0.148069 -3.737082
v 4.537077 0.148069 -3.738660
v 4.537077 0.049356 -3.738660
v 4.537077 -0.049356 -3.738660
v 4.537077 -0.148069 -3.738660
v 1.753507 0.148069 -3.740237
v 1.753507 0.049356 -3.740237
v 1.753507 -0.049356 -3.740237
v 1.753507 -0.148069 -3.740237
v -7.081089 0.148069 -3.741815
v -7.081089 0.049356 -3.741815
v -7.081089 -0.049356 -3.741815
v -7.081089 -0.148069 -3.741815
v -7.089842 0.148069 5.981414
v -7.089842 0.049356 5.981414
v -7.089842 -0.049356 5.981414
v -7.089842 -0.148069 5.981414
v 1.744753 0.148069 5.982991
v 1.744753 0.049356 5.982991
v 1.744753 -0.049356 5.982991
v 1.744753 -0.148069 5.982991
v 4.528324 0.148069 5.984569
v 4.528324 0.049356 5.984569
v 4.528324 -0.049356 5.984569
v 4.528324 -0.148069 5.984569
v 7.311669 0.148069 5.986146
v 7.311669 0.049356 5.986146
v 7.311669 -0.049356 5.986146
v 7.311669 -0.148069 5.986146
v 10.096766 0.148069 2.899164
v 10.096766 0.049356 2.899164
v 10.096766 -0.049356 2.899164
v 10.096766 -0.148069 2.899164
v 10.102017 0.148069 -0.646945
v 10.102017 0.049356 -0.646945
v 10.102017 -0.049356 -0.646945
v 10.102017 -0.148069 -0.646945
v -9.866185 0.148069 -0.654833
v -9.866185 0.049356 -0.654833
v -9.866185 -0.049356 -0.654833
v -9.866185 -0.148069 -0.654833
v -9.871438 0.148069 2.891276
v -9.871438 0.049356 2.891276
v -9.871438 -0.049356 2.891276
v -9.871438 -0.148069 2.891276
v 7.318672 -0.246781 -0.648523
v 7.313420 -0.246781 2.897587
v 4.535326 -0.246781 -0.650100
v 4.530075 -0.246781 2.896009
v 1.751756 -0.246781 -0.651678
v 1.746504 -0.246781 2.894432
v -7.082839 -0.246781 -0.653256
v -7.088091 -0.246781 2.892854
v 7.318672 0.246781 -0.648523
v 4.535326 0.246781 -0.650101
v 1.751756 0.246781 -0.651678
v -7.082839 0.246781 -0.653256
v 7.313420 0.246781 2.897587
v 4.530075 0.246781 2.896009
v 1.746504 0.246781 2.894431
v -7.088091 0.246781 2.892853
v -4.478997 0.246781 -3.741350
v -4.487751 0.246781 5.981879
v -4.478997 -0.246781 -3.741350
v -4.487751 -0.246781 5.981879
v -4.478997 0.148069 -3.741350
v -4.478997 0.049356 -3.741350
v -4.478997 -0.049356 -3.741350
v -4.478997 -0.148069 -3.741350
v -4.487751 0.148069 5.981879
v -4.487751 0.049356 5.981879
v -4.487751 -0.049356 5.981879
v -4.487751 -0.148069 5.981879
v -4.480748 -0.246781 -0.652791
v -4.486000 -0.246781 2.893319
v -4.480748 0.246781 -0.652791
v -4.486000 0.246781 2.893318
v -0.512158 0.246781 5.982588
v -0.512158 -0.246781 5.982588
v -0.503405 0.148069 -3.740641
v -0.503405 0.049356 -3.740641
v -0.503405 -0.049356 -3.740641
v -0.503405 -0.148069 -3.740641
v -0.505156 -0.246781 -0.652081
v -0.510408 -0.246781 2.894029
v -0.503405 0.246781 -3.740641
v -0.503405 -0.246781 -3.740641
v -0.512158 0.148069 5.982588
v -0.512158 0.049356 5.982588
v -0.512158 -0.049356 5.982588
v -0.512158 -0.148069 5.982588
v -0.505156 0.246781 -0.652081
v -0.510408 0.246781 2.894028
v -0.501704 0.246781 -13.461508
v -4.477295 0.246781 -13.462218
v -0.501704 -0.246781 -13.461508
v -4.477295 -0.246781 -13.462218
v -4.477295 -0.049356 -13.462218
v -4.477295 -0.148069 -13.462218
v -4.477295 0.049356 -13.462218
v -4.477295 0.148069 -13.462218
v -0.501704 0.148069 -13.461508
v -0.501704 0.049356 -13.461508
v -0.501704 -0.049356 -13.461508
v -0.501704 -0.148069 -13.461508
vt 0.800000 0.800000
vt 1.000000 0.800000
vt 1.000000 1.000000
vt 0.800000 1.000000
vt 0.800000 0.800000
vt 0.800000 1.000000
vt 1.000000 1.000000
vt 1.000000 0.800000
vt 1.000000 0.800000
vt 1.000000 1.000000
vt 0.000000 0.200000
vt 0.000000 0.200000
vt 0.000000 0.000000
vt 0.000000 0.000000
vt 0.200000 1.000000
vt 0.200000 1.000000
vt 0.000000 1.000000
vt 0.000000 1.000000
vt 0.800000 0.000000
vt 0.800000 0.000000
vt 1.000000 0.000000
vt 1.000000 0.000000
vt 0.200000 0.000000
vt 0.200000 0.000000
vt 0.400000 0.000000
vt 0.400000 0.000000
vt 0.600000 0.000000
vt 0.600000 0.000000
vt 0.741093 0.000000
vt 0.741093 0.000000
vt 0.000000 0.000000
vt 0.000000 0.000000
vt 0.200000 0.000000
vt 0.200000 0.000000
vt 0.000000 0.000000
vt 0.200000 0.000000
vt 0.000000 0.000000
vt 0.200000 0.000000
vt 0.400000 0.000000
vt 0.400000 0.000000
vt 0.400000 0.000000
vt 0.400000 0.000000
vt 0.600000 0.000000
vt 0.600000 0.000000
vt 0.600000 0.000000
vt 0.600000 0.000000
vt 0.741093 0.000000
vt 0.741093 0.000000
vt 0.800000 0.000000
vt 0.800000 0.000000
vt 0.741093 0.000000
vt 0.800000 0.000000
vt 0.741093 0.000000
vt 0.800000 0.000000
vt 1.000000 0.000000
vt 1.000000 0.000000
vt 1.000000 0.000000
vt 1.000000 0.000000
vt 0.800000 1.000000
vt 0.651093 1.000000
vt 0.651093 1.000000
vt 0.600000 1.000000
vt 0.600000 1.000000
vt 0.400000 1.000000
vt 0.400000 1.000000
vt 1.000000 1.000000
vt 0.800000 1.000000
vt 1.000000 1.000000
vt 0.800000 1.000000
vt 1.000000 1.000000
vt 0.800000 1.000000
vt 0.651093 1.000000
vt 0.651093 1.000000
vt 0.600000 1.000000
vt 0.600000 1.000000
vt 0.651093 1.000000
vt 0.600000 1.000000
vt 0.651093 1.000000
vt 0.600000 1.000000
vt 0.400000 1.000000
vt 0.400000 1.000000
vt 0.400000 1.000000
vt 0.400000 1.000000
vt 0.200000 1.000000
vt 0.200000 1.000000
vt 0.200000 1.000000
vt 0.200000 1.000000
vt 0.000000 1.000000
vt 0.000000 1.000000
vt 0.000000 1.000000
vt 0.000000 1.000000
vt 0.000000 0.800000
vt 0.000000 0.800000
vt 0.000000 0.800000
vt 0.000000 0.800000
vt 0.000000 0.800000
vt 0.000000 0.800000
vt 0.000000 0.200000
vt 0.000000 0.200000
vt 0.000000 0.200000
vt 0.000000 0.200000
vt 1.000000 0.200000
vt 1.000000 0.200000
vt 1.000000 0.200000
vt 1.000000 0.200000
vt 1.000000 0.200000
vt 1.000000 0.200000
vt 1.000000 0.800000
vt 1.000000 0.800000
vt 1.000000 0.800000
vt 0.200000 0.800000
vt 0.400000 0.800000
vt 0.600000 0.800000
vt 0.741093 0.800000
vt 0.741093 1.000000
vt 0.200000 0.200000
vt 0.400000 0.200000
vt 0.600000 0.200000
vt 0.741093 0.200000
vt 0.800000 0.200000
vt 0.800000 0.200000
vt 0.200000 0.200000
vt 0.400000 0.200000
vt 0.600000 0.200000
vt 0.741093 0.200000
vt 0.200000 0.800000
vt 0.400000 0.800000
vt 0.600000 0.800000
vt 0.741093 0.800000
vt 0.741093 1.000000
vt 0.651093 0.800000
vt 0.651093 0.000000
vt 0.651093 0.200000
vt 0.651093 0.000000
vt 0.651093 0.200000
vt 0.651093 0.800000
vt 0.741093 1.000000
vt 0.741093 1.000000
vt 0.741093 1.000000
vt 0.741093 1.000000
vt 0.741093 0.000000
vt 0.741093 0.000000
vt 0.651093 0.000000
vt 0.651093 0.000000
vt 0.651093 0.000000
vt 0.651093 0.000000
vt 0.741093 0.000000
vt 0.741093 0.000000
vt 0.651093 0.000000
vt 0.651093 0.000000
vt 0.651093 0.000000
vt 0.651093 0.000000
vt 0.651093 0.000000
vt 0.741093 0.000000
vt 0.651093 0.000000
vt 0.741093 0.000000
vn 0.0000 1.0000 0.0000
vn 0.0000 -1.0000 0.0000
vn -1.0000 0.0000 -0.0006
vn 1.0000 0.0000 0.0006
vn -0.0006 0.0000 1.0000
vn 0.0006 0.0000 -1.0000
vn 0.0002 0.0000 -1.0000
vn -0.0002 0.0000 1.0000
vn -1.0000 0.0000 -0.0002
vn 1.0000 0.0000 0.0002
vn 1.0000 0.0000 0.0015
vn -1.0000 0.0000 -0.0015
usemtl (null)
s off
f 112/1/1 16/2/1 4/3/1 17/4/1
f 104/5/2 29/6/2 8/7/2 28/8/2
f 96/9/3 28/8/3 8/7/3 36/10/3
f 88/11/4 22/12/4 6/13/4 44/14/4
f 80/15/5 32/16/5 5/17/5 45/18/5
f 64/19/6 26/20/6 7/21/6 37/22/6
f 44/14/6 6/13/6 23/23/6 52/24/6
f 52/24/6 23/23/6 24/25/6 56/26/6
f 56/26/6 24/25/6 25/27/6 60/28/6
f 120/29/7 115/30/7 26/20/7 64/19/7
f 1/31/6 41/32/6 49/33/6 11/34/6
f 41/32/6 42/35/6 50/36/6 49/33/6
f 42/35/6 43/37/6 51/38/6 50/36/6
f 43/37/6 44/14/6 52/24/6 51/38/6
f 11/34/6 49/33/6 53/39/6 12/40/6
f 49/33/6 50/36/6 54/41/6 53/39/6
f 50/36/6 51/38/6 55/42/6 54/41/6
f 51/38/6 52/24/6 56/26/6 55/42/6
f 12/40/6 53/39/6 57/43/6 13/44/6
f 53/39/6 54/41/6 58/45/6 57/43/6
f 54/41/6 55/42/6 59/46/6 58/45/6
f 55/42/6 56/26/6 60/28/6 59/46/6
f 113/47/7 117/48/7 61/49/7 14/50/7
f 117/48/7 118/51/7 62/52/7 61/49/7
f 118/51/7 119/53/7 63/54/7 62/52/7
f 119/53/7 120/29/7 64/19/7 63/54/7
f 14/50/6 61/49/6 40/55/6 2/56/6
f 61/49/6 62/52/6 39/57/6 40/55/6
f 62/52/6 63/54/6 38/58/6 39/57/6
f 63/54/6 64/19/6 37/22/6 38/58/6
f 36/10/5 8/7/5 29/6/5 68/59/5
f 142/60/8 130/61/8 30/62/8 72/63/8
f 72/63/5 30/62/5 31/64/5 76/65/5
f 76/65/5 31/64/5 32/16/5 80/15/5
f 4/3/5 33/66/5 65/67/5 17/4/5
f 33/66/5 34/68/5 66/69/5 65/67/5
f 34/68/5 35/70/5 67/71/5 66/69/5
f 35/70/5 36/10/5 68/59/5 67/71/5
f 129/72/8 139/73/8 69/74/8 18/75/8
f 139/73/8 140/76/8 70/77/8 69/74/8
f 140/76/8 141/78/8 71/79/8 70/77/8
f 141/78/8 142/60/8 72/63/8 71/79/8
f 18/75/5 69/74/5 73/80/5 19/81/5
f 69/74/5 70/77/5 74/82/5 73/80/5
f 70/77/5 71/79/5 75/83/5 74/82/5
f 71/79/5 72/63/5 76/65/5 75/83/5
f 19/81/5 73/80/5 77/84/5 20/85/5
f 73/80/5 74/82/5 78/86/5 77/84/5
f 74/82/5 75/83/5 79/87/5 78/86/5
f 75/83/5 76/65/5 80/15/5 79/87/5
f 20/85/5 77/84/5 48/88/5 3/89/5
f 77/84/5 78/86/5 47/90/5 48/88/5
f 78/86/5 79/87/5 46/91/5 47/90/5
f 79/87/5 80/15/5 45/18/5 46/91/5
f 45/18/4 5/17/4 21/92/4 84/93/4
f 3/89/4 48/88/4 81/94/4 9/95/4
f 48/88/4 47/90/4 82/96/4 81/94/4
f 47/90/4 46/91/4 83/97/4 82/96/4
f 46/91/4 45/18/4 84/93/4 83/97/4
f 10/98/4 85/99/4 41/32/4 1/31/4
f 85/99/4 86/100/4 42/35/4 41/32/4
f 86/100/4 87/101/4 43/37/4 42/35/4
f 87/101/4 88/11/4 44/14/4 43/37/4
f 37/22/3 7/21/3 27/102/3 92/103/3
f 2/56/3 40/55/3 89/104/3 15/105/3
f 40/55/3 39/57/3 90/106/3 89/104/3
f 39/57/3 38/58/3 91/107/3 90/106/3
f 38/58/3 37/22/3 92/103/3 91/107/3
f 16/2/3 93/108/3 33/66/3 4/3/3
f 93/108/3 94/109/3 34/68/3 33/66/3
f 94/109/3 95/110/3 35/70/3 34/68/3
f 95/110/3 96/9/3 36/10/3 35/70/3
f 21/92/2 5/17/2 32/16/2 98/111/2
f 98/111/2 32/16/2 31/64/2 100/112/2
f 100/112/2 31/64/2 30/62/2 102/113/2
f 126/114/2 116/115/2 29/6/2 104/5/2
f 6/13/2 22/12/2 97/116/2 23/23/2
f 23/23/2 97/116/2 99/117/2 24/25/2
f 24/25/2 99/117/2 101/118/2 25/27/2
f 115/30/2 125/119/2 103/120/2 26/20/2
f 26/20/2 103/120/2 27/102/2 7/21/2
f 14/50/1 2/56/1 15/105/1 108/121/1
f 1/31/1 11/34/1 105/122/1 10/98/1
f 11/34/1 12/40/1 106/123/1 105/122/1
f 12/40/1 13/44/1 107/124/1 106/123/1
f 113/47/1 14/50/1 108/121/1 127/125/1
f 9/95/1 109/126/1 20/85/1 3/89/1
f 109/126/1 110/127/1 19/81/1 20/85/1
f 110/127/1 111/128/1 18/75/1 19/81/1
f 128/129/1 112/1/1 17/4/1 114/130/1
f 144/131/1 128/129/1 114/130/1 129/72/1
f 137/132/1 113/47/1 127/125/1 143/133/1
f 138/134/2 135/135/2 125/119/2 115/30/2
f 136/136/2 130/61/2 116/115/2 126/114/2
f 67/71/8 68/59/8 124/137/8 123/138/8
f 66/69/8 67/71/8 123/138/8 122/139/8
f 65/67/8 66/69/8 122/139/8 121/140/8
f 17/4/8 65/67/8 121/140/8 114/130/8
f 68/59/8 29/6/8 116/115/8 124/137/8
f 119/53/9 149/141/9 150/142/9 120/29/9
f 132/143/10 154/144/10 153/145/10 131/146/10
f 113/47/9 146/147/9 152/148/9 117/48/9
f 137/132/1 145/149/1 146/147/1 113/47/1
f 131/146/10 153/145/10 145/149/10 137/132/10
f 60/28/7 25/27/7 138/134/7 134/150/7
f 13/44/7 57/43/7 131/146/7 137/132/7
f 57/43/7 58/45/7 132/143/7 131/146/7
f 58/45/7 59/46/7 133/151/7 132/143/7
f 59/46/7 60/28/7 134/150/7 133/151/7
f 102/113/2 30/62/2 130/61/2 136/136/2
f 25/27/2 101/118/2 135/135/2 138/134/2
f 13/44/1 137/132/1 143/133/1 107/124/1
f 111/128/1 144/131/1 129/72/1 18/75/1
f 123/138/8 124/137/8 142/60/8 141/78/8
f 122/139/8 123/138/8 141/78/8 140/76/8
f 121/140/8 122/139/8 140/76/8 139/73/8
f 114/130/8 121/140/8 139/73/8 129/72/8
f 124/137/8 116/115/8 130/61/8 142/60/8
f 155/152/7 156/153/7 150/142/7 149/141/7
f 154/144/7 155/152/7 149/141/7 151/154/7
f 153/145/7 154/144/7 151/154/7 152/148/7
f 145/149/7 153/145/7 152/148/7 146/147/7
f 156/153/7 147/155/7 148/156/7 150/142/7
f 120/29/9 150/142/9 148/156/9 115/30/9
f 133/151/10 155/152/10 154/144/10 132/143/10
f 115/30/2 148/156/2 147/155/2 138/134/2
f 118/51/9 151/154/9 149/141/9 119/53/9
f 138/134/10 147/155/10 156/153/10 134/150/10
f 134/150/10 156/153/10 155/152/10 133/151/10
f 117/48/9 152/148/9 151/154/9 118/51/9
f 21/92/11 22/12/11 88/11/11 87/101/11 86/100/11 85/99/11 10/98/11 9/95/11 81/94/11 82/96/11 83/97/11 84/93/11
f 15/105/1 16/2/1 112/1/1 128/129/1 144/131/1 111/128/1 110/127/1 109/126/1 9/95/1 10/98/1 105/122/1 106/123/1 107/124/1 143/133/1 127/125/1 108/121/1
f 27/102/12 28/8/12 96/9/12 95/110/12 94/109/12 93/108/12 16/2/12 15/105/12 89/104/12 90/106/12 91/107/12 92/103/12
f 22/12/2 21/92/2 98/111/2 100/112/2 102/113/2 136/136/2 126/114/2 104/5/2 28/8/2 27/102/2 103/120/2 125/119/2 135/135/2 101/118/2 99/117/2 97/116/2
