# Blender v2.80 (sub 75) OBJ File: ''
# www.blender.org
mtllib PAREDE ENTRADA LABIRINTO.mtl
o Plane.026_Plane.062
v 4.736289 -3.074225 0.245132
v 4.736289 -3.074225 -0.245133
v -6.764059 -3.074225 0.245133
v -6.764059 -3.074225 -0.245132
v -6.764059 3.091042 0.245133
v 4.736289 3.091042 0.245132
v 4.736289 3.091042 -0.245133
v -6.764059 3.091042 -0.245132
v 0.779911 3.091042 0.245133
v 0.779911 3.091042 -0.245132
v -1.198277 -3.074225 -0.245132
v -1.198277 3.091042 -0.245132
v -1.198277 -3.074225 0.245133
v -1.198277 3.091042 0.245133
v 2.758100 -3.074225 0.245132
v 2.758100 3.091042 0.245132
v 2.758100 -3.074225 -0.245133
v 2.758100 3.091042 -0.245133
v -6.764059 -0.955060 -0.245132
v 4.736289 -0.955060 -0.245133
v 4.736289 -0.955060 0.245132
v -6.764059 -0.955060 0.245133
v 0.779911 -0.955060 0.245133
v 0.779911 -0.955060 -0.245132
v -1.198277 -0.955060 0.245133
v -1.198277 -0.955060 -0.245132
v 2.758100 -0.955060 -0.245133
v 2.758100 -0.955060 0.245132
v -6.764059 1.549725 -0.245132
v 4.736289 1.549725 0.245132
v 0.779911 1.549725 0.245133
v 0.779911 1.549725 -0.245132
v -1.198277 1.549725 0.245133
v -1.198277 1.549725 -0.245132
v 2.758100 1.549725 -0.245133
v 2.758100 1.549725 0.245132
v 4.736289 1.549725 -0.245133
v -6.764059 1.549725 0.245133
v 4.736289 -1.532908 -0.245133
v -6.764059 -1.532908 0.245133
v -6.764059 -1.532908 -0.245132
v 4.736289 -1.532908 0.245132
v -1.198277 -1.532908 0.245133
v -1.198277 -1.532908 -0.245132
v 2.758100 -1.532908 -0.245133
v 2.758100 -1.532908 0.245132
vt 0.000000 0.750000
vt 0.000000 1.000000
vt 1.000000 1.000000
vt 1.000000 0.750000
vt 0.000000 0.750000
vt 1.000000 0.750000
vt 1.000000 1.000000
vt 0.000000 1.000000
vt 1.000000 0.750000
vt 1.000000 1.000000
vt 0.000000 0.250000
vt 0.000000 0.000000
vt 0.000000 0.000000
vt 0.000000 0.250000
vt 0.000000 1.000000
vt 1.000000 0.000000
vt 1.000000 0.000000
vt 0.000000 0.750000
vt 0.000000 0.500000
vt 0.000000 0.500000
vt 1.000000 0.250000
vt 1.000000 0.500000
vt 1.000000 0.500000
vt 1.000000 0.250000
vt 0.000000 0.000000
vt 0.000000 0.250000
vt 1.000000 0.250000
vt 1.000000 0.000000
vt 1.000000 0.000000
vt 1.000000 0.250000
vt 1.000000 0.250000
vt 1.000000 0.000000
vt 0.000000 1.000000
vt 0.000000 0.750000
vt 0.000000 0.750000
vt 0.000000 1.000000
vt 0.000000 0.000000
vt 0.000000 0.000000
vt 1.000000 1.000000
vt 1.000000 1.000000
vt 0.000000 0.250000
vt 0.000000 0.250000
vt 1.000000 0.750000
vt 1.000000 0.750000
vt 0.000000 0.500000
vt 1.000000 0.500000
vt 0.000000 0.000000
vt 0.000000 0.000000
vt 0.000000 0.000000
vt 0.000000 0.000000
vt 0.000000 0.000000
vt 0.000000 0.000000
vt 0.000000 0.000000
vt 0.000000 0.000000
vt 0.000000 0.000000
vt 0.000000 0.000000
vt 0.000000 0.000000
vt 0.000000 0.000000
vn 0.0000 -1.0000 0.0000
vn 0.0000 1.0000 0.0000
vn -0.0000 0.0000 -1.0000
vn 0.0000 0.0000 1.0000
vn -1.0000 0.0000 0.0000
vn 1.0000 0.0000 0.0000
usemtl None
s off
f 13/1/1 3/2/1 4/3/1 11/4/1
f 14/5/2 12/6/2 8/7/2 5/8/2
f 34/9/3 29/10/3 8/7/3 12/6/3
f 36/11/4 30/12/4 6/13/4 16/14/4
f 29/10/5 38/15/5 5/8/5 8/7/5
f 30/12/6 37/16/6 7/17/6 6/13/6
f 33/18/4 31/19/4 9/20/4 14/5/4
f 35/21/3 32/22/3 10/23/3 18/24/3
f 16/14/2 18/24/2 10/23/2 9/20/2
f 38/15/4 33/18/4 14/5/4 5/8/4
f 32/22/3 34/9/3 12/6/3 10/23/3
f 9/20/2 10/23/2 12/6/2 14/5/2
f 1/25/1 15/26/1 17/27/1 2/28/1
f 6/13/2 7/17/2 18/24/2 16/14/2
f 37/16/3 35/21/3 18/24/3 7/17/3
f 31/19/4 36/11/4 16/14/4 9/20/4
f 39/29/3 45/30/3 27/31/3 20/32/3
f 40/33/4 43/34/4 25/35/4 22/36/4
f 42/37/6 39/29/6 20/32/6 21/38/6
f 41/39/5 40/33/5 22/36/5 19/40/5
f 46/41/4 42/37/4 21/38/4 28/42/4
f 44/43/3 41/39/3 19/40/3 26/44/3
f 23/45/4 28/42/4 36/11/4 31/19/4
f 20/32/3 27/31/3 35/21/3 37/16/3
f 24/46/3 26/44/3 34/9/3 32/22/3
f 22/36/4 25/35/4 33/18/4 38/15/4
f 27/31/3 24/46/3 32/22/3 35/21/3
f 25/35/4 23/45/4 31/19/4 33/18/4
f 21/38/6 20/32/6 37/16/6 30/12/6
f 19/40/5 22/36/5 38/15/5 29/10/5
f 28/42/4 21/38/4 30/12/4 36/11/4
f 26/44/3 19/40/3 29/10/3 34/9/3
f 11/4/3 4/3/3 41/39/3 44/43/3
f 15/26/4 1/25/4 42/37/4 46/41/4
f 4/3/5 3/2/5 40/33/5 41/39/5
f 1/25/6 2/28/6 39/29/6 42/37/6
f 28/42/1 23/45/1 25/47/1 26/44/1 24/46/1 27/31/1
f 3/2/4 13/1/4 43/34/4 40/33/4
f 43/48/6 13/49/6 11/50/6 44/51/6 26/52/6 25/47/6
f 2/28/3 17/27/3 45/30/3 39/29/3
f 15/53/5 46/54/5 28/55/5 27/56/5 45/57/5 17/58/5
