# Blender v2.80 (sub 75) OBJ File: ''
# www.blender.org
mtllib TETO.mtl
o LABIRINTO_TETO.002_Plane.075
v -37.276981 -2.426038 -24.097692
v -37.276981 -2.749016 -24.097692
v 37.276981 -2.426036 -24.097691
v 37.276981 -2.749014 -24.097691
v 37.276985 -2.426036 24.097691
v -37.276978 -2.426038 24.097689
v -37.276978 -2.749016 24.097689
v 37.276985 -2.749014 24.097691
v 37.276981 -0.937852 -16.065126
v 37.276981 1.573076 -8.032563
v 37.276981 5.597878 -0.000000
v 37.276981 1.573076 8.032563
v 37.276985 -0.937852 16.065128
v -37.276978 -0.937854 16.065126
v -37.276978 1.573074 8.032563
v -37.276978 5.597876 -0.000000
v -37.276981 1.573074 -8.032563
v -37.276981 -0.937854 -16.065128
v -37.276981 -0.614876 -16.065128
v -37.276981 1.896052 -8.032565
v -37.276981 5.920855 -0.000001
v -37.276981 1.896052 8.032562
v -37.276978 -0.614876 16.065126
v 37.276985 -0.614874 16.065128
v 37.276985 1.896055 8.032565
v 37.276985 5.920857 0.000001
v 37.276981 1.896055 -8.032562
v 37.276981 -0.614874 -16.065126
v -38.742062 -2.426038 -24.097691
v -38.742062 -2.749016 -24.097691
v 38.742058 -2.749014 -24.097689
v 38.742058 -2.426036 -24.097689
v -38.742054 -2.426038 24.097687
v -38.742054 -2.749016 24.097687
v 38.742065 -2.749014 24.097689
v 38.742065 -2.426036 24.097689
v 38.742065 -0.937852 16.065128
v -38.742062 -0.937854 -16.065125
v -38.742054 -0.614876 16.065126
v 38.742058 -0.614874 -16.065125
v 38.742058 -0.937852 -16.065125
v 38.742058 1.573076 -8.032562
v 38.742058 5.597878 -0.000000
v 38.742062 1.573076 8.032563
v -38.742054 -0.937854 16.065126
v -38.742054 1.573074 8.032562
v -38.742054 5.597876 -0.000000
v -38.742058 1.573074 -8.032563
v -38.742062 -0.614876 -16.065125
v -38.742062 1.896053 -8.032564
v -38.742062 5.920855 -0.000001
v -38.742058 1.896053 8.032561
v 38.742065 -0.614874 16.065128
v 38.742065 1.896054 8.032564
v 38.742065 5.920857 0.000001
v 38.742062 1.896054 -8.032561
v 37.276981 -3.008744 -8.032563
v 37.276981 1.016059 -0.000000
v 37.276981 -3.008744 8.032563
v -37.276978 -3.008746 8.032563
v -37.276978 1.016057 -0.000000
v -37.276981 -3.008746 -8.032563
v -38.742058 -3.008746 -8.032563
v -38.742054 1.016057 -0.000000
v -38.742054 -3.008746 8.032562
v 38.742058 -3.008744 -8.032562
v 38.742058 1.016059 -0.000000
v 38.742062 -3.008744 8.032563
vt 0.000000 0.000000
vt 0.000000 1.000000
vt 1.000000 1.000000
vt 1.000000 0.000000
vt 0.000000 0.000000
vt 1.000000 0.000000
vt 1.000000 1.000000
vt 0.000000 1.000000
vt 1.000000 0.000000
vt 1.000000 1.000000
vt 0.000000 1.000000
vt 0.000000 0.000000
vt 0.000000 1.000000
vt 0.000000 1.000000
vt 0.000000 1.000000
vt 0.000000 0.000000
vt 0.000000 0.000000
vt 0.000000 0.000000
vt 0.000000 0.000000
vt 0.000000 0.000000
vt 0.000000 0.000000
vt 0.000000 0.000000
vt 0.000000 0.000000
vt 1.000000 0.000000
vt 1.000000 0.000000
vt 1.000000 0.000000
vt 0.000000 0.000000
vt 1.000000 1.000000
vt 1.000000 1.000000
vt 1.000000 0.000000
vt 1.000000 0.000000
vt 0.000000 1.000000
vt 1.000000 0.000000
vt 1.000000 0.000000
vt 1.000000 0.000000
vt 1.000000 0.000000
vt 1.000000 0.000000
vt 0.000000 1.000000
vt 0.000000 1.000000
vt 0.000000 0.000000
vt 0.000000 1.000000
vt 1.000000 1.000000
vt 1.000000 1.000000
vt 1.000000 1.000000
vt 1.000000 0.000000
vt 1.000000 1.000000
vt 1.000000 0.000000
vt 0.000000 1.000000
vt 1.000000 0.000000
vt 1.000000 0.000000
vt 0.000000 0.000000
vt 1.000000 1.000000
vt 1.000000 1.000000
vt 0.000000 1.000000
vt 1.000000 1.000000
vt 0.000000 1.000000
vt 1.000000 1.000000
vt 0.000000 1.000000
vt 1.000000 1.000000
vt 1.000000 0.000000
vt 1.000000 0.000000
vt 1.000000 0.000000
vt 1.000000 1.000000
vt 1.000000 1.000000
vt 1.000000 1.000000
vt 1.000000 1.000000
vt 1.000000 1.000000
vt 1.000000 1.000000
vn 0.0000 0.0000 -1.0000
vn -0.0000 0.0000 1.0000
vn 0.0000 -0.9755 -0.2200
vn -0.0000 0.9755 0.2200
vn 0.0000 0.9755 -0.2200
vn -0.0000 0.8940 -0.4480
vn -0.0000 0.9545 -0.2984
vn 0.0000 -0.9755 0.2200
vn 0.0000 -0.9545 0.2984
vn -1.0000 0.0000 0.0000
vn -0.0000 0.8940 0.4480
vn -0.0000 0.9545 0.2984
vn 0.0000 -0.8940 0.4480
vn 0.0000 -0.8940 -0.4480
vn 0.0000 -0.9545 -0.2984
vn 1.0000 0.0000 0.0000
usemtl None
s off
f 1/1/1 3/2/1 4/3/1 2/4/1
f 6/5/2 7/6/2 8/7/2 5/8/2
f 14/9/3 13/10/3 8/7/3 7/6/3
f 24/11/4 23/12/4 6/5/4 5/8/4
f 3/2/5 28/13/5 40/14/5 32/15/5
f 21/16/6 20/17/6 50/18/6 51/19/6
f 6/5/4 23/12/4 39/20/4 33/21/4
f 20/17/7 19/22/7 49/23/7 50/18/7
f 2/4/8 18/24/8 38/25/8 30/26/8
f 19/22/5 1/1/5 29/27/5 49/23/5
f 8/7/3 13/10/3 37/28/3 35/29/3
f 18/24/9 17/30/9 48/31/9 38/25/9
f 5/8/2 8/7/2 35/29/2 36/32/2
f 47/33/10 48/31/10 63/34/10 64/35/10
f 48/31/1 17/30/1 62/36/1 63/34/1
f 7/6/2 6/5/2 33/21/2 34/37/2
f 3/2/5 1/1/5 19/22/5 28/13/5
f 28/13/7 19/22/7 20/17/7 27/38/7
f 27/38/6 20/17/6 21/16/6 26/39/6
f 26/39/11 21/16/11 22/40/11 25/41/11
f 25/41/12 22/40/12 23/12/12 24/11/12
f 2/4/8 4/3/8 9/42/8 18/24/8
f 18/24/9 9/42/9 10/43/9 17/30/9
f 17/30/13 10/43/13 11/44/13 16/45/13
f 16/45/14 11/44/14 12/46/14 15/47/14
f 15/47/15 12/46/15 13/10/15 14/9/15
f 37/28/16 53/48/16 36/32/16 35/29/16
f 39/20/10 45/49/10 34/37/10 33/21/10
f 29/27/10 30/26/10 38/25/10 49/23/10
f 49/23/10 38/25/10 48/31/10 50/18/10
f 50/18/10 48/31/10 47/33/10 51/19/10
f 51/19/10 47/33/10 46/50/10 52/51/10
f 52/51/10 46/50/10 45/49/10 39/20/10
f 31/52/16 32/15/16 40/14/16 41/53/16
f 41/53/16 40/14/16 56/54/16 42/55/16
f 42/55/16 56/54/16 55/56/16 43/57/16
f 43/57/16 55/56/16 54/58/16 44/59/16
f 44/59/16 54/58/16 53/48/16 37/28/16
f 22/40/11 21/16/11 51/19/11 52/51/11
f 9/42/8 4/3/8 31/52/8 41/53/8
f 23/12/12 22/40/12 52/51/12 39/20/12
f 10/43/9 9/42/9 41/53/9 42/55/9
f 24/11/4 5/8/4 36/32/4 53/48/4
f 17/30/16 16/45/16 61/60/16 62/36/16
f 1/1/1 2/4/1 30/26/1 29/27/1
f 25/41/12 24/11/12 53/48/12 54/58/12
f 46/50/10 47/33/10 64/35/10 65/61/10
f 26/39/11 25/41/11 54/58/11 55/56/11
f 13/10/15 12/46/15 44/59/15 37/28/15
f 4/3/1 3/2/1 32/15/1 31/52/1
f 27/38/6 26/39/6 55/56/6 56/54/6
f 14/9/3 7/6/3 34/37/3 45/49/3
f 28/13/7 27/38/7 56/54/7 40/14/7
f 15/47/15 14/9/15 45/49/15 46/50/15
f 62/36/13 61/60/13 64/35/13 63/34/13
f 61/60/14 60/62/14 65/61/14 64/35/14
f 58/63/13 57/64/13 66/65/13 67/66/13
f 59/67/14 58/63/14 67/66/14 68/68/14
f 11/44/10 10/43/10 57/64/10 58/63/10
f 42/55/16 43/57/16 67/66/16 66/65/16
f 10/43/1 42/55/1 66/65/1 57/64/1
f 12/46/10 11/44/10 58/63/10 59/67/10
f 15/47/2 46/50/2 65/61/2 60/62/2
f 43/57/16 44/59/16 68/68/16 67/66/16
f 44/59/2 12/46/2 59/67/2 68/68/2
f 16/45/16 15/47/16 60/62/16 61/60/16
