# Blender v2.80 (sub 75) OBJ File: ''
# www.blender.org
mtllib JANELA 1.mtl
o JANELA_Plane.035
v 2.757235 -2.412532 0.118902
v 0.997665 -2.412532 0.117905
v 2.757235 2.462682 0.118902
v 0.997665 2.462682 0.117904
v 2.665658 2.377527 0.118850
v 2.665658 -2.327377 0.118850
v 1.089242 -2.327377 0.117956
v 1.089242 2.377527 0.117956
v 2.665791 2.377527 -0.114785
v 2.665791 -2.327377 -0.114784
v 1.089375 -2.327377 -0.115678
v 1.089375 2.377527 -0.115678
v 2.757368 2.462682 -0.114733
v 2.757368 -2.412532 -0.114733
v 0.997798 -2.412532 -0.115730
v 0.997798 2.462682 -0.115730
v -0.992161 -2.412531 0.116777
v -2.751731 -2.412531 0.115780
v -0.992161 2.462682 0.116777
v -2.751731 2.462682 0.115779
v -1.083738 2.377527 0.116725
v -1.083738 -2.327377 0.116725
v -2.660154 -2.327377 0.115831
v -2.660154 2.377527 0.115831
v -1.083606 2.377527 -0.116910
v -1.083606 -2.327377 -0.116909
v -2.660022 -2.327377 -0.117803
v -2.660022 2.377527 -0.117803
v -0.992028 2.462682 -0.116858
v -0.992028 -2.412531 -0.116857
v -2.751599 -2.412531 -0.117855
v -2.751599 2.462682 -0.117855
v 0.999835 -2.412531 0.117906
v -0.992249 -2.412531 0.116777
v 0.999835 2.462682 0.117906
v -0.992249 2.462682 0.116777
v 0.896719 2.377527 0.117847
v 0.896719 -2.327377 0.117848
v -0.889133 -2.327377 0.116835
v -0.889133 2.377527 0.116835
v 0.896851 2.377527 -0.115787
v 0.896851 -2.327377 -0.115787
v -0.889001 -2.327377 -0.116799
v -0.889001 2.377527 -0.116799
v 0.999968 2.462682 -0.115729
v 0.999968 -2.412531 -0.115728
v -0.992117 -2.412531 -0.116858
v -0.992117 2.462682 -0.116858
v 2.702389 1.647479 -0.093776
v 2.702389 1.763940 -0.093776
v 2.702285 1.647479 0.090326
v 2.702285 1.763940 0.090326
v -2.713332 1.647479 -0.096846
v -2.713332 1.763940 -0.096846
v -2.713437 1.647479 0.087256
v -2.713437 1.763940 0.087256
v 2.702389 0.482870 -0.093776
v 2.702389 0.599331 -0.093776
v 2.702285 0.482870 0.090326
v 2.702285 0.599331 0.090326
v -2.713332 0.482870 -0.096846
v -2.713332 0.599331 -0.096846
v -2.713437 0.482870 0.087256
v -2.713437 0.599331 0.087256
v 2.702389 -0.681739 -0.093776
v 2.702389 -0.565278 -0.093776
v 2.702285 -0.681739 0.090326
v 2.702285 -0.565278 0.090326
v -2.713332 -0.681739 -0.096846
v -2.713332 -0.565278 -0.096846
v -2.713437 -0.681739 0.087256
v -2.713437 -0.565278 0.087256
v 2.702389 -1.846348 -0.093776
v 2.702389 -1.729887 -0.093776
v 2.702285 -1.846348 0.090326
v 2.702285 -1.729887 0.090326
v -2.713332 -1.846348 -0.096846
v -2.713332 -1.729887 -0.096846
v -2.713437 -1.846348 0.087256
v -2.713437 -1.729887 0.087256
v 2.704566 2.392315 0.021324
v 2.704566 -2.334860 0.021324
v -2.692109 2.392315 0.018265
v -2.692109 -2.334860 0.018265
vt 0.045932 0.045932
vt 0.000000 0.000000
vt 0.000000 1.000000
vt 0.045932 0.954068
vt 0.954068 0.045932
vt 1.000000 0.000000
vt 0.954068 0.954068
vt 1.000000 1.000000
vt 0.045932 0.045932
vt 0.045932 0.954068
vt 0.000000 1.000000
vt 0.000000 0.000000
vt 0.954068 0.045932
vt 1.000000 0.000000
vt 0.954068 0.954068
vt 1.000000 1.000000
vt 0.045932 0.045932
vt 0.000000 0.000000
vt 0.000000 1.000000
vt 0.045932 0.954068
vt 0.954068 0.045932
vt 1.000000 0.000000
vt 0.954068 0.954068
vt 1.000000 1.000000
vt 0.045932 0.045932
vt 0.045932 0.954068
vt 0.000000 1.000000
vt 0.000000 0.000000
vt 0.954068 0.045932
vt 1.000000 0.000000
vt 0.954068 0.954068
vt 1.000000 1.000000
vt 0.045932 0.045932
vt 0.000000 0.000000
vt 0.000000 1.000000
vt 0.045932 0.954068
vt 0.954068 0.045932
vt 1.000000 0.000000
vt 0.954068 0.954068
vt 1.000000 1.000000
vt 0.045932 0.045932
vt 0.045932 0.954068
vt 0.000000 1.000000
vt 0.000000 0.000000
vt 0.954068 0.045932
vt 1.000000 0.000000
vt 0.954068 0.954068
vt 1.000000 1.000000
vt 0.375000 0.000000
vt 0.625000 0.000000
vt 0.625000 0.250000
vt 0.375000 0.250000
vt 0.625000 0.500000
vt 0.375000 0.500000
vt 0.625000 0.750000
vt 0.375000 0.750000
vt 0.625000 1.000000
vt 0.375000 1.000000
vt 0.125000 0.500000
vt 0.125000 0.750000
vt 0.875000 0.500000
vt 0.875000 0.750000
vt 0.375000 0.000000
vt 0.625000 0.000000
vt 0.625000 0.250000
vt 0.375000 0.250000
vt 0.625000 0.500000
vt 0.375000 0.500000
vt 0.625000 0.750000
vt 0.375000 0.750000
vt 0.625000 1.000000
vt 0.375000 1.000000
vt 0.125000 0.500000
vt 0.125000 0.750000
vt 0.875000 0.500000
vt 0.875000 0.750000
vt 0.375000 0.000000
vt 0.625000 0.000000
vt 0.625000 0.250000
vt 0.375000 0.250000
vt 0.625000 0.500000
vt 0.375000 0.500000
vt 0.625000 0.750000
vt 0.375000 0.750000
vt 0.625000 1.000000
vt 0.375000 1.000000
vt 0.125000 0.500000
vt 0.125000 0.750000
vt 0.875000 0.500000
vt 0.875000 0.750000
vt 0.375000 0.000000
vt 0.625000 0.000000
vt 0.625000 0.250000
vt 0.375000 0.250000
vt 0.625000 0.500000
vt 0.375000 0.500000
vt 0.625000 0.750000
vt 0.375000 0.750000
vt 0.625000 1.000000
vt 0.375000 1.000000
vt 0.125000 0.500000
vt 0.125000 0.750000
vt 0.875000 0.500000
vt 0.875000 0.750000
vt 0.000000 0.000000
vt 1.000000 0.000000
vt 1.000000 1.000000
vt 0.000000 1.000000
vn -0.0006 0.0000 1.0000
vn 0.0006 -0.0000 -1.0000
vn -1.0000 0.0000 -0.0006
vn 1.0000 -0.0000 0.0006
vn 0.0000 1.0000 0.0000
vn 0.0000 -1.0000 0.0000
usemtl (null)
s off
f 6/1/1 1/2/1 3/3/1 5/4/1
f 7/5/1 2/6/1 1/2/1 6/1/1
f 8/7/1 4/8/1 2/6/1 7/5/1
f 5/4/1 3/3/1 4/8/1 8/7/1
f 10/9/2 9/10/2 13/11/2 14/12/2
f 11/13/2 10/9/2 14/12/2 15/14/2
f 12/15/2 11/13/2 15/14/2 16/16/2
f 9/10/2 12/15/2 16/16/2 13/11/2
f 2/6/3 4/8/3 16/16/3 15/14/3
f 3/3/4 1/2/4 14/12/4 13/11/4
f 8/7/4 7/5/4 11/13/4 12/15/4
f 6/1/3 5/4/3 9/10/3 10/9/3
f 4/8/5 3/3/5 13/11/5 16/16/5
f 1/2/6 2/6/6 15/14/6 14/12/6
f 5/4/6 8/7/6 12/15/6 9/10/6
f 7/5/5 6/1/5 10/9/5 11/13/5
f 22/17/1 17/18/1 19/19/1 21/20/1
f 23/21/1 18/22/1 17/18/1 22/17/1
f 24/23/1 20/24/1 18/22/1 23/21/1
f 21/20/1 19/19/1 20/24/1 24/23/1
f 26/25/2 25/26/2 29/27/2 30/28/2
f 27/29/2 26/25/2 30/28/2 31/30/2
f 28/31/2 27/29/2 31/30/2 32/32/2
f 25/26/2 28/31/2 32/32/2 29/27/2
f 18/22/3 20/24/3 32/32/3 31/30/3
f 19/19/4 17/18/4 30/28/4 29/27/4
f 24/23/4 23/21/4 27/29/4 28/31/4
f 22/17/3 21/20/3 25/26/3 26/25/3
f 20/24/5 19/19/5 29/27/5 32/32/5
f 17/18/6 18/22/6 31/30/6 30/28/6
f 21/20/6 24/23/6 28/31/6 25/26/6
f 23/21/5 22/17/5 26/25/5 27/29/5
f 38/33/1 33/34/1 35/35/1 37/36/1
f 39/37/1 34/38/1 33/34/1 38/33/1
f 40/39/1 36/40/1 34/38/1 39/37/1
f 37/36/1 35/35/1 36/40/1 40/39/1
f 42/41/2 41/42/2 45/43/2 46/44/2
f 43/45/2 42/41/2 46/44/2 47/46/2
f 44/47/2 43/45/2 47/46/2 48/48/2
f 41/42/2 44/47/2 48/48/2 45/43/2
f 34/38/3 36/40/3 48/48/3 47/46/3
f 35/35/4 33/34/4 46/44/4 45/43/4
f 40/39/4 39/37/4 43/45/4 44/47/4
f 38/33/3 37/36/3 41/42/3 42/41/3
f 36/40/5 35/35/5 45/43/5 48/48/5
f 33/34/6 34/38/6 47/46/6 46/44/6
f 37/36/6 40/39/6 44/47/6 41/42/6
f 39/37/5 38/33/5 42/41/5 43/45/5
f 49/49/4 50/50/4 52/51/4 51/52/4
f 51/52/1 52/51/1 56/53/1 55/54/1
f 55/54/3 56/53/3 54/55/3 53/56/3
f 53/56/2 54/55/2 50/57/2 49/58/2
f 51/59/6 55/54/6 53/56/6 49/60/6
f 56/53/5 52/61/5 50/62/5 54/55/5
f 57/63/4 58/64/4 60/65/4 59/66/4
f 59/66/1 60/65/1 64/67/1 63/68/1
f 63/68/3 64/67/3 62/69/3 61/70/3
f 61/70/2 62/69/2 58/71/2 57/72/2
f 59/73/6 63/68/6 61/70/6 57/74/6
f 64/67/5 60/75/5 58/76/5 62/69/5
f 65/77/4 66/78/4 68/79/4 67/80/4
f 67/80/1 68/79/1 72/81/1 71/82/1
f 71/82/3 72/81/3 70/83/3 69/84/3
f 69/84/2 70/83/2 66/85/2 65/86/2
f 67/87/6 71/82/6 69/84/6 65/88/6
f 72/81/5 68/89/5 66/90/5 70/83/5
f 73/91/4 74/92/4 76/93/4 75/94/4
f 75/94/1 76/93/1 80/95/1 79/96/1
f 79/96/3 80/95/3 78/97/3 77/98/3
f 77/98/2 78/97/2 74/99/2 73/100/2
f 75/101/6 79/96/6 77/98/6 73/102/6
f 80/95/5 76/103/5 74/104/5 78/97/5
f 81/105/2 82/106/2 84/107/2 83/108/2
