# Blender v2.80 (sub 75) OBJ File: ''
# www.blender.org
mtllib MALETA 1.mtl
o Cube.002_Cube.006
v -0.031085 0.086184 0.573845
v -0.032961 0.334356 0.573845
v -0.031085 0.086184 0.509687
v -0.031085 0.333183 0.509687
v 0.033073 0.086184 0.573845
v 0.034949 0.334356 0.573845
v 0.033073 0.086184 0.509687
v 0.033073 0.333183 0.509687
v -0.032961 0.291905 0.573845
v -0.031085 0.293078 0.509687
v 0.033073 0.293078 0.509687
v 0.034949 0.291905 0.573845
v -0.031085 0.333183 -0.158584
v 0.033073 0.333183 -0.158584
v -0.031085 0.293078 -0.158584
v 0.033073 0.293078 -0.158584
v -0.031085 0.086184 -0.454461
v -0.031085 0.333183 -0.454461
v -0.031085 0.086184 -0.518619
v -0.031085 0.333183 -0.518619
v 0.033073 0.086184 -0.454461
v 0.033073 0.333183 -0.454461
v 0.033073 0.086184 -0.518619
v 0.033073 0.333183 -0.518619
v -0.031085 0.293078 -0.454461
v -0.031085 0.293078 -0.518619
v 0.033073 0.293078 -0.518619
v 0.033073 0.293078 -0.454461
v -0.031085 0.293078 -0.276042
v -0.031085 0.333183 -0.276042
v 0.033073 0.333183 -0.276042
v 0.033073 0.293078 -0.276042
v -0.307207 -0.525950 0.635032
v -0.307207 0.087139 0.635032
v -0.307207 -0.525950 -0.590207
v -0.307207 0.087139 -0.590207
v 0.305882 -0.525950 0.635032
v 0.305882 0.087139 0.635032
v 0.305882 -0.525950 -0.590207
v 0.305882 0.087139 -0.590207
v -0.307207 0.028106 0.635032
v -0.307207 0.028106 -0.590207
v 0.305882 0.028106 -0.590207
v 0.305882 0.028106 0.635032
v -0.307207 -0.028870 -0.590207
v 0.305882 -0.028870 -0.590207
v 0.305882 -0.028870 0.635032
v -0.307207 -0.028870 0.635032
v -0.307207 -0.076596 -0.590207
v 0.305882 -0.076596 -0.590207
v 0.305882 -0.076596 0.635032
v -0.307207 -0.076596 0.635032
v -0.340306 0.029211 0.661390
v -0.340306 0.098836 0.661390
v -0.340306 0.098836 -0.616565
v 0.338981 0.098836 -0.616565
v 0.338981 0.098836 0.661390
v -0.340306 0.029211 -0.616565
v 0.338981 0.029211 -0.616565
v 0.338981 0.029211 0.661390
v -0.340306 -0.079996 0.661390
v -0.340306 -0.030217 0.661390
v -0.340306 -0.030217 -0.616565
v 0.338981 -0.030217 -0.616565
v 0.338981 -0.030217 0.661390
v -0.340306 -0.079996 -0.616565
v 0.338981 -0.079996 -0.616565
v 0.338981 -0.079996 0.661390
v -0.307207 -0.513433 -0.590207
v 0.305882 -0.513433 -0.590207
v 0.305882 -0.513433 0.635032
v -0.307207 -0.513433 0.635032
v -0.322636 -0.526093 -0.604157
v -0.322636 -0.526093 0.648982
v -0.322636 -0.513290 -0.604157
v 0.321311 -0.526093 -0.604157
v 0.321311 -0.513290 -0.604157
v 0.321311 -0.526093 0.648982
v 0.321311 -0.513290 0.648982
v -0.322636 -0.513290 0.648982
vt 0.584407 0.000000
vt 0.625000 0.000000
vt 0.625000 0.250000
vt 0.584407 0.250000
vt 0.875000 0.500000
vt 0.625000 0.500000
vt 0.625000 0.500000
vt 0.875000 0.500000
vt 0.584407 0.500000
vt 0.625000 0.750000
vt 0.584407 0.750000
vt 0.625000 1.000000
vt 0.584407 1.000000
vt 0.125000 0.500000
vt 0.375000 0.500000
vt 0.375000 0.750000
vt 0.125000 0.750000
vt 0.875000 0.750000
vt 0.375000 1.000000
vt 0.375000 0.250000
vt 0.375000 0.000000
vt 0.584407 0.500000
vt 0.625000 0.250000
vt 0.584407 0.250000
vt 0.584407 0.000000
vt 0.625000 0.000000
vt 0.625000 0.250000
vt 0.584407 0.250000
vt 0.625000 0.500000
vt 0.584407 0.500000
vt 0.625000 0.750000
vt 0.584407 0.750000
vt 0.584407 1.000000
vt 0.584407 0.750000
vt 0.584407 1.000000
vt 0.125000 0.500000
vt 0.375000 0.500000
vt 0.375000 0.750000
vt 0.125000 0.750000
vt 0.875000 0.500000
vt 0.875000 0.750000
vt 0.375000 1.000000
vt 0.375000 0.250000
vt 0.375000 0.000000
vt 0.584407 0.000000
vt 0.625000 0.000000
vt 0.625000 0.750000
vt 0.875000 0.750000
vt 0.600928 1.000000
vt 0.600928 0.750000
vt 0.600928 0.750000
vt 0.600928 1.000000
vt 0.625000 0.500000
vt 0.625000 0.750000
vt 0.625000 0.750000
vt 0.625000 0.500000
vt 0.558234 0.250000
vt 0.558234 0.000000
vt 0.558234 0.000000
vt 0.558234 0.250000
vt 0.875000 0.500000
vt 0.875000 0.500000
vt 0.125000 0.500000
vt 0.375000 0.500000
vt 0.375000 0.750000
vt 0.125000 0.750000
vt 0.875000 0.750000
vt 0.577695 0.750000
vt 0.577695 1.000000
vt 0.577695 0.500000
vt 0.600928 0.500000
vt 0.577695 0.250000
vt 0.600928 0.250000
vt 0.577695 0.000000
vt 0.600928 0.000000
vt 0.577695 1.000000
vt 0.577695 0.750000
vt 0.558234 0.500000
vt 0.558234 0.500000
vt 0.600928 0.000000
vt 0.600928 0.250000
vt 0.577695 0.500000
vt 0.380104 0.750000
vt 0.558234 0.750000
vt 0.558234 1.000000
vt 0.380104 1.000000
vt 0.380104 0.500000
vt 0.380104 0.250000
vt 0.380104 0.000000
vt 0.625000 0.000000
vt 0.625000 0.250000
vt 0.600928 0.500000
vt 0.625000 1.000000
vt 0.577695 0.000000
vt 0.577695 0.250000
vt 0.558234 0.750000
vt 0.558234 1.000000
vt 0.875000 0.750000
vt 0.125000 0.500000
vt 0.375000 0.500000
vt 0.380104 0.250000
vt 0.380104 0.000000
vt 0.380104 0.750000
vt 0.380104 0.500000
vt 0.375000 0.750000
vt 0.125000 0.750000
vt 0.375000 0.000000
vt 0.375000 0.250000
vt 0.380104 1.000000
vt 0.375000 1.000000
vn -0.9996 0.0000 -0.0292
vn 0.0000 1.0000 0.0000
vn 0.9996 0.0000 -0.0292
vn 0.0000 0.0000 1.0000
vn 0.0000 -1.0000 0.0000
vn 0.0000 0.9998 -0.0183
vn 0.9999 -0.0045 -0.0147
vn 0.0000 0.0000 -1.0000
vn -0.9999 -0.0045 -0.0147
vn 1.0000 0.0000 0.0000
vn -1.0000 0.0000 0.0000
vn 0.0000 -0.9991 0.0419
vn -0.3332 0.9429 0.0000
vn 0.1022 -0.9948 0.0000
vn 0.0000 0.9140 0.4056
vn 0.0000 0.9987 0.0510
vn 0.0000 -0.9918 0.1280
vn -0.0333 -0.9994 0.0000
vn 0.0407 0.9992 0.0000
vn -0.0407 0.9992 0.0000
vn 0.3332 0.9429 0.0000
vn 0.0333 -0.9994 0.0000
vn 0.0000 -0.9918 -0.1280
vn 0.0000 0.9987 -0.0510
vn 0.0000 -0.9991 -0.0419
vn -0.1022 -0.9948 0.0000
vn 0.0000 0.9140 -0.4056
vn 0.0000 -0.9999 0.0102
vn 0.0092 1.0000 0.0000
vn -0.0092 1.0000 0.0000
vn 0.0000 -0.9999 -0.0102
vn 0.0092 -1.0000 0.0000
vn 0.0000 0.9999 -0.0102
vn 0.0000 0.9999 0.0102
vn -0.0092 -1.0000 0.0000
usemtl None
s off
f 9/1/1 2/2/1 4/3/1 10/4/1
f 4/5/2 8/6/2 14/7/2 13/8/2
f 11/9/3 8/6/3 6/10/3 12/11/3
f 12/11/4 6/10/4 2/12/4 9/13/4
f 3/14/5 7/15/5 5/16/5 1/17/5
f 8/6/6 4/5/6 2/18/6 6/10/6
f 5/16/4 12/11/4 9/13/4 1/19/4
f 7/15/7 11/9/7 12/11/7 5/16/7
f 3/20/8 10/4/8 11/9/8 7/15/8
f 1/21/9 9/1/9 10/4/9 3/20/9
f 8/6/10 11/9/10 16/22/10 14/7/10
f 10/4/11 4/3/11 13/23/11 15/24/11
f 11/9/5 10/4/5 15/24/5 16/22/5
f 25/25/11 18/26/11 20/27/11 26/28/11
f 26/28/8 20/27/8 24/29/8 27/30/8
f 27/30/10 24/29/10 22/31/10 28/32/10
f 25/33/5 28/32/5 32/34/5 29/35/5
f 19/36/5 23/37/5 21/38/5 17/39/5
f 24/29/2 20/40/2 18/41/2 22/31/2
f 21/38/4 28/32/4 25/33/4 17/42/4
f 23/37/10 27/30/10 28/32/10 21/38/10
f 19/43/8 26/28/8 27/30/8 23/37/8
f 17/44/11 25/25/11 26/28/11 19/43/11
f 18/26/11 25/25/11 29/45/11 30/46/11
f 28/32/10 22/31/10 31/47/10 32/34/10
f 22/31/2 18/41/2 30/48/2 31/47/2
f 13/8/2 14/7/2 31/47/2 30/48/2
f 16/22/10 32/34/10 31/47/10 14/7/10
f 15/24/5 29/35/5 32/34/5 16/22/5
f 13/8/11 30/48/11 29/45/11 15/24/11
f 41/49/12 44/50/12 60/51/12 53/52/12
f 40/53/13 38/54/13 57/55/13 56/56/13
f 49/57/14 52/58/14 61/59/14 66/60/14
f 36/61/15 40/53/15 56/56/15 55/62/15
f 35/63/5 39/64/5 37/65/5 33/66/5
f 40/53/2 36/61/2 34/67/2 38/54/2
f 47/68/4 44/50/4 41/49/4 48/69/4
f 46/70/10 43/71/10 44/50/10 47/68/10
f 45/72/8 42/73/8 43/71/8 46/70/8
f 48/74/11 41/75/11 42/73/11 45/72/11
f 47/68/16 48/69/16 62/76/16 65/77/16
f 50/78/17 49/57/17 66/60/17 67/79/17
f 42/73/18 41/75/18 53/80/18 58/81/18
f 46/70/19 47/68/19 65/77/19 64/82/19
f 71/83/4 51/84/4 52/85/4 72/86/4
f 70/87/10 50/78/10 51/84/10 71/83/10
f 69/88/8 49/57/8 50/78/8 70/87/8
f 72/89/11 52/58/11 49/57/11 69/88/11
f 53/80/11 54/90/11 55/91/11 58/81/11
f 58/81/8 55/91/8 56/56/8 59/92/8
f 59/92/10 56/56/10 57/55/10 60/51/10
f 60/51/4 57/55/4 54/93/4 53/52/4
f 61/59/11 62/94/11 63/95/11 66/60/11
f 66/60/8 63/95/8 64/82/8 67/79/8
f 67/79/10 64/82/10 65/77/10 68/96/10
f 68/96/4 65/77/4 62/76/4 61/97/4
f 48/74/20 45/72/20 63/95/20 62/94/20
f 34/67/21 36/61/21 55/62/21 54/98/21
f 44/50/22 43/71/22 59/92/22 60/51/22
f 52/85/23 51/84/23 68/96/23 61/97/23
f 45/72/24 46/70/24 64/82/24 63/95/24
f 43/71/25 42/73/25 58/81/25 59/92/25
f 51/84/26 50/78/26 67/79/26 68/96/26
f 38/54/27 34/67/27 54/98/27 57/55/27
f 39/64/28 35/63/28 73/99/28 76/100/28
f 72/89/29 69/88/29 75/101/29 80/102/29
f 70/87/30 71/83/30 79/103/30 77/104/30
f 33/66/31 37/65/31 78/105/31 74/106/31
f 74/107/11 80/102/11 75/101/11 73/108/11
f 73/108/8 75/101/8 77/104/8 76/100/8
f 76/100/10 77/104/10 79/103/10 78/105/10
f 78/105/4 79/103/4 80/109/4 74/110/4
f 35/63/32 33/66/32 74/106/32 73/99/32
f 71/83/33 72/86/33 80/109/33 79/103/33
f 69/88/34 70/87/34 77/104/34 75/101/34
f 37/65/35 39/64/35 76/100/35 78/105/35
