# Blender v2.80 (sub 75) OBJ File: ''
# www.blender.org
mtllib MESA 2.mtl
o MESA_2.001_Plane.028
v 0.025950 0.598128 -1.214185
v 0.200080 0.598128 -1.214185
v 0.025950 0.598128 -1.038475
v 0.200080 0.598128 -1.038475
v 0.025950 -1.194988 -1.038475
v 0.025950 -1.194988 -1.214185
v 0.200080 -1.194988 -1.214185
v 0.200080 -1.194988 -1.038475
v -0.679772 0.656615 1.341812
v 0.227712 0.656615 1.341812
v -0.679772 0.656615 -1.380694
v 0.227712 0.656615 -1.380694
v -0.679772 0.537104 -1.380694
v -0.679772 0.537104 1.341812
v 0.227712 0.537104 1.341812
v 0.227712 0.537104 -1.380694
v 0.025950 0.598128 1.057916
v 0.200080 0.598128 1.057916
v 0.025950 0.598128 1.233626
v 0.200080 0.598128 1.233626
v 0.025950 -1.194988 1.233626
v 0.025950 -1.194988 1.057916
v 0.200080 -1.194988 1.057916
v 0.200080 -1.194988 1.233626
vt 0.000000 0.000000
vt 0.000000 1.000000
vt 1.000000 1.000000
vt 1.000000 0.000000
vt 0.000000 0.000000
vt 1.000000 0.000000
vt 1.000000 1.000000
vt 0.000000 1.000000
vt 0.000000 0.000000
vt 1.000000 0.000000
vt 1.000000 1.000000
vt 0.000000 1.000000
vt 0.000000 0.000000
vt 0.000000 1.000000
vt 1.000000 1.000000
vt 1.000000 0.000000
vt 0.000000 0.000000
vt 0.000000 1.000000
vt 1.000000 1.000000
vt 1.000000 0.000000
vt 0.000000 0.000000
vt 1.000000 0.000000
vt 1.000000 1.000000
vt 0.000000 1.000000
vn 0.0000 1.0000 0.0000
vn 0.0000 -1.0000 0.0000
vn 0.0000 0.0000 -1.0000
vn 1.0000 0.0000 0.0000
vn -1.0000 0.0000 0.0000
vn 0.0000 0.0000 1.0000
usemtl (null)
s off
f 1/1/1 3/2/1 4/3/1 2/4/1
f 6/5/2 7/6/2 8/7/2 5/8/2
f 1/1/3 2/4/3 7/6/3 6/5/3
f 2/4/4 4/3/4 8/7/4 7/6/4
f 3/2/5 1/1/5 6/5/5 5/8/5
f 4/3/6 3/2/6 5/8/6 8/7/6
f 9/9/1 10/10/1 12/11/1 11/12/1
f 14/13/2 13/14/2 16/15/2 15/16/2
f 9/9/6 14/13/6 15/16/6 10/10/6
f 10/10/4 15/16/4 16/15/4 12/11/4
f 11/12/5 13/14/5 14/13/5 9/9/5
f 12/11/3 16/15/3 13/14/3 11/12/3
f 17/17/1 19/18/1 20/19/1 18/20/1
f 22/21/2 23/22/2 24/23/2 21/24/2
f 17/17/3 18/20/3 23/22/3 22/21/3
f 18/20/4 20/19/4 24/23/4 23/22/4
f 19/18/5 17/17/5 22/21/5 21/24/5
f 20/19/6 19/18/6 21/24/6 24/23/6
