# Blender v2.80 (sub 75) OBJ File: ''
# www.blender.org
mtllib PALETE 1.mtl
o Cube.013_Cube.014
v -1.248667 -0.313826 1.197679
v -1.248667 -0.014733 1.197679
v -1.248667 -0.313826 0.855485
v -1.248667 -0.014733 0.855485
v 1.247641 -0.313826 1.197679
v 1.247641 -0.014733 1.197679
v 1.247641 -0.313826 0.855485
v 1.247641 -0.014733 0.855485
v -1.248662 -0.313826 0.171095
v -1.248662 -0.014733 0.171095
v -1.248662 -0.313826 -0.171099
v -1.248662 -0.014733 -0.171099
v 1.247646 -0.313826 0.171095
v 1.247646 -0.014733 0.171095
v 1.247646 -0.313826 -0.171099
v 1.247646 -0.014733 -0.171099
v -1.248662 -0.313826 -0.855486
v -1.248662 -0.014733 -0.855486
v -1.248662 -0.313826 -1.197680
v -1.248662 -0.014733 -1.197680
v 1.247646 -0.313826 -0.855486
v 1.247646 -0.014733 -0.855486
v 1.247646 -0.313826 -1.197680
v 1.247646 -0.014733 -1.197680
v -1.248662 -0.313826 -1.882068
v -1.248662 -0.014733 -1.882068
v -1.248662 -0.313826 -2.224262
v -1.248662 -0.014733 -2.224262
v 1.247646 -0.313826 -1.882068
v 1.247646 -0.014733 -1.882068
v 1.247646 -0.313826 -2.224262
v 1.247646 -0.014733 -2.224262
v -1.248662 -0.313826 2.224258
v -1.248662 -0.014733 2.224258
v -1.248662 -0.313826 1.882064
v -1.248662 -0.014733 1.882064
v 1.247646 -0.313826 2.224258
v 1.247646 -0.014733 2.224258
v 1.247646 -0.313826 1.882064
v 1.247646 -0.014733 1.882064
v -1.248662 0.014606 0.171095
v -1.248662 0.313698 0.171095
v -1.248662 0.014606 -0.171099
v -1.248662 0.313698 -0.171099
v 1.247646 0.014606 0.171095
v 1.247646 0.313698 0.171095
v 1.247646 0.014606 -0.171099
v 1.247646 0.313698 -0.171099
v -1.248662 0.014606 -0.855486
v -1.248662 0.313698 -0.855486
v -1.248662 0.014606 -1.197680
v -1.248662 0.313698 -1.197680
v 1.247646 0.014606 -0.855486
v 1.247646 0.313698 -0.855486
v 1.247646 0.014606 -1.197680
v 1.247646 0.313698 -1.197680
v -1.248662 0.014606 -1.882068
v -1.248662 0.313698 -1.882068
v -1.248662 0.014606 -2.224262
v -1.248662 0.313698 -2.224262
v 1.247646 0.014606 -1.882068
v 1.247646 0.313698 -1.882068
v 1.247646 0.014606 -2.224262
v 1.247646 0.313698 -2.224262
v -1.248662 0.014606 1.197679
v -1.248662 0.313698 1.197679
v -1.248662 0.014606 0.855485
v -1.248662 0.313698 0.855485
v 1.247646 0.014606 1.197679
v 1.247646 0.313698 1.197679
v 1.247646 0.014606 0.855485
v 1.247646 0.313698 0.855485
v -1.248662 0.014606 2.224258
v -1.248662 0.313698 2.224258
v -1.248662 0.014606 1.882064
v -1.248662 0.313698 1.882064
v 1.247646 0.014606 2.224258
v 1.247646 0.313698 2.224258
v 1.247646 0.014606 1.882064
v 1.247646 0.313698 1.882064
v 0.878447 -0.015119 2.244026
v 1.229656 -0.015119 2.244026
v 0.878447 -0.015119 -2.244029
v 1.229656 -0.015119 -2.244029
v 0.878447 0.015293 -2.244029
v 0.878447 0.015293 2.244026
v 1.229656 0.015293 2.244026
v 1.229656 0.015293 -2.244029
v 0.176028 -0.015119 2.244026
v 0.527237 -0.015119 2.244026
v 0.176028 -0.015119 -2.244029
v 0.527237 -0.015119 -2.244029
v 0.176028 0.015293 -2.244029
v 0.176028 0.015293 2.244026
v 0.527237 0.015293 2.244026
v 0.527237 0.015293 -2.244029
v -0.526391 -0.015119 2.244026
v -0.175182 -0.015119 2.244026
v -0.526391 -0.015119 -2.244029
v -0.175182 -0.015119 -2.244029
v -0.526391 0.015293 -2.244029
v -0.526391 0.015293 2.244026
v -0.175182 0.015293 2.244026
v -0.175182 0.015293 -2.244029
v -1.228810 -0.015119 2.244026
v -0.877601 -0.015119 2.244026
v -1.228810 -0.015119 -2.244029
v -0.877601 -0.015119 -2.244029
v -1.228810 0.015293 -2.244029
v -1.228810 0.015293 2.244026
v -0.877601 0.015293 2.244026
v -0.877601 0.015293 -2.244029
v 0.878447 -0.343652 2.244026
v 1.229656 -0.343652 2.244026
v 0.878447 -0.343652 -2.244029
v 1.229656 -0.343652 -2.244029
v 0.878447 -0.313240 -2.244029
v 0.878447 -0.313240 2.244026
v 1.229656 -0.313240 2.244026
v 1.229656 -0.313240 -2.244029
v 0.176028 -0.343652 2.244026
v 0.527237 -0.343652 2.244026
v 0.176028 -0.343652 -2.244029
v 0.527237 -0.343652 -2.244029
v 0.176028 -0.313240 -2.244029
v 0.176028 -0.313240 2.244026
v 0.527237 -0.313240 2.244026
v 0.527237 -0.313240 -2.244029
v -0.526391 -0.343652 2.244026
v -0.175182 -0.343652 2.244026
v -0.526391 -0.343652 -2.244029
v -0.175182 -0.343652 -2.244029
v -0.526391 -0.313240 -2.244029
v -0.526391 -0.313240 2.244026
v -0.175182 -0.313240 2.244026
v -0.175182 -0.313240 -2.244029
v -1.228810 -0.343652 2.244026
v -0.877601 -0.343652 2.244026
v -1.228810 -0.343652 -2.244029
v -0.877601 -0.343652 -2.244029
v -1.228810 -0.313240 -2.244029
v -1.228810 -0.313240 2.244026
v -0.877601 -0.313240 2.244026
v -0.877601 -0.313240 -2.244029
v 0.878447 0.313313 2.244026
v 1.229656 0.313313 2.244026
v 0.878447 0.313313 -2.244029
v 1.229656 0.313313 -2.244029
v 0.878447 0.343724 -2.244029
v 0.878447 0.343724 2.244026
v 1.229656 0.343724 2.244026
v 1.229656 0.343724 -2.244029
v 0.176028 0.313313 2.244026
v 0.527237 0.313313 2.244026
v 0.176028 0.313313 -2.244029
v 0.527237 0.313313 -2.244029
v 0.176028 0.343724 -2.244029
v 0.176028 0.343724 2.244026
v 0.527237 0.343724 2.244026
v 0.527237 0.343724 -2.244029
v -0.526391 0.313313 2.244026
v -0.175182 0.313313 2.244026
v -0.526391 0.313313 -2.244029
v -0.175182 0.313313 -2.244029
v -0.526391 0.343724 -2.244029
v -0.526391 0.343724 2.244026
v -0.175182 0.343724 2.244026
v -0.175182 0.343724 -2.244029
v -1.228810 0.313313 2.244026
v -0.877601 0.313313 2.244026
v -1.228810 0.313313 -2.244029
v -0.877601 0.313313 -2.244029
v -1.228810 0.343724 -2.244029
v -1.228810 0.343724 2.244026
v -0.877601 0.343724 2.244026
v -0.877601 0.343724 -2.244029
vt 0.375000 0.000000
vt 0.625000 0.000000
vt 0.625000 0.250000
vt 0.375000 0.250000
vt 0.625000 0.500000
vt 0.375000 0.500000
vt 0.625000 0.750000
vt 0.375000 0.750000
vt 0.625000 1.000000
vt 0.375000 1.000000
vt 0.125000 0.500000
vt 0.125000 0.750000
vt 0.875000 0.500000
vt 0.875000 0.750000
vt 0.375000 0.000000
vt 0.625000 0.000000
vt 0.625000 0.250000
vt 0.375000 0.250000
vt 0.625000 0.500000
vt 0.375000 0.500000
vt 0.625000 0.750000
vt 0.375000 0.750000
vt 0.625000 1.000000
vt 0.375000 1.000000
vt 0.125000 0.500000
vt 0.125000 0.750000
vt 0.875000 0.500000
vt 0.875000 0.750000
vt 0.375000 0.000000
vt 0.625000 0.000000
vt 0.625000 0.250000
vt 0.375000 0.250000
vt 0.625000 0.500000
vt 0.375000 0.500000
vt 0.625000 0.750000
vt 0.375000 0.750000
vt 0.625000 1.000000
vt 0.375000 1.000000
vt 0.125000 0.500000
vt 0.125000 0.750000
vt 0.875000 0.500000
vt 0.875000 0.750000
vt 0.375000 0.000000
vt 0.625000 0.000000
vt 0.625000 0.250000
vt 0.375000 0.250000
vt 0.625000 0.500000
vt 0.375000 0.500000
vt 0.625000 0.750000
vt 0.375000 0.750000
vt 0.625000 1.000000
vt 0.375000 1.000000
vt 0.125000 0.500000
vt 0.125000 0.750000
vt 0.875000 0.500000
vt 0.875000 0.750000
vt 0.375000 0.000000
vt 0.625000 0.000000
vt 0.625000 0.250000
vt 0.375000 0.250000
vt 0.625000 0.500000
vt 0.375000 0.500000
vt 0.625000 0.750000
vt 0.375000 0.750000
vt 0.625000 1.000000
vt 0.375000 1.000000
vt 0.125000 0.500000
vt 0.125000 0.750000
vt 0.875000 0.500000
vt 0.875000 0.750000
vt 0.375000 0.000000
vt 0.625000 0.000000
vt 0.625000 0.250000
vt 0.375000 0.250000
vt 0.625000 0.500000
vt 0.375000 0.500000
vt 0.625000 0.750000
vt 0.375000 0.750000
vt 0.625000 1.000000
vt 0.375000 1.000000
vt 0.125000 0.500000
vt 0.125000 0.750000
vt 0.875000 0.500000
vt 0.875000 0.750000
vt 0.375000 0.000000
vt 0.625000 0.000000
vt 0.625000 0.250000
vt 0.375000 0.250000
vt 0.625000 0.500000
vt 0.375000 0.500000
vt 0.625000 0.750000
vt 0.375000 0.750000
vt 0.625000 1.000000
vt 0.375000 1.000000
vt 0.125000 0.500000
vt 0.125000 0.750000
vt 0.875000 0.500000
vt 0.875000 0.750000
vt 0.375000 0.000000
vt 0.625000 0.000000
vt 0.625000 0.250000
vt 0.375000 0.250000
vt 0.625000 0.500000
vt 0.375000 0.500000
vt 0.625000 0.750000
vt 0.375000 0.750000
vt 0.625000 1.000000
vt 0.375000 1.000000
vt 0.125000 0.500000
vt 0.125000 0.750000
vt 0.875000 0.500000
vt 0.875000 0.750000
vt 0.375000 0.000000
vt 0.625000 0.000000
vt 0.625000 0.250000
vt 0.375000 0.250000
vt 0.625000 0.500000
vt 0.375000 0.500000
vt 0.625000 0.750000
vt 0.375000 0.750000
vt 0.625000 1.000000
vt 0.375000 1.000000
vt 0.125000 0.500000
vt 0.125000 0.750000
vt 0.875000 0.500000
vt 0.875000 0.750000
vt 0.375000 0.000000
vt 0.625000 0.000000
vt 0.625000 0.250000
vt 0.375000 0.250000
vt 0.625000 0.500000
vt 0.375000 0.500000
vt 0.625000 0.750000
vt 0.375000 0.750000
vt 0.625000 1.000000
vt 0.375000 1.000000
vt 0.125000 0.500000
vt 0.125000 0.750000
vt 0.875000 0.500000
vt 0.875000 0.750000
vt 0.000000 0.000000
vt 0.000000 1.000000
vt 1.000000 1.000000
vt 1.000000 0.000000
vt 0.000000 0.000000
vt 1.000000 0.000000
vt 1.000000 1.000000
vt 0.000000 1.000000
vt 0.000000 0.000000
vt 0.000000 1.000000
vt 1.000000 1.000000
vt 1.000000 0.000000
vt 0.000000 0.000000
vt 1.000000 0.000000
vt 1.000000 1.000000
vt 0.000000 1.000000
vt 0.000000 0.000000
vt 0.000000 1.000000
vt 1.000000 1.000000
vt 1.000000 0.000000
vt 0.000000 0.000000
vt 1.000000 0.000000
vt 1.000000 1.000000
vt 0.000000 1.000000
vt 0.000000 0.000000
vt 0.000000 1.000000
vt 1.000000 1.000000
vt 1.000000 0.000000
vt 0.000000 0.000000
vt 1.000000 0.000000
vt 1.000000 1.000000
vt 0.000000 1.000000
vt 0.000000 0.000000
vt 0.000000 1.000000
vt 1.000000 1.000000
vt 1.000000 0.000000
vt 0.000000 0.000000
vt 1.000000 0.000000
vt 1.000000 1.000000
vt 0.000000 1.000000
vt 0.000000 0.000000
vt 0.000000 1.000000
vt 1.000000 1.000000
vt 1.000000 0.000000
vt 0.000000 0.000000
vt 1.000000 0.000000
vt 1.000000 1.000000
vt 0.000000 1.000000
vt 0.000000 0.000000
vt 0.000000 1.000000
vt 1.000000 1.000000
vt 1.000000 0.000000
vt 0.000000 0.000000
vt 1.000000 0.000000
vt 1.000000 1.000000
vt 0.000000 1.000000
vt 0.000000 0.000000
vt 0.000000 1.000000
vt 1.000000 1.000000
vt 1.000000 0.000000
vt 0.000000 0.000000
vt 1.000000 0.000000
vt 1.000000 1.000000
vt 0.000000 1.000000
vt 0.000000 0.000000
vt 0.000000 1.000000
vt 1.000000 1.000000
vt 1.000000 0.000000
vt 0.000000 0.000000
vt 1.000000 0.000000
vt 1.000000 1.000000
vt 0.000000 1.000000
vt 0.000000 0.000000
vt 0.000000 1.000000
vt 1.000000 1.000000
vt 1.000000 0.000000
vt 0.000000 0.000000
vt 1.000000 0.000000
vt 1.000000 1.000000
vt 0.000000 1.000000
vt 0.000000 0.000000
vt 0.000000 1.000000
vt 1.000000 1.000000
vt 1.000000 0.000000
vt 0.000000 0.000000
vt 1.000000 0.000000
vt 1.000000 1.000000
vt 0.000000 1.000000
vt 0.000000 0.000000
vt 0.000000 1.000000
vt 1.000000 1.000000
vt 1.000000 0.000000
vt 0.000000 0.000000
vt 1.000000 0.000000
vt 1.000000 1.000000
vt 0.000000 1.000000
vn -1.0000 0.0000 0.0000
vn 0.0000 0.0000 -1.0000
vn 1.0000 0.0000 0.0000
vn 0.0000 0.0000 1.0000
vn 0.0000 -1.0000 0.0000
vn 0.0000 1.0000 0.0000
usemtl None
s off
f 1/1/1 2/2/1 4/3/1 3/4/1
f 3/4/2 4/3/2 8/5/2 7/6/2
f 7/6/3 8/5/3 6/7/3 5/8/3
f 5/8/4 6/7/4 2/9/4 1/10/4
f 3/11/5 7/6/5 5/8/5 1/12/5
f 8/5/6 4/13/6 2/14/6 6/7/6
f 9/15/1 10/16/1 12/17/1 11/18/1
f 11/18/2 12/17/2 16/19/2 15/20/2
f 15/20/3 16/19/3 14/21/3 13/22/3
f 13/22/4 14/21/4 10/23/4 9/24/4
f 11/25/5 15/20/5 13/22/5 9/26/5
f 16/19/6 12/27/6 10/28/6 14/21/6
f 17/29/1 18/30/1 20/31/1 19/32/1
f 19/32/2 20/31/2 24/33/2 23/34/2
f 23/34/3 24/33/3 22/35/3 21/36/3
f 21/36/4 22/35/4 18/37/4 17/38/4
f 19/39/5 23/34/5 21/36/5 17/40/5
f 24/33/6 20/41/6 18/42/6 22/35/6
f 25/43/1 26/44/1 28/45/1 27/46/1
f 27/46/2 28/45/2 32/47/2 31/48/2
f 31/48/3 32/47/3 30/49/3 29/50/3
f 29/50/4 30/49/4 26/51/4 25/52/4
f 27/53/5 31/48/5 29/50/5 25/54/5
f 32/47/6 28/55/6 26/56/6 30/49/6
f 33/57/1 34/58/1 36/59/1 35/60/1
f 35/60/2 36/59/2 40/61/2 39/62/2
f 39/62/3 40/61/3 38/63/3 37/64/3
f 37/64/4 38/63/4 34/65/4 33/66/4
f 35/67/5 39/62/5 37/64/5 33/68/5
f 40/61/6 36/69/6 34/70/6 38/63/6
f 41/71/1 42/72/1 44/73/1 43/74/1
f 43/74/2 44/73/2 48/75/2 47/76/2
f 47/76/3 48/75/3 46/77/3 45/78/3
f 45/78/4 46/77/4 42/79/4 41/80/4
f 43/81/5 47/76/5 45/78/5 41/82/5
f 48/75/6 44/83/6 42/84/6 46/77/6
f 49/85/1 50/86/1 52/87/1 51/88/1
f 51/88/2 52/87/2 56/89/2 55/90/2
f 55/90/3 56/89/3 54/91/3 53/92/3
f 53/92/4 54/91/4 50/93/4 49/94/4
f 51/95/5 55/90/5 53/92/5 49/96/5
f 56/89/6 52/97/6 50/98/6 54/91/6
f 57/99/1 58/100/1 60/101/1 59/102/1
f 59/102/2 60/101/2 64/103/2 63/104/2
f 63/104/3 64/103/3 62/105/3 61/106/3
f 61/106/4 62/105/4 58/107/4 57/108/4
f 59/109/5 63/104/5 61/106/5 57/110/5
f 64/103/6 60/111/6 58/112/6 62/105/6
f 65/113/1 66/114/1 68/115/1 67/116/1
f 67/116/2 68/115/2 72/117/2 71/118/2
f 71/118/3 72/117/3 70/119/3 69/120/3
f 69/120/4 70/119/4 66/121/4 65/122/4
f 67/123/5 71/118/5 69/120/5 65/124/5
f 72/117/6 68/125/6 66/126/6 70/119/6
f 73/127/1 74/128/1 76/129/1 75/130/1
f 75/130/2 76/129/2 80/131/2 79/132/2
f 79/132/3 80/131/3 78/133/3 77/134/3
f 77/134/4 78/133/4 74/135/4 73/136/4
f 75/137/5 79/132/5 77/134/5 73/138/5
f 80/131/6 76/139/6 74/140/6 78/133/6
f 81/141/5 83/142/5 84/143/5 82/144/5
f 86/145/6 87/146/6 88/147/6 85/148/6
f 82/144/3 84/143/3 88/147/3 87/146/3
f 83/142/1 81/141/1 86/145/1 85/148/1
f 84/143/2 83/142/2 85/148/2 88/147/2
f 81/141/4 82/144/4 87/146/4 86/145/4
f 89/149/5 91/150/5 92/151/5 90/152/5
f 94/153/6 95/154/6 96/155/6 93/156/6
f 90/152/3 92/151/3 96/155/3 95/154/3
f 91/150/1 89/149/1 94/153/1 93/156/1
f 92/151/2 91/150/2 93/156/2 96/155/2
f 89/149/4 90/152/4 95/154/4 94/153/4
f 97/157/5 99/158/5 100/159/5 98/160/5
f 102/161/6 103/162/6 104/163/6 101/164/6
f 98/160/3 100/159/3 104/163/3 103/162/3
f 99/158/1 97/157/1 102/161/1 101/164/1
f 100/159/2 99/158/2 101/164/2 104/163/2
f 97/157/4 98/160/4 103/162/4 102/161/4
f 105/165/5 107/166/5 108/167/5 106/168/5
f 110/169/6 111/170/6 112/171/6 109/172/6
f 106/168/3 108/167/3 112/171/3 111/170/3
f 107/166/1 105/165/1 110/169/1 109/172/1
f 108/167/2 107/166/2 109/172/2 112/171/2
f 105/165/4 106/168/4 111/170/4 110/169/4
f 113/173/5 115/174/5 116/175/5 114/176/5
f 118/177/6 119/178/6 120/179/6 117/180/6
f 114/176/3 116/175/3 120/179/3 119/178/3
f 115/174/1 113/173/1 118/177/1 117/180/1
f 116/175/2 115/174/2 117/180/2 120/179/2
f 113/173/4 114/176/4 119/178/4 118/177/4
f 121/181/5 123/182/5 124/183/5 122/184/5
f 126/185/6 127/186/6 128/187/6 125/188/6
f 122/184/3 124/183/3 128/187/3 127/186/3
f 123/182/1 121/181/1 126/185/1 125/188/1
f 124/183/2 123/182/2 125/188/2 128/187/2
f 121/181/4 122/184/4 127/186/4 126/185/4
f 129/189/5 131/190/5 132/191/5 130/192/5
f 134/193/6 135/194/6 136/195/6 133/196/6
f 130/192/3 132/191/3 136/195/3 135/194/3
f 131/190/1 129/189/1 134/193/1 133/196/1
f 132/191/2 131/190/2 133/196/2 136/195/2
f 129/189/4 130/192/4 135/194/4 134/193/4
f 137/197/5 139/198/5 140/199/5 138/200/5
f 142/201/6 143/202/6 144/203/6 141/204/6
f 138/200/3 140/199/3 144/203/3 143/202/3
f 139/198/1 137/197/1 142/201/1 141/204/1
f 140/199/2 139/198/2 141/204/2 144/203/2
f 137/197/4 138/200/4 143/202/4 142/201/4
f 145/205/5 147/206/5 148/207/5 146/208/5
f 150/209/6 151/210/6 152/211/6 149/212/6
f 146/208/3 148/207/3 152/211/3 151/210/3
f 147/206/1 145/205/1 150/209/1 149/212/1
f 148/207/2 147/206/2 149/212/2 152/211/2
f 145/205/4 146/208/4 151/210/4 150/209/4
f 153/213/5 155/214/5 156/215/5 154/216/5
f 158/217/6 159/218/6 160/219/6 157/220/6
f 154/216/3 156/215/3 160/219/3 159/218/3
f 155/214/1 153/213/1 158/217/1 157/220/1
f 156/215/2 155/214/2 157/220/2 160/219/2
f 153/213/4 154/216/4 159/218/4 158/217/4
f 161/221/5 163/222/5 164/223/5 162/224/5
f 166/225/6 167/226/6 168/227/6 165/228/6
f 162/224/3 164/223/3 168/227/3 167/226/3
f 163/222/1 161/221/1 166/225/1 165/228/1
f 164/223/2 163/222/2 165/228/2 168/227/2
f 161/221/4 162/224/4 167/226/4 166/225/4
f 169/229/5 171/230/5 172/231/5 170/232/5
f 174/233/6 175/234/6 176/235/6 173/236/6
f 170/232/3 172/231/3 176/235/3 175/234/3
f 171/230/1 169/229/1 174/233/1 173/236/1
f 172/231/2 171/230/2 173/236/2 176/235/2
f 169/229/4 170/232/4 175/234/4 174/233/4
