# Blender v2.80 (sub 75) OBJ File: ''
# www.blender.org
mtllib PAPEIS 1.mtl
o Plane.017_Plane.032
v -0.371209 0.000000 0.253932
v 0.371209 0.000000 0.253932
v -0.371209 0.000000 -0.253932
v 0.371209 0.000000 -0.253932
v -0.371209 0.009752 -0.253932
v -0.371209 0.009752 0.253932
v 0.371209 0.009752 0.253932
v 0.371209 0.009752 -0.253932
v -0.376742 -0.128486 0.245648
v 0.365495 -0.128486 0.262094
v -0.365492 -0.128486 -0.262092
v 0.376745 -0.128486 -0.245646
v -0.365492 -0.118734 -0.262092
v -0.376742 -0.118734 0.245648
v 0.365495 -0.118734 0.262094
v 0.376745 -0.118734 -0.245646
v -0.387646 -0.118617 0.228052
v 0.353047 -0.118617 0.278634
v -0.353045 -0.118617 -0.278632
v 0.387649 -0.118617 -0.228050
v -0.353045 -0.108865 -0.278632
v -0.387646 -0.108865 0.228052
v 0.353047 -0.108865 0.278634
v 0.387649 -0.108865 -0.228050
v -0.421040 -0.108751 0.158122
v 0.299975 -0.108751 0.335103
v -0.299973 -0.108751 -0.335101
v 0.421043 -0.108751 -0.158120
v -0.299973 -0.098999 -0.335101
v -0.421040 -0.098999 0.158122
v 0.299975 -0.098999 0.335103
v 0.421043 -0.098999 -0.158120
v -0.368460 -0.098839 0.257905
v 0.373916 -0.098839 0.249932
v -0.373913 -0.098839 -0.249930
v 0.368462 -0.098839 -0.257903
v -0.373913 -0.089087 -0.249930
v -0.368460 -0.089087 0.257905
v 0.373916 -0.089087 0.249932
v 0.368462 -0.089087 -0.257903
v -0.399730 -0.088975 0.206139
v 0.337004 -0.088975 0.297838
v -0.337002 -0.088975 -0.297836
v 0.399733 -0.088975 -0.206137
v -0.337002 -0.079223 -0.297836
v -0.399730 -0.079223 0.206139
v 0.337004 -0.079223 0.297838
v 0.399733 -0.079223 -0.206137
v -0.394515 -0.079137 0.215952
v 0.344260 -0.079137 0.289421
v -0.344257 -0.079137 -0.289419
v 0.394517 -0.079137 -0.215950
v -0.344257 -0.069386 -0.289419
v -0.394515 -0.069386 0.215952
v 0.344260 -0.069386 0.289421
v 0.394517 -0.069386 -0.215950
v -0.404627 -0.069224 0.196352
v 0.329658 -0.069224 0.305950
v -0.329655 -0.069224 -0.305948
v 0.404630 -0.069224 -0.196350
v -0.329655 -0.059473 -0.305948
v -0.404627 -0.059473 0.196352
v 0.329658 -0.059473 0.305950
v 0.404630 -0.059473 -0.196350
v -0.376742 -0.059262 0.245648
v 0.365495 -0.059262 0.262094
v -0.365492 -0.059262 -0.262092
v 0.376745 -0.059262 -0.245646
v -0.365492 -0.049510 -0.262092
v -0.376742 -0.049510 0.245648
v 0.365495 -0.049510 0.262094
v 0.376745 -0.049510 -0.245646
v -0.387646 -0.049393 0.228052
v 0.353047 -0.049393 0.278634
v -0.353045 -0.049393 -0.278632
v 0.387649 -0.049393 -0.228050
v -0.353045 -0.039641 -0.278632
v -0.387646 -0.039641 0.228052
v 0.353047 -0.039641 0.278634
v 0.387649 -0.039641 -0.228050
v -0.396839 -0.039527 0.211651
v 0.341094 -0.039527 0.293146
v -0.341091 -0.039527 -0.293144
v 0.396841 -0.039527 -0.211650
v -0.341091 -0.029775 -0.293144
v -0.396839 -0.029775 0.211651
v 0.341094 -0.029775 0.293146
v 0.396841 -0.029775 -0.211650
v -0.383440 -0.029615 0.235055
v 0.358050 -0.029615 0.272176
v -0.358047 -0.029615 -0.272174
v 0.383443 -0.029615 -0.235054
v -0.358047 -0.019863 -0.272174
v -0.383440 -0.019863 0.235055
v 0.358050 -0.019863 0.272176
v 0.383443 -0.019863 -0.235054
v -0.399730 -0.019751 0.206139
v 0.337004 -0.019751 0.297838
v -0.337002 -0.019751 -0.297836
v 0.399733 -0.019751 -0.206137
v -0.337002 -0.009999 -0.297836
v -0.399730 -0.009999 0.206139
v 0.337004 -0.009999 0.297838
v 0.399733 -0.009999 -0.206137
v -0.394515 -0.009913 0.215952
v 0.344260 -0.009913 0.289421
v -0.344257 -0.009913 -0.289419
v 0.394517 -0.009913 -0.215950
v -0.344257 -0.000162 -0.289419
v -0.394515 -0.000162 0.215952
v 0.344260 -0.000162 0.289421
v 0.394517 -0.000162 -0.215950
vt 0.000000 0.000000
vt 0.000000 1.000000
vt 1.000000 1.000000
vt 1.000000 0.000000
vt 0.000000 0.000000
vt 1.000000 0.000000
vt 1.000000 1.000000
vt 0.000000 1.000000
vt 0.000000 0.000000
vt 0.000000 1.000000
vt 1.000000 1.000000
vt 1.000000 0.000000
vt 0.000000 0.000000
vt 1.000000 0.000000
vt 1.000000 1.000000
vt 0.000000 1.000000
vt 0.000000 0.000000
vt 0.000000 1.000000
vt 1.000000 1.000000
vt 1.000000 0.000000
vt 0.000000 0.000000
vt 1.000000 0.000000
vt 1.000000 1.000000
vt 0.000000 1.000000
vt 0.000000 0.000000
vt 0.000000 1.000000
vt 1.000000 1.000000
vt 1.000000 0.000000
vt 0.000000 0.000000
vt 1.000000 0.000000
vt 1.000000 1.000000
vt 0.000000 1.000000
vt 0.000000 0.000000
vt 0.000000 1.000000
vt 1.000000 1.000000
vt 1.000000 0.000000
vt 0.000000 0.000000
vt 1.000000 0.000000
vt 1.000000 1.000000
vt 0.000000 1.000000
vt 0.000000 0.000000
vt 0.000000 1.000000
vt 1.000000 1.000000
vt 1.000000 0.000000
vt 0.000000 0.000000
vt 1.000000 0.000000
vt 1.000000 1.000000
vt 0.000000 1.000000
vt 0.000000 0.000000
vt 0.000000 1.000000
vt 1.000000 1.000000
vt 1.000000 0.000000
vt 0.000000 0.000000
vt 1.000000 0.000000
vt 1.000000 1.000000
vt 0.000000 1.000000
vt 0.000000 0.000000
vt 0.000000 1.000000
vt 1.000000 1.000000
vt 1.000000 0.000000
vt 0.000000 0.000000
vt 1.000000 0.000000
vt 1.000000 1.000000
vt 0.000000 1.000000
vt 0.000000 0.000000
vt 0.000000 1.000000
vt 1.000000 1.000000
vt 1.000000 0.000000
vt 0.000000 0.000000
vt 1.000000 0.000000
vt 1.000000 1.000000
vt 0.000000 1.000000
vt 0.000000 0.000000
vt 0.000000 1.000000
vt 1.000000 1.000000
vt 1.000000 0.000000
vt 0.000000 0.000000
vt 1.000000 0.000000
vt 1.000000 1.000000
vt 0.000000 1.000000
vt 0.000000 0.000000
vt 0.000000 1.000000
vt 1.000000 1.000000
vt 1.000000 0.000000
vt 0.000000 0.000000
vt 1.000000 0.000000
vt 1.000000 1.000000
vt 0.000000 1.000000
vt 0.000000 0.000000
vt 0.000000 1.000000
vt 1.000000 1.000000
vt 1.000000 0.000000
vt 0.000000 0.000000
vt 1.000000 0.000000
vt 1.000000 1.000000
vt 0.000000 1.000000
vt 0.000000 0.000000
vt 0.000000 1.000000
vt 1.000000 1.000000
vt 1.000000 0.000000
vt 0.000000 0.000000
vt 1.000000 0.000000
vt 1.000000 1.000000
vt 0.000000 1.000000
vt 0.000000 0.000000
vt 0.000000 1.000000
vt 1.000000 1.000000
vt 1.000000 0.000000
vt 0.000000 0.000000
vt 1.000000 0.000000
vt 1.000000 1.000000
vt 0.000000 1.000000
vn 0.0000 -1.0000 0.0000
vn 0.0000 1.0000 0.0000
vn 1.0000 0.0000 0.0000
vn -1.0000 0.0000 0.0000
vn 0.0000 0.0000 -1.0000
vn 0.0000 0.0000 1.0000
vn 0.9998 0.0000 0.0222
vn -0.9998 0.0000 -0.0222
vn 0.0222 0.0000 -0.9998
vn -0.0222 0.0000 0.9998
vn 0.9977 0.0000 0.0681
vn -0.9977 0.0000 -0.0681
vn 0.0681 0.0000 -0.9977
vn -0.0681 0.0000 0.9977
vn 0.9712 0.0000 0.2384
vn -0.9712 0.0000 -0.2384
vn 0.2384 0.0000 -0.9712
vn -0.2384 0.0000 0.9712
vn 0.9999 0.0000 -0.0107
vn -0.9999 0.0000 0.0107
vn -0.0107 0.0000 -0.9999
vn 0.0107 0.0000 0.9999
vn 0.9923 0.0000 0.1235
vn -0.9923 0.0000 -0.1235
vn 0.1235 0.0000 -0.9923
vn -0.1235 0.0000 0.9923
vn 0.9951 0.0000 0.0990
vn -0.9951 0.0000 -0.0990
vn 0.0990 0.0000 -0.9951
vn -0.0990 0.0000 0.9951
vn 0.9890 0.0000 0.1476
vn -0.9890 0.0000 -0.1476
vn 0.1476 0.0000 -0.9890
vn -0.1476 0.0000 0.9890
vn 0.9940 0.0000 0.1098
vn -0.9940 0.0000 -0.1098
vn 0.1098 0.0000 -0.9940
vn -0.1098 0.0000 0.9940
vn 0.9987 0.0000 0.0500
vn -0.9987 0.0000 -0.0500
vn 0.0500 0.0000 -0.9987
vn -0.0500 0.0000 0.9987
usemtl None
s off
f 1/1/1 3/2/1 4/3/1 2/4/1
f 6/5/2 7/6/2 8/7/2 5/8/2
f 2/4/3 4/3/3 8/7/3 7/6/3
f 3/2/4 1/1/4 6/5/4 5/8/4
f 4/3/5 3/2/5 5/8/5 8/7/5
f 1/1/6 2/4/6 7/6/6 6/5/6
f 9/9/1 11/10/1 12/11/1 10/12/1
f 14/13/2 15/14/2 16/15/2 13/16/2
f 10/12/7 12/11/7 16/15/7 15/14/7
f 11/10/8 9/9/8 14/13/8 13/16/8
f 12/11/9 11/10/9 13/16/9 16/15/9
f 9/9/10 10/12/10 15/14/10 14/13/10
f 17/17/1 19/18/1 20/19/1 18/20/1
f 22/21/2 23/22/2 24/23/2 21/24/2
f 18/20/11 20/19/11 24/23/11 23/22/11
f 19/18/12 17/17/12 22/21/12 21/24/12
f 20/19/13 19/18/13 21/24/13 24/23/13
f 17/17/14 18/20/14 23/22/14 22/21/14
f 25/25/1 27/26/1 28/27/1 26/28/1
f 30/29/2 31/30/2 32/31/2 29/32/2
f 26/28/15 28/27/15 32/31/15 31/30/15
f 27/26/16 25/25/16 30/29/16 29/32/16
f 28/27/17 27/26/17 29/32/17 32/31/17
f 25/25/18 26/28/18 31/30/18 30/29/18
f 33/33/1 35/34/1 36/35/1 34/36/1
f 38/37/2 39/38/2 40/39/2 37/40/2
f 34/36/19 36/35/19 40/39/19 39/38/19
f 35/34/20 33/33/20 38/37/20 37/40/20
f 36/35/21 35/34/21 37/40/21 40/39/21
f 33/33/22 34/36/22 39/38/22 38/37/22
f 41/41/1 43/42/1 44/43/1 42/44/1
f 46/45/2 47/46/2 48/47/2 45/48/2
f 42/44/23 44/43/23 48/47/23 47/46/23
f 43/42/24 41/41/24 46/45/24 45/48/24
f 44/43/25 43/42/25 45/48/25 48/47/25
f 41/41/26 42/44/26 47/46/26 46/45/26
f 49/49/1 51/50/1 52/51/1 50/52/1
f 54/53/2 55/54/2 56/55/2 53/56/2
f 50/52/27 52/51/27 56/55/27 55/54/27
f 51/50/28 49/49/28 54/53/28 53/56/28
f 52/51/29 51/50/29 53/56/29 56/55/29
f 49/49/30 50/52/30 55/54/30 54/53/30
f 57/57/1 59/58/1 60/59/1 58/60/1
f 62/61/2 63/62/2 64/63/2 61/64/2
f 58/60/31 60/59/31 64/63/31 63/62/31
f 59/58/32 57/57/32 62/61/32 61/64/32
f 60/59/33 59/58/33 61/64/33 64/63/33
f 57/57/34 58/60/34 63/62/34 62/61/34
f 65/65/1 67/66/1 68/67/1 66/68/1
f 70/69/2 71/70/2 72/71/2 69/72/2
f 66/68/7 68/67/7 72/71/7 71/70/7
f 67/66/8 65/65/8 70/69/8 69/72/8
f 68/67/9 67/66/9 69/72/9 72/71/9
f 65/65/10 66/68/10 71/70/10 70/69/10
f 73/73/1 75/74/1 76/75/1 74/76/1
f 78/77/2 79/78/2 80/79/2 77/80/2
f 74/76/11 76/75/11 80/79/11 79/78/11
f 75/74/12 73/73/12 78/77/12 77/80/12
f 76/75/13 75/74/13 77/80/13 80/79/13
f 73/73/14 74/76/14 79/78/14 78/77/14
f 81/81/1 83/82/1 84/83/1 82/84/1
f 86/85/2 87/86/2 88/87/2 85/88/2
f 82/84/35 84/83/35 88/87/35 87/86/35
f 83/82/36 81/81/36 86/85/36 85/88/36
f 84/83/37 83/82/37 85/88/37 88/87/37
f 81/81/38 82/84/38 87/86/38 86/85/38
f 89/89/1 91/90/1 92/91/1 90/92/1
f 94/93/2 95/94/2 96/95/2 93/96/2
f 90/92/39 92/91/39 96/95/39 95/94/39
f 91/90/40 89/89/40 94/93/40 93/96/40
f 92/91/41 91/90/41 93/96/41 96/95/41
f 89/89/42 90/92/42 95/94/42 94/93/42
f 97/97/1 99/98/1 100/99/1 98/100/1
f 102/101/2 103/102/2 104/103/2 101/104/2
f 98/100/23 100/99/23 104/103/23 103/102/23
f 99/98/24 97/97/24 102/101/24 101/104/24
f 100/99/25 99/98/25 101/104/25 104/103/25
f 97/97/26 98/100/26 103/102/26 102/101/26
f 105/105/1 107/106/1 108/107/1 106/108/1
f 110/109/2 111/110/2 112/111/2 109/112/2
f 106/108/27 108/107/27 112/111/27 111/110/27
f 107/106/28 105/105/28 110/109/28 109/112/28
f 108/107/29 107/106/29 109/112/29 112/111/29
f 105/105/30 106/108/30 111/110/30 110/109/30
