# Blender v2.80 (sub 75) OBJ File: ''
# www.blender.org
mtllib PORTA 1.mtl
o porta_Cube.001
v 0.029971 0.301941 0.038203
v 0.030014 0.301941 -0.038169
v 0.029971 0.362136 0.038203
v 0.030014 0.362136 -0.038169
v -0.040237 0.301941 0.038163
v -0.040194 0.301941 -0.038209
v -0.040237 0.362136 0.038163
v -0.040194 0.362136 -0.038209
v 0.010192 0.362136 0.038192
v 0.010235 0.362136 -0.038180
v 0.010192 0.301941 0.038192
v 0.010235 0.301941 -0.038180
v 0.029971 -0.364838 0.038203
v 0.030014 -0.364838 -0.038169
v 0.010235 -0.364838 -0.038180
v 0.010192 -0.364838 0.038192
v 0.030014 -0.299239 -0.038169
v 0.010235 -0.299239 -0.038180
v 0.010192 -0.299239 0.038192
v 0.029971 -0.299239 0.038203
v -0.040175 -0.364838 -0.038209
v -0.040219 -0.364838 0.038163
v -0.040175 -0.299239 -0.038209
v -0.040219 -0.299239 0.038163
v -0.118832 2.176335 -0.630408
v -0.118832 -2.214627 -0.630408
v -0.120737 2.176335 2.730490
v -0.120737 -2.214627 2.730490
v -0.120673 2.082854 2.617277
v -0.118896 2.082854 -0.517194
v -0.118896 -2.199389 -0.517195
v -0.120673 -2.199389 2.617276
v 0.043888 2.082854 2.617370
v 0.045665 2.082854 -0.517101
v 0.045665 -2.199389 -0.517101
v 0.043888 -2.199389 2.617370
v 0.043824 2.176335 2.730584
v 0.045729 2.176335 -0.630315
v 0.045729 -2.214627 -0.630315
v 0.043824 -2.214627 2.730583
v -0.025681 2.082854 2.617331
v -0.023905 2.082854 -0.517141
v -0.023905 -2.199389 -0.517141
v -0.025681 -2.199389 2.617330
vt 0.375000 0.000000
vt 0.625000 0.000000
vt 0.625000 0.250000
vt 0.375000 0.250000
vt 0.375000 0.320430
vt 0.625000 0.320430
vt 0.625000 0.500000
vt 0.375000 0.500000
vt 0.625000 0.750000
vt 0.375000 0.750000
vt 0.804570 0.750000
vt 0.875000 0.750000
vt 0.875000 0.750000
vt 0.804570 0.750000
vt 0.195430 0.500000
vt 0.195430 0.750000
vt 0.804570 0.500000
vt 0.875000 0.500000
vt 0.875000 0.750000
vt 0.804570 0.750000
vt 0.125000 0.500000
vt 0.125000 0.750000
vt 0.625000 0.929570
vt 0.375000 0.929570
vt 0.375000 0.929570
vt 0.625000 0.929570
vt 0.625000 1.000000
vt 0.375000 1.000000
vt 0.804570 0.750000
vt 0.804570 0.750000
vt 0.125000 0.750000
vt 0.195430 0.750000
vt 0.195430 0.750000
vt 0.125000 0.750000
vt 0.625000 0.000000
vt 0.375000 0.000000
vt 0.375000 0.000000
vt 0.625000 0.000000
vt 0.625000 0.929570
vt 0.375000 0.929570
vt 0.375000 0.929570
vt 0.625000 0.929570
vt 0.625000 0.929570
vt 0.375000 0.929570
vt 0.195430 0.750000
vt 0.195430 0.750000
vt 0.033686 0.033686
vt 0.966314 0.033686
vt 0.966314 0.966314
vt 0.033686 0.966314
vt 0.000000 1.000000
vt 0.000000 0.000000
vt 1.000000 0.000000
vt 1.000000 1.000000
vt 0.966314 0.966314
vt 0.966314 0.966314
vt 0.033686 0.966314
vt 0.033686 0.966314
vt 0.033686 0.033686
vt 0.000000 0.000000
vt 0.000000 1.000000
vt 0.966314 0.033686
vt 1.000000 0.000000
vt 1.000000 1.000000
vt 0.033686 0.033686
vt 0.966314 0.033686
vn 1.0000 0.0000 0.0006
vn 0.0000 1.0000 0.0000
vn -1.0000 0.0000 -0.0006
vn 0.0006 -0.0000 -1.0000
vn -0.0006 0.0000 1.0000
vn 0.0000 -1.0000 0.0000
usemtl (null)
s off
f 1/1/1 2/2/1 4/3/1 3/4/1
f 9/5/2 10/6/2 8/7/2 7/8/2
f 7/8/3 8/7/3 6/9/3 5/10/3
f 18/11/4 17/12/4 14/13/4 15/14/4
f 9/15/5 7/8/5 5/10/5 11/16/5
f 10/17/4 4/18/4 2/19/4 12/20/4
f 8/7/4 10/17/4 12/20/4 6/9/4
f 3/21/5 9/15/5 11/16/5 1/22/5
f 5/10/6 6/9/6 12/23/6 11/24/6
f 3/4/2 4/3/2 10/6/2 9/5/2
f 16/25/6 15/26/6 14/27/6 13/28/6
f 18/11/4 15/14/4 21/29/4 23/30/4
f 20/31/5 19/32/5 16/33/5 13/34/5
f 17/35/1 20/36/1 13/37/1 14/38/1
f 2/2/1 1/1/1 20/36/1 17/35/1
f 1/22/5 11/16/5 19/32/5 20/31/5
f 11/24/3 12/23/3 18/39/3 19/40/3
f 12/20/4 2/19/4 17/12/4 18/11/4
f 24/41/3 23/42/3 21/43/3 22/44/3
f 15/26/6 16/25/6 22/44/6 21/43/6
f 19/40/2 18/39/2 23/42/2 24/41/2
f 16/33/5 19/32/5 24/45/5 22/46/5
f 30/47/3 31/48/3 32/49/3 29/50/3
f 30/47/3 29/50/3 27/51/3 25/52/3
f 31/48/3 30/47/3 25/52/3 26/53/3
f 32/49/3 31/48/3 26/53/3 28/54/3
f 29/50/3 32/49/3 28/54/3 27/51/3
f 36/55/4 44/56/4 41/57/4 33/58/4
f 34/59/1 38/60/1 37/61/1 33/58/1
f 35/62/1 39/63/1 38/60/1 34/59/1
f 36/55/1 40/64/1 39/63/1 35/62/1
f 33/58/1 37/61/1 40/64/1 36/55/1
f 26/53/6 39/63/6 40/64/6 28/54/6
f 27/51/2 37/61/2 38/60/2 25/52/2
f 28/54/5 40/64/5 37/61/5 27/51/5
f 25/52/4 38/60/4 39/63/4 26/53/4
f 42/65/1 41/57/1 44/56/1 43/66/1
f 34/59/5 42/65/5 43/66/5 35/62/5
f 35/62/2 43/66/2 44/56/2 36/55/2
f 33/58/6 41/57/6 42/65/6 34/59/6
