# Blender v2.80 (sub 75) OBJ File: ''
# www.blender.org
mtllib MURO 3 .mtl
o PAREDE_CIMA.007_Plane.002
v 2.298211 -8.290397 3.022668
v 2.298210 -8.290397 -3.022663
v -2.298211 -8.290397 3.022665
v -2.298211 -8.290397 -3.022666
v -2.298211 2.416811 3.022665
v 2.298211 2.416811 3.022668
v 2.298210 2.416811 -3.022663
v -2.298211 2.416811 -3.022666
v 2.826223 2.316226 3.717122
v 2.826223 2.316226 -3.717120
v -2.826222 2.316226 3.717119
v -2.826222 2.316226 -3.717123
v -2.826222 3.557358 3.717119
v 2.826223 3.557358 3.717122
v 2.826223 3.557358 -3.717120
v -2.826222 3.557358 -3.717123
vt 0.000000 0.000000
vt 0.000000 1.000000
vt 1.000000 1.000000
vt 1.000000 0.000000
vt 0.000000 0.000000
vt 1.000000 0.000000
vt 1.000000 1.000000
vt 0.000000 1.000000
vt 0.000000 0.000000
vt 0.000000 1.000000
vt 1.000000 1.000000
vt 1.000000 0.000000
vt 0.000000 0.000000
vt 1.000000 0.000000
vt 1.000000 1.000000
vt 0.000000 1.000000
vn 0.0000 -1.0000 0.0000
vn 0.0000 1.0000 -0.0000
vn 0.0000 0.0000 -1.0000
vn -0.0000 0.0000 1.0000
vn -1.0000 0.0000 0.0000
vn 1.0000 0.0000 -0.0000
usemtl None
s off
f 1/1/1 3/2/1 4/3/1 2/4/1
f 6/5/2 7/6/2 8/7/2 5/8/2
f 2/4/3 4/3/3 8/7/3 7/6/3
f 3/2/4 1/1/4 6/5/4 5/8/4
f 4/3/5 3/2/5 5/8/5 8/7/5
f 1/1/6 2/4/6 7/6/6 6/5/6
f 9/9/1 11/10/1 12/11/1 10/12/1
f 14/13/2 15/14/2 16/15/2 13/16/2
f 10/12/3 12/11/3 16/15/3 15/14/3
f 11/10/4 9/9/4 14/13/4 13/16/4
f 12/11/5 11/10/5 13/16/5 16/15/5
f 9/9/6 10/12/6 15/14/6 14/13/6
