# Blender v2.80 (sub 75) OBJ File: ''
# www.blender.org
mtllib MURO 4 .mtl
o PAREDE_CIMA.006_Plane.061
v 14.805207 2.910511 6.476800
v 13.787796 2.910511 -4.418194
v -31.949162 2.910511 6.476800
v -31.949162 2.910511 -4.418194
v -31.949162 3.906189 6.476800
v 14.805207 3.906189 6.476800
v 13.787796 3.906189 -4.418194
v -31.949162 3.906189 -4.418194
v 14.805207 2.910511 0.538942
v -31.949162 2.910511 -0.241073
v 14.805207 3.906189 0.538942
v -31.949162 3.906189 -0.241073
v 26.590900 2.910511 0.538942
v 26.590900 2.910511 -4.418194
v 26.590900 3.906189 0.538942
v 26.590900 3.906189 -4.418194
v 13.787797 -9.807174 5.703568
v 13.787797 -9.807174 -3.739917
v -31.216623 -9.807174 5.703568
v -31.216623 -9.807174 -3.739917
v -31.216623 2.990475 5.703568
v 13.787797 2.990475 5.703568
v 13.787797 2.990475 -3.739917
v -31.216623 2.990475 -3.739917
v 13.787797 -9.807174 -0.241071
v -31.216623 -9.807174 -0.241072
v 13.787797 2.990475 -0.241071
v -31.216623 2.990475 -0.241072
v 25.776972 -9.807174 -0.241071
v 25.776972 -9.807174 -3.739917
v 25.776972 2.990475 -0.241071
v 25.776972 2.990475 -3.739917
vt 0.629496 0.000000
vt 0.629496 1.000000
vt 1.000000 1.000000
vt 1.000000 0.000000
vt 0.629496 0.000000
vt 1.000000 0.000000
vt 1.000000 1.000000
vt 0.629496 1.000000
vt 0.000000 1.000000
vt 0.000000 0.000000
vt 0.000000 0.000000
vt 0.000000 1.000000
vt 1.000000 0.000000
vt 0.629496 0.000000
vt 1.000000 0.000000
vt 0.629496 0.000000
vt 0.629496 0.000000
vt 0.629496 1.000000
vt 1.000000 1.000000
vt 1.000000 0.000000
vt 0.629496 0.000000
vt 1.000000 0.000000
vt 1.000000 1.000000
vt 0.629496 1.000000
vt 0.000000 1.000000
vt 0.000000 0.000000
vt 0.000000 0.000000
vt 0.000000 1.000000
vt 1.000000 0.000000
vt 0.629496 0.000000
vt 1.000000 0.000000
vt 0.629496 0.000000
vn 0.0000 -1.0000 0.0000
vn 0.0000 1.0000 0.0000
vn 0.0000 0.0000 -1.0000
vn -0.0000 0.0000 1.0000
vn -1.0000 0.0000 0.0000
vn 1.0000 0.0000 0.0000
usemtl None
s off
f 9/1/1 10/2/1 4/3/1 2/4/1
f 11/5/2 7/6/2 8/7/2 12/8/2
f 2/4/3 4/3/3 8/7/3 7/6/3
f 3/9/4 1/10/4 6/11/4 5/12/4
f 10/2/5 3/9/5 5/12/5 12/8/5
f 9/1/1 2/4/1 14/13/1 13/14/1
f 1/10/6 9/1/6 11/5/6 6/11/6
f 4/3/5 10/2/5 12/8/5 8/7/5
f 6/11/2 11/5/2 12/8/2 5/12/2
f 1/10/1 3/9/1 10/2/1 9/1/1
f 13/14/6 14/13/6 16/15/6 15/16/6
f 2/4/3 7/6/3 16/15/3 14/13/3
f 7/6/2 11/5/2 15/16/2 16/15/2
f 11/5/4 9/1/4 13/14/4 15/16/4
f 25/17/1 26/18/1 20/19/1 18/20/1
f 27/21/2 23/22/2 24/23/2 28/24/2
f 18/20/3 20/19/3 24/23/3 23/22/3
f 19/25/4 17/26/4 22/27/4 21/28/4
f 26/18/5 19/25/5 21/28/5 28/24/5
f 25/17/1 18/20/1 30/29/1 29/30/1
f 17/26/6 25/17/6 27/21/6 22/27/6
f 20/19/5 26/18/5 28/24/5 24/23/5
f 22/27/2 27/21/2 28/24/2 21/28/2
f 17/26/1 19/25/1 26/18/1 25/17/1
f 29/30/6 30/29/6 32/31/6 31/32/6
f 18/20/3 23/22/3 32/31/3 30/29/3
f 23/22/2 27/21/2 31/32/2 32/31/2
f 27/21/4 25/17/4 29/30/4 31/32/4
