# Blender v2.80 (sub 75) OBJ File: ''
# www.blender.org
mtllib CHAO ARQUIVOS .mtl
o CHAO.001_Plane.010
v 6.442420 0.246781 -7.717456
v -5.018129 0.246781 -7.725344
v 6.433666 0.246781 7.725344
v -5.026883 0.246781 7.717455
v 6.433666 -0.246781 7.725344
v 6.442420 -0.246781 -7.717456
v -5.018129 -0.246781 -7.725344
v -5.026883 -0.246781 7.717455
v 6.435854 0.246781 3.864644
v 6.438043 0.246781 0.003944
v 6.440231 0.246781 -3.856756
v 2.963238 0.246781 -7.719428
v -0.515944 0.246781 -7.721400
v -4.645941 0.246781 -7.723372
v -5.020318 0.246781 -3.864644
v -5.022506 0.246781 -0.003944
v -5.024694 0.246781 3.856756
v -4.654694 0.246781 7.719428
v -0.524697 0.246781 7.721400
v 2.954485 0.246781 7.723372
v 6.435854 -0.246781 3.864644
v 6.438043 -0.246781 0.003944
v 6.440231 -0.246781 -3.856756
v 2.963238 -0.246781 -7.719428
v -0.515944 -0.246781 -7.721400
v -4.645941 -0.246781 -7.723372
v -5.020318 -0.246781 -3.864644
v -5.022506 -0.246781 -0.003944
v -5.024694 -0.246781 3.856756
v -4.654694 -0.246781 7.719428
v -0.524697 -0.246781 7.721400
v 2.954485 -0.246781 7.723372
v -5.026883 0.123391 7.717455
v -5.026883 0.000000 7.717455
v -5.026883 -0.123391 7.717455
v -5.018129 -0.123391 -7.725344
v -5.018129 0.000000 -7.725344
v -5.018129 0.123391 -7.725344
v 6.442420 0.123391 -7.717456
v 6.442420 0.000000 -7.717456
v 6.442420 -0.123391 -7.717456
v 6.433666 -0.123391 7.725344
v 6.433666 0.000000 7.725344
v 6.433666 0.123391 7.725344
v 2.963238 0.123391 -7.719428
v 2.963238 0.000000 -7.719428
v 2.963238 -0.123391 -7.719428
v -0.515944 0.123391 -7.721400
v -0.515944 0.000000 -7.721400
v -0.515944 -0.123391 -7.721400
v -4.645941 0.123391 -7.723372
v -4.645941 0.000000 -7.723372
v -4.645941 -0.123391 -7.723372
v -4.654694 0.123391 7.719428
v -4.654694 0.000000 7.719428
v -4.654694 -0.123391 7.719428
v -0.524697 0.123391 7.721400
v -0.524697 0.000000 7.721400
v -0.524697 -0.123391 7.721400
v 2.954485 0.123391 7.723372
v 2.954485 0.000000 7.723372
v 2.954485 -0.123391 7.723372
v 6.435854 0.123391 3.864644
v 6.435854 0.000000 3.864644
v 6.435854 -0.123391 3.864644
v 6.438043 0.123391 0.003944
v 6.438043 0.000000 0.003944
v 6.438043 -0.123391 0.003944
v 6.440231 0.123391 -3.856756
v 6.440231 0.000000 -3.856756
v 6.440231 -0.123391 -3.856756
v -5.020318 0.123391 -3.864644
v -5.020318 0.000000 -3.864644
v -5.020318 -0.123391 -3.864644
v -5.022506 0.123391 -0.003944
v -5.022506 0.000000 -0.003944
v -5.022506 -0.123391 -0.003944
v -5.024694 0.123391 3.856756
v -5.024694 0.000000 3.856756
v -5.024694 -0.123391 3.856756
v 2.961050 -0.246781 -3.858728
v 2.958861 -0.246781 0.001972
v 2.956673 -0.246781 3.862672
v -0.518132 -0.246781 -3.860700
v -0.520320 -0.246781 0.000000
v -0.522508 -0.246781 3.860700
v -4.648129 -0.246781 -3.862672
v -4.650318 -0.246781 -0.001972
v -4.652506 -0.246781 3.858728
v 2.961050 0.246781 -3.858728
v -0.518132 0.246781 -3.860700
v -4.648129 0.246781 -3.862672
v 2.958861 0.246781 0.001972
v -0.520320 0.246781 0.000000
v -4.650318 0.246781 -0.001972
v 2.956673 0.246781 3.862672
v -0.522508 0.246781 3.860700
v -4.652506 0.246781 3.858728
vt 0.750000 0.750000
vt 1.000000 0.750000
vt 1.000000 1.000000
vt 0.750000 1.000000
vt 0.750000 0.750000
vt 0.750000 1.000000
vt 1.000000 1.000000
vt 1.000000 0.750000
vt 1.000000 0.750000
vt 1.000000 1.000000
vt 0.000000 0.250000
vt 0.000000 0.250000
vt 0.000000 0.000000
vt 0.000000 0.000000
vt 0.250000 1.000000
vt 0.250000 1.000000
vt 0.000000 1.000000
vt 0.000000 1.000000
vt 0.750000 0.000000
vt 0.750000 0.000000
vt 1.000000 0.000000
vt 1.000000 0.000000
vt 0.250000 0.000000
vt 0.250000 0.000000
vt 0.500000 0.000000
vt 0.500000 0.000000
vt 0.000000 0.000000
vt 0.000000 0.000000
vt 0.250000 0.000000
vt 0.250000 0.000000
vt 0.000000 0.000000
vt 0.250000 0.000000
vt 0.500000 0.000000
vt 0.500000 0.000000
vt 0.500000 0.000000
vt 0.750000 0.000000
vt 0.750000 0.000000
vt 0.750000 0.000000
vt 1.000000 0.000000
vt 1.000000 0.000000
vt 1.000000 0.000000
vt 0.750000 1.000000
vt 0.500000 1.000000
vt 0.500000 1.000000
vt 1.000000 1.000000
vt 0.750000 1.000000
vt 1.000000 1.000000
vt 0.750000 1.000000
vt 0.500000 1.000000
vt 0.500000 1.000000
vt 0.500000 1.000000
vt 0.250000 1.000000
vt 0.250000 1.000000
vt 0.250000 1.000000
vt 0.000000 1.000000
vt 0.000000 1.000000
vt 0.000000 1.000000
vt 0.000000 0.750000
vt 0.000000 0.750000
vt 0.000000 0.500000
vt 0.000000 0.500000
vt 0.000000 0.750000
vt 0.000000 0.750000
vt 0.000000 0.750000
vt 0.000000 0.500000
vt 0.000000 0.500000
vt 0.000000 0.500000
vt 0.000000 0.250000
vt 0.000000 0.250000
vt 0.000000 0.250000
vt 1.000000 0.250000
vt 1.000000 0.250000
vt 1.000000 0.500000
vt 1.000000 0.500000
vt 1.000000 0.250000
vt 1.000000 0.250000
vt 1.000000 0.250000
vt 1.000000 0.500000
vt 1.000000 0.500000
vt 1.000000 0.500000
vt 1.000000 0.750000
vt 1.000000 0.750000
vt 0.250000 0.750000
vt 0.500000 0.750000
vt 0.250000 0.250000
vt 0.250000 0.500000
vt 0.500000 0.250000
vt 0.500000 0.500000
vt 0.750000 0.250000
vt 0.750000 0.500000
vt 0.750000 0.250000
vt 0.750000 0.500000
vt 0.250000 0.250000
vt 0.500000 0.250000
vt 0.250000 0.500000
vt 0.500000 0.500000
vt 0.250000 0.750000
vt 0.500000 0.750000
vn 0.0000 1.0000 0.0000
vn 0.0000 -1.0000 -0.0000
vn -1.0000 0.0000 -0.0006
vn 1.0000 0.0000 0.0006
vn -0.0006 0.0000 1.0000
vn 0.0053 0.0000 -1.0000
vn 0.0006 0.0000 -1.0000
vn 0.0005 0.0000 -1.0000
vn -0.0053 0.0000 1.0000
vn -0.0005 0.0000 1.0000
usemtl (null)
s off
f 98/1/1 17/2/1 4/3/1 18/4/1
f 89/5/2 30/6/2 8/7/2 29/8/2
f 80/9/3 29/8/3 8/7/3 35/10/3
f 71/11/4 23/12/4 6/13/4 41/14/4
f 62/15/5 32/16/5 5/17/5 42/18/5
f 53/19/6 26/20/6 7/21/6 36/22/6
f 41/14/7 6/13/7 24/23/7 47/24/7
f 47/24/7 24/23/7 25/25/7 50/26/7
f 50/26/8 25/25/8 26/20/8 53/19/8
f 1/27/7 39/28/7 45/29/7 12/30/7
f 39/28/7 40/31/7 46/32/7 45/29/7
f 40/31/7 41/14/7 47/24/7 46/32/7
f 12/30/7 45/29/7 48/33/7 13/34/7
f 45/29/7 46/32/7 49/35/7 48/33/7
f 46/32/7 47/24/7 50/26/7 49/35/7
f 13/34/8 48/33/8 51/36/8 14/37/8
f 48/33/8 49/35/8 52/38/8 51/36/8
f 49/35/8 50/26/8 53/19/8 52/38/8
f 14/37/6 51/36/6 38/39/6 2/40/6
f 51/36/6 52/38/6 37/41/6 38/39/6
f 52/38/6 53/19/6 36/22/6 37/41/6
f 35/10/9 8/7/9 30/6/9 56/42/9
f 56/42/10 30/6/10 31/43/10 59/44/10
f 59/44/5 31/43/5 32/16/5 62/15/5
f 4/3/9 33/45/9 54/46/9 18/4/9
f 33/45/9 34/47/9 55/48/9 54/46/9
f 34/47/9 35/10/9 56/42/9 55/48/9
f 18/4/10 54/46/10 57/49/10 19/50/10
f 54/46/10 55/48/10 58/51/10 57/49/10
f 55/48/10 56/42/10 59/44/10 58/51/10
f 19/50/5 57/49/5 60/52/5 20/53/5
f 57/49/5 58/51/5 61/54/5 60/52/5
f 58/51/5 59/44/5 62/15/5 61/54/5
f 20/53/5 60/52/5 44/55/5 3/56/5
f 60/52/5 61/54/5 43/57/5 44/55/5
f 61/54/5 62/15/5 42/18/5 43/57/5
f 42/18/4 5/17/4 21/58/4 65/59/4
f 65/59/4 21/58/4 22/60/4 68/61/4
f 68/61/4 22/60/4 23/12/4 71/11/4
f 3/56/4 44/55/4 63/62/4 9/63/4
f 44/55/4 43/57/4 64/64/4 63/62/4
f 43/57/4 42/18/4 65/59/4 64/64/4
f 9/63/4 63/62/4 66/65/4 10/66/4
f 63/62/4 64/64/4 67/67/4 66/65/4
f 64/64/4 65/59/4 68/61/4 67/67/4
f 10/66/4 66/65/4 69/68/4 11/69/4
f 66/65/4 67/67/4 70/70/4 69/68/4
f 67/67/4 68/61/4 71/11/4 70/70/4
f 11/69/4 69/68/4 39/28/4 1/27/4
f 69/68/4 70/70/4 40/31/4 39/28/4
f 70/70/4 71/11/4 41/14/4 40/31/4
f 36/22/3 7/21/3 27/71/3 74/72/3
f 74/72/3 27/71/3 28/73/3 77/74/3
f 77/74/3 28/73/3 29/8/3 80/9/3
f 2/40/3 38/39/3 72/75/3 15/76/3
f 38/39/3 37/41/3 73/77/3 72/75/3
f 37/41/3 36/22/3 74/72/3 73/77/3
f 15/76/3 72/75/3 75/78/3 16/79/3
f 72/75/3 73/77/3 76/80/3 75/78/3
f 73/77/3 74/72/3 77/74/3 76/80/3
f 16/79/3 75/78/3 78/81/3 17/2/3
f 75/78/3 76/80/3 79/82/3 78/81/3
f 76/80/3 77/74/3 80/9/3 79/82/3
f 17/2/3 78/81/3 33/45/3 4/3/3
f 78/81/3 79/82/3 34/47/3 33/45/3
f 79/82/3 80/9/3 35/10/3 34/47/3
f 21/58/2 5/17/2 32/16/2 83/83/2
f 83/83/2 32/16/2 31/43/2 86/84/2
f 86/84/2 31/43/2 30/6/2 89/5/2
f 6/13/2 23/12/2 81/85/2 24/23/2
f 23/12/2 22/60/2 82/86/2 81/85/2
f 22/60/2 21/58/2 83/83/2 82/86/2
f 24/23/2 81/85/2 84/87/2 25/25/2
f 81/85/2 82/86/2 85/88/2 84/87/2
f 82/86/2 83/83/2 86/84/2 85/88/2
f 25/25/2 84/87/2 87/89/2 26/20/2
f 84/87/2 85/88/2 88/90/2 87/89/2
f 85/88/2 86/84/2 89/5/2 88/90/2
f 26/20/2 87/89/2 27/71/2 7/21/2
f 87/89/2 88/90/2 28/73/2 27/71/2
f 88/90/2 89/5/2 29/8/2 28/73/2
f 14/37/1 2/40/1 15/76/1 92/91/1
f 92/91/1 15/76/1 16/79/1 95/92/1
f 95/92/1 16/79/1 17/2/1 98/1/1
f 1/27/1 12/30/1 90/93/1 11/69/1
f 12/30/1 13/34/1 91/94/1 90/93/1
f 13/34/1 14/37/1 92/91/1 91/94/1
f 11/69/1 90/93/1 93/95/1 10/66/1
f 90/93/1 91/94/1 94/96/1 93/95/1
f 91/94/1 92/91/1 95/92/1 94/96/1
f 10/66/1 93/95/1 96/97/1 9/63/1
f 93/95/1 94/96/1 97/98/1 96/97/1
f 94/96/1 95/92/1 98/1/1 97/98/1
f 9/63/1 96/97/1 20/53/1 3/56/1
f 96/97/1 97/98/1 19/50/1 20/53/1
f 97/98/1 98/1/1 18/4/1 19/50/1
