# Blender v2.80 (sub 75) OBJ File: ''
# www.blender.org
mtllib PAREDE CIMA ARQUIVOS .mtl
o PAREDE_FUNDO.002_Plane.013
v 5.327198 3.079961 -0.243511
v 5.327198 -3.091841 -0.243511
v -5.650517 3.079960 -0.250833
v -5.650517 -3.091842 -0.250833
v -5.650796 3.079960 0.242729
v 5.326918 3.079961 0.250051
v 5.326918 -3.091841 0.250051
v -5.650796 -3.091842 0.242729
v -4.604662 3.079960 -0.249323
v -2.416159 3.079960 -0.247890
v 0.113399 3.079960 -0.246457
v 2.642956 3.079960 -0.245024
v 5.327198 1.845600 -0.243511
v 5.327198 0.611240 -0.243511
v 5.327198 -0.623120 -0.243511
v 5.327198 -1.857481 -0.243511
v 2.424459 -3.091842 -0.245024
v 0.113399 -3.091842 -0.246457
v -2.416159 -3.091842 -0.247890
v -4.604663 -3.091842 -0.249323
v -5.650517 -1.857482 -0.250833
v -5.650517 -0.623122 -0.250833
v -5.650517 0.611239 -0.250833
v -5.650517 1.845599 -0.250833
v -4.604941 3.079960 0.244239
v -2.416439 3.079960 0.245672
v 0.113119 3.079960 0.247105
v 2.642677 3.079960 0.248538
v 5.326918 1.845600 0.250051
v 5.326918 0.611240 0.250051
v 5.326918 -0.623120 0.250051
v 5.326918 -1.857481 0.250051
v 2.424180 -3.091842 0.248538
v 0.113119 -3.091842 0.247105
v -2.416439 -3.091842 0.245672
v -4.604942 -3.091842 0.244239
v -5.650796 -1.857482 0.242729
v -5.650796 -0.623122 0.242729
v -5.650796 0.611239 0.242729
v -5.650796 1.845599 0.242729
v -5.650572 -3.091842 -0.152121
v -5.650628 -3.091842 -0.053408
v -5.650684 -3.091842 0.045304
v -5.650740 -3.091842 0.144017
v 5.326974 -3.091841 0.151339
v 5.327030 -3.091841 0.052627
v 5.327085 -3.091841 -0.046086
v 5.327142 -3.091841 -0.144798
v 5.327142 3.079961 -0.144798
v 5.327085 3.079961 -0.046086
v 5.327030 3.079961 0.052627
v 5.326974 3.079961 0.151339
v -5.650740 3.079960 0.144017
v -5.650684 3.079960 0.045304
v -5.650628 3.079960 -0.053408
v -5.650572 3.079960 -0.152121
v 5.327142 1.845600 -0.144798
v 5.327085 1.845600 -0.046086
v 5.327030 1.845600 0.052627
v 5.326974 1.845600 0.151339
v 5.327142 0.611240 -0.144798
v 5.327085 0.611240 -0.046086
v 5.327030 0.611240 0.052627
v 5.326974 0.611240 0.151339
v 5.327142 -0.623120 -0.144798
v 5.327085 -0.623120 -0.046086
v 5.327030 -0.623120 0.052627
v 5.326974 -0.623120 0.151339
v 5.327142 -1.857481 -0.144798
v 5.327085 -1.857481 -0.046086
v 5.327030 -1.857481 0.052627
v 5.326974 -1.857481 0.151339
v -5.650572 -1.857482 -0.152121
v -5.650628 -1.857482 -0.053408
v -5.650684 -1.857482 0.045304
v -5.650740 -1.857482 0.144017
v -5.650572 -0.623122 -0.152121
v -5.650628 -0.623122 -0.053408
v -5.650684 -0.623122 0.045304
v -5.650740 -0.623122 0.144017
v -5.650572 0.611239 -0.152121
v -5.650628 0.611239 -0.053408
v -5.650684 0.611239 0.045304
v -5.650740 0.611239 0.144017
v -5.650572 1.845599 -0.152121
v -5.650628 1.845599 -0.053408
v -5.650684 1.845599 0.045304
v -5.650740 1.845599 0.144017
v -4.604718 3.079960 -0.150611
v -4.604774 3.079960 -0.051898
v -4.604830 3.079960 0.046814
v -4.604886 3.079960 0.145526
v -2.416215 3.079960 -0.149178
v -2.416271 3.079960 -0.050466
v -2.416327 3.079960 0.048247
v -2.416383 3.079960 0.146959
v 0.113343 3.079960 -0.147745
v 0.113287 3.079960 -0.049033
v 0.113231 3.079960 0.049680
v 0.113175 3.079960 0.148392
v 2.642900 3.079960 -0.146312
v 2.642845 3.079960 -0.047600
v 2.642789 3.079960 0.051113
v 2.642733 3.079960 0.149825
v 2.424403 -3.091842 -0.146312
v 2.424347 -3.091842 -0.047600
v 2.424292 -3.091842 0.051113
v 2.424236 -3.091842 0.149825
v 0.113343 -3.091842 -0.147745
v 0.113287 -3.091842 -0.049033
v 0.113231 -3.091842 0.049680
v 0.113175 -3.091842 0.148392
v -2.416215 -3.091842 -0.149178
v -2.416271 -3.091842 -0.050466
v -2.416327 -3.091842 0.048247
v -2.416383 -3.091842 0.146959
v -4.604719 -3.091842 -0.150611
v -4.604774 -3.091842 -0.051898
v -4.604831 -3.091842 0.046814
v -4.604887 -3.091842 0.145526
v 2.642676 1.845600 0.248538
v 0.113119 1.845600 0.247105
v -2.416439 1.845600 0.245672
v -4.604942 1.845600 0.244239
v 2.424180 0.866696 0.248538
v 0.113119 0.611240 0.247105
v -2.416439 0.611239 0.245672
v -4.604942 0.611239 0.244239
v 2.424180 -0.623121 0.248538
v 0.113119 -0.623121 0.247105
v -2.416439 -0.623121 0.245672
v -4.604942 -0.623121 0.244239
v 2.424180 -1.857481 0.248538
v 0.113119 -1.857481 0.247105
v -2.416439 -1.857482 0.245672
v -4.604942 -1.857482 0.244239
v 2.642956 1.845600 -0.245024
v 2.424459 0.866696 -0.245024
v 2.424459 -0.623121 -0.245024
v 2.424459 -1.857481 -0.245024
v 0.113399 1.845600 -0.246457
v 0.113399 0.611240 -0.246457
v 0.113399 -0.623121 -0.246457
v 0.113399 -1.857481 -0.246457
v -2.416159 1.845600 -0.247890
v -2.416159 0.611239 -0.247890
v -2.416159 -0.623121 -0.247890
v -2.416159 -1.857482 -0.247890
v -4.604662 1.845600 -0.249323
v -4.604662 0.611239 -0.249323
v -4.604662 -0.623121 -0.249323
v -4.604662 -1.857482 -0.249323
v 4.809314 3.079961 -0.243803
v 4.809035 3.079961 0.249759
v 5.091696 -3.091841 -0.243803
v 5.091416 -3.091841 0.249759
v 4.809258 3.079961 -0.145090
v 4.809202 3.079961 -0.046378
v 4.809146 3.079961 0.052335
v 4.809091 3.079961 0.151047
v 5.091640 -3.091841 -0.145090
v 5.091584 -3.091841 -0.046378
v 5.091528 -3.091841 0.052335
v 5.091472 -3.091841 0.151047
v 4.809035 1.845600 0.249759
v 5.091416 0.866696 0.249759
v 5.091416 -0.623121 0.249759
v 5.091416 -1.857481 0.249759
v 4.809314 1.845600 -0.243803
v 5.091696 0.866696 -0.243803
v 5.091696 -0.623121 -0.243803
v 5.091696 -1.857481 -0.243803
vt 0.800000 0.800000
vt 1.000000 0.800000
vt 1.000000 1.000000
vt 0.800000 1.000000
vt 0.800000 0.800000
vt 0.800000 1.000000
vt 1.000000 1.000000
vt 1.000000 0.800000
vt 1.000000 0.800000
vt 1.000000 1.000000
vt 0.000000 0.038587
vt 0.000000 0.038587
vt 0.000000 0.000000
vt 0.000000 0.000000
vt 0.200000 1.000000
vt 0.200000 1.000000
vt 0.000000 1.000000
vt 0.000000 1.000000
vt 0.800000 0.000000
vt 0.800000 0.000000
vt 1.000000 0.000000
vt 1.000000 0.000000
vt 0.200000 0.000000
vt 0.200000 0.000000
vt 0.400000 0.000000
vt 0.400000 0.000000
vt 0.600000 0.000000
vt 0.600000 0.000000
vt 0.000000 0.000000
vt 0.000000 0.000000
vt 0.200000 0.000000
vt 0.200000 0.000000
vt 0.000000 0.000000
vt 0.200000 0.000000
vt 0.000000 0.000000
vt 0.200000 0.000000
vt 0.400000 0.000000
vt 0.400000 0.000000
vt 0.400000 0.000000
vt 0.400000 0.000000
vt 0.600000 0.000000
vt 0.600000 0.000000
vt 0.600000 0.000000
vt 0.600000 0.000000
vt 0.800000 0.000000
vt 0.800000 0.000000
vt 0.800000 0.000000
vt 0.800000 0.000000
vt 1.000000 0.000000
vt 1.000000 0.000000
vt 1.000000 0.000000
vt 1.000000 0.000000
vt 0.800000 1.000000
vt 0.600000 1.000000
vt 0.600000 1.000000
vt 0.400000 1.000000
vt 0.400000 1.000000
vt 1.000000 1.000000
vt 0.800000 1.000000
vt 1.000000 1.000000
vt 0.800000 1.000000
vt 1.000000 1.000000
vt 0.800000 1.000000
vt 0.600000 1.000000
vt 0.600000 1.000000
vt 0.600000 1.000000
vt 0.600000 1.000000
vt 0.400000 1.000000
vt 0.400000 1.000000
vt 0.400000 1.000000
vt 0.400000 1.000000
vt 0.200000 1.000000
vt 0.200000 1.000000
vt 0.200000 1.000000
vt 0.200000 1.000000
vt 0.000000 1.000000
vt 0.000000 1.000000
vt 0.000000 1.000000
vt 0.000000 1.000000
vt 0.000000 0.800000
vt 0.000000 0.800000
vt 0.000000 0.600000
vt 0.000000 0.600000
vt 0.000000 0.400000
vt 0.000000 0.400000
vt 0.000000 0.200000
vt 0.000000 0.200000
vt 0.000000 0.800000
vt 0.000000 0.800000
vt 0.000000 0.800000
vt 0.000000 0.800000
vt 0.000000 0.600000
vt 0.000000 0.600000
vt 0.000000 0.600000
vt 0.000000 0.600000
vt 0.000000 0.400000
vt 0.000000 0.400000
vt 0.000000 0.400000
vt 0.000000 0.400000
vt 0.000000 0.200000
vt 0.000000 0.200000
vt 0.000000 0.200000
vt 0.000000 0.200000
vt 0.000000 0.038587
vt 0.000000 0.038587
vt 0.000000 0.038587
vt 0.000000 0.038587
vt 1.000000 0.200000
vt 1.000000 0.200000
vt 1.000000 0.400000
vt 1.000000 0.400000
vt 1.000000 0.600000
vt 1.000000 0.600000
vt 1.000000 0.200000
vt 1.000000 0.200000
vt 1.000000 0.400000
vt 1.000000 0.400000
vt 1.000000 0.200000
vt 1.000000 0.400000
vt 1.000000 0.200000
vt 1.000000 0.400000
vt 1.000000 0.600000
vt 1.000000 0.600000
vt 1.000000 0.600000
vt 1.000000 0.600000
vt 1.000000 0.800000
vt 1.000000 0.800000
vt 1.000000 0.800000
vt 0.200000 0.800000
vt 0.400000 0.800000
vt 0.600000 0.800000
vt 0.200000 0.200000
vt 0.200000 0.038587
vt 0.200000 0.400000
vt 0.200000 0.600000
vt 0.400000 0.200000
vt 0.400000 0.038587
vt 0.400000 0.400000
vt 0.400000 0.600000
vt 0.600000 0.400000
vt 0.600000 0.200000
vt 0.600000 0.600000
vt 0.800000 0.400000
vt 0.800000 0.200000
vt 0.800000 0.600000
vt 0.800000 0.200000
vt 0.800000 0.400000
vt 0.800000 0.600000
vt 0.200000 0.038587
vt 0.200000 0.200000
vt 0.400000 0.038587
vt 0.400000 0.200000
vt 0.200000 0.400000
vt 0.400000 0.400000
vt 0.600000 0.200000
vt 0.600000 0.400000
vt 0.200000 0.600000
vt 0.400000 0.600000
vt 0.600000 0.600000
vt 0.200000 0.800000
vt 0.400000 0.800000
vt 0.600000 0.800000
vt 0.800000 0.038587
vt 0.600000 0.038587
vt 1.000000 0.038587
vt 0.800000 0.038587
vt 1.000000 0.038587
vt 0.600000 0.038587
vt 1.000000 0.038587
vt 1.000000 0.038587
vt 1.000000 0.038587
vt 1.000000 0.038587
vt 0.000000 0.000000
vt 0.000000 0.000000
vt 0.000000 0.000000
vt 0.000000 0.000000
vt 0.000000 0.000000
vt 0.000000 0.000000
vt 0.000000 0.000000
vt 0.000000 0.000000
vt 0.000000 0.000000
vt 0.000000 0.000000
vt 0.000000 0.000000
vt 0.000000 0.000000
vn 0.0014 -0.0000 -1.0000
vn -0.0014 0.0000 1.0000
vn 0.0000 -1.0000 0.0000
vn 0.0000 1.0000 -0.0000
vn -1.0000 0.0000 -0.0006
vn 1.0000 0.0000 0.0006
vn -0.0006 0.0000 1.0000
vn -0.0007 0.0000 1.0000
vn -0.0005 -0.0000 1.0000
vn -0.0006 0.0001 1.0000
vn 0.0006 0.0000 -1.0000
vn 0.0007 -0.0000 -1.0000
vn 0.0005 0.0000 -1.0000
vn 0.0006 -0.0001 -1.0000
vn 0.0012 0.0000 -1.0000
vn 0.0008 0.0001 -1.0000
vn -0.0012 0.0000 1.0000
vn -0.0008 -0.0001 1.0000
usemtl (null)
s off
f 152/1/1 20/2/1 4/3/1 21/4/1
f 136/5/2 37/6/2 8/7/2 36/8/2
f 120/9/3 36/8/3 8/7/3 44/10/3
f 160/11/4 154/12/4 6/13/4 52/14/4
f 88/15/5 40/16/5 5/17/5 53/18/5
f 72/19/6 32/20/6 7/21/6 45/22/6
f 52/14/6 6/13/6 29/23/6 60/24/6
f 60/24/6 29/23/6 30/25/6 64/26/6
f 64/26/6 30/25/6 31/27/6 68/28/6
f 68/28/6 31/27/6 32/20/6 72/19/6
f 1/29/6 49/30/6 57/31/6 13/32/6
f 49/30/6 50/33/6 58/34/6 57/31/6
f 50/33/6 51/35/6 59/36/6 58/34/6
f 51/35/6 52/14/6 60/24/6 59/36/6
f 13/32/6 57/31/6 61/37/6 14/38/6
f 57/31/6 58/34/6 62/39/6 61/37/6
f 58/34/6 59/36/6 63/40/6 62/39/6
f 59/36/6 60/24/6 64/26/6 63/40/6
f 14/38/6 61/37/6 65/41/6 15/42/6
f 61/37/6 62/39/6 66/43/6 65/41/6
f 62/39/6 63/40/6 67/44/6 66/43/6
f 63/40/6 64/26/6 68/28/6 67/44/6
f 15/42/6 65/41/6 69/45/6 16/46/6
f 65/41/6 66/43/6 70/47/6 69/45/6
f 66/43/6 67/44/6 71/48/6 70/47/6
f 67/44/6 68/28/6 72/19/6 71/48/6
f 16/46/6 69/45/6 48/49/6 2/50/6
f 69/45/6 70/47/6 47/51/6 48/49/6
f 70/47/6 71/48/6 46/52/6 47/51/6
f 71/48/6 72/19/6 45/22/6 46/52/6
f 44/10/5 8/7/5 37/6/5 76/53/5
f 76/53/5 37/6/5 38/54/5 80/55/5
f 80/55/5 38/54/5 39/56/5 84/57/5
f 84/57/5 39/56/5 40/16/5 88/15/5
f 4/3/5 41/58/5 73/59/5 21/4/5
f 41/58/5 42/60/5 74/61/5 73/59/5
f 42/60/5 43/62/5 75/63/5 74/61/5
f 43/62/5 44/10/5 76/53/5 75/63/5
f 21/4/5 73/59/5 77/64/5 22/65/5
f 73/59/5 74/61/5 78/66/5 77/64/5
f 74/61/5 75/63/5 79/67/5 78/66/5
f 75/63/5 76/53/5 80/55/5 79/67/5
f 22/65/5 77/64/5 81/68/5 23/69/5
f 77/64/5 78/66/5 82/70/5 81/68/5
f 78/66/5 79/67/5 83/71/5 82/70/5
f 79/67/5 80/55/5 84/57/5 83/71/5
f 23/69/5 81/68/5 85/72/5 24/73/5
f 81/68/5 82/70/5 86/74/5 85/72/5
f 82/70/5 83/71/5 87/75/5 86/74/5
f 83/71/5 84/57/5 88/15/5 87/75/5
f 24/73/5 85/72/5 56/76/5 3/77/5
f 85/72/5 86/74/5 55/78/5 56/76/5
f 86/74/5 87/75/5 54/79/5 55/78/5
f 87/75/5 88/15/5 53/18/5 54/79/5
f 53/18/4 5/17/4 25/80/4 92/81/4
f 92/81/4 25/80/4 26/82/4 96/83/4
f 96/83/4 26/82/4 27/84/4 100/85/4
f 100/85/4 27/84/4 28/86/4 104/87/4
f 3/77/4 56/76/4 89/88/4 9/89/4
f 56/76/4 55/78/4 90/90/4 89/88/4
f 55/78/4 54/79/4 91/91/4 90/90/4
f 54/79/4 53/18/4 92/81/4 91/91/4
f 9/89/4 89/88/4 93/92/4 10/93/4
f 89/88/4 90/90/4 94/94/4 93/92/4
f 90/90/4 91/91/4 95/95/4 94/94/4
f 91/91/4 92/81/4 96/83/4 95/95/4
f 10/93/4 93/92/4 97/96/4 11/97/4
f 93/92/4 94/94/4 98/98/4 97/96/4
f 94/94/4 95/95/4 99/99/4 98/98/4
f 95/95/4 96/83/4 100/85/4 99/99/4
f 11/97/4 97/96/4 101/100/4 12/101/4
f 97/96/4 98/98/4 102/102/4 101/100/4
f 98/98/4 99/99/4 103/103/4 102/102/4
f 99/99/4 100/85/4 104/87/4 103/103/4
f 153/104/4 157/105/4 49/30/4 1/29/4
f 157/105/4 158/106/4 50/33/4 49/30/4
f 158/106/4 159/107/4 51/35/4 50/33/4
f 159/107/4 160/11/4 52/14/4 51/35/4
f 108/108/3 33/109/3 34/110/3 112/111/3
f 112/111/3 34/110/3 35/112/3 116/113/3
f 116/113/3 35/112/3 36/8/3 120/9/3
f 17/114/3 105/115/3 109/116/3 18/117/3
f 105/115/3 106/118/3 110/119/3 109/116/3
f 106/118/3 107/120/3 111/121/3 110/119/3
f 107/120/3 108/108/3 112/111/3 111/121/3
f 18/117/3 109/116/3 113/122/3 19/123/3
f 109/116/3 110/119/3 114/124/3 113/122/3
f 110/119/3 111/121/3 115/125/3 114/124/3
f 111/121/3 112/111/3 116/113/3 115/125/3
f 19/123/3 113/122/3 117/126/3 20/2/3
f 113/122/3 114/124/3 118/127/3 117/126/3
f 114/124/3 115/125/3 119/128/3 118/127/3
f 115/125/3 116/113/3 120/9/3 119/128/3
f 20/2/3 117/126/3 41/58/3 4/3/3
f 117/126/3 118/127/3 42/60/3 41/58/3
f 118/127/3 119/128/3 43/62/3 42/60/3
f 119/128/3 120/9/3 44/10/3 43/62/3
f 25/80/2 5/17/2 40/16/2 124/129/2
f 124/129/2 40/16/2 39/56/2 128/130/2
f 128/130/2 39/56/2 38/54/2 132/131/2
f 132/131/2 38/54/2 37/6/2 136/5/2
f 154/12/7 28/86/7 121/132/7 165/133/7
f 28/86/7 27/84/7 122/134/7 121/132/7
f 27/84/7 26/82/7 123/135/7 122/134/7
f 26/82/8 25/80/8 124/129/8 123/135/8
f 165/133/9 121/132/9 125/136/9 166/137/9
f 121/132/10 122/134/10 126/138/10 125/136/10
f 122/134/7 123/135/7 127/139/7 126/138/7
f 123/135/8 124/129/8 128/130/8 127/139/8
f 125/136/7 126/138/7 130/140/7 129/141/7
f 126/138/7 127/139/7 131/142/7 130/140/7
f 127/139/8 128/130/8 132/131/8 131/142/8
f 129/141/7 130/140/7 134/143/7 133/144/7
f 130/140/7 131/142/7 135/145/7 134/143/7
f 131/142/8 132/131/8 136/5/8 135/145/8
f 133/144/7 134/143/7 34/110/7 33/109/7
f 134/143/7 135/145/7 35/112/7 34/110/7
f 135/145/8 136/5/8 36/8/8 35/112/8
f 140/146/11 17/114/11 18/117/11 144/147/11
f 144/147/11 18/117/11 19/123/11 148/148/11
f 148/148/12 19/123/12 20/2/12 152/1/12
f 153/104/11 169/149/11 137/150/11 12/101/11
f 169/149/13 170/151/13 138/152/13 137/150/13
f 12/101/11 137/150/11 141/153/11 11/97/11
f 137/150/14 138/152/14 142/154/14 141/153/14
f 138/152/11 139/155/11 143/156/11 142/154/11
f 139/155/11 140/146/11 144/147/11 143/156/11
f 11/97/11 141/153/11 145/157/11 10/93/11
f 141/153/11 142/154/11 146/158/11 145/157/11
f 142/154/11 143/156/11 147/159/11 146/158/11
f 143/156/11 144/147/11 148/148/11 147/159/11
f 10/93/12 145/157/12 149/160/12 9/89/12
f 145/157/12 146/158/12 150/161/12 149/160/12
f 146/158/12 147/159/12 151/162/12 150/161/12
f 147/159/12 148/148/12 152/1/12 151/162/12
f 9/89/1 149/160/1 24/73/1 3/77/1
f 149/160/1 150/161/1 23/69/1 24/73/1
f 150/161/1 151/162/1 22/65/1 23/69/1
f 151/162/1 152/1/1 21/4/1 22/65/1
f 15/42/15 16/46/15 172/163/15 171/164/15
f 14/38/15 15/42/15 171/164/15 170/151/15
f 13/32/16 14/38/16 170/151/16 169/149/16
f 1/29/11 13/32/11 169/149/11 153/104/11
f 16/46/15 2/50/15 155/165/15 172/163/15
f 32/20/17 168/166/17 156/167/17 7/21/17
f 31/27/17 167/168/17 168/166/17 32/20/17
f 30/25/17 166/137/17 167/168/17 31/27/17
f 29/23/18 165/133/18 166/137/18 30/25/18
f 6/13/7 154/12/7 165/133/7 29/23/7
f 46/52/3 45/22/3 164/169/3 163/170/3
f 47/51/3 46/52/3 163/170/3 162/171/3
f 48/49/3 47/51/3 162/171/3 161/172/3
f 2/50/3 48/49/3 161/172/3 155/165/3
f 45/22/3 7/21/3 156/167/3 164/169/3
f 103/103/4 104/87/4 160/11/4 159/107/4
f 102/102/4 103/103/4 159/107/4 158/106/4
f 101/100/4 102/102/4 158/106/4 157/105/4
f 12/101/4 101/100/4 157/105/4 153/104/4
f 104/87/4 28/86/4 154/12/4 160/11/4
f 171/173/5 172/174/5 155/175/5 161/176/5 162/177/5 163/178/5 164/179/5 156/180/5 168/181/5 167/182/5 166/183/5 170/184/5
f 108/108/6 107/120/6 106/118/6 105/115/6 17/114/6 140/146/6 139/155/6 138/152/6 125/136/6 129/141/6 133/144/6 33/109/6
f 166/183/3 125/136/3 138/152/3 170/184/3
