# Blender v2.80 (sub 75) OBJ File: ''
# www.blender.org
mtllib PAREDE MEIO.mtl
o PAREDE_FUNDO.003_Plane.014
v -0.000000 3.315219 7.051488
v 0.000000 -2.856582 7.051488
v 0.001479 3.315219 -7.400493
v 0.001479 -2.856582 -7.400493
v -0.492083 3.315219 -7.400493
v -0.493562 3.315219 7.051488
v -0.493562 -2.856582 7.051488
v -0.492083 -2.856582 -7.400493
v 0.000562 3.315219 -6.354638
v -0.000000 3.315219 -1.266238
v -0.000000 3.315219 1.263320
v -0.000000 3.315219 3.792878
v -0.000000 2.080859 7.051488
v -0.000000 0.846499 7.051488
v 0.000000 -0.387862 7.051488
v 0.000000 -1.622222 7.051488
v 0.000000 -2.856582 3.792878
v 0.000000 -2.856582 0.893176
v 0.000000 -2.856582 -2.527126
v 0.000562 -2.856582 -5.560118
v 0.001479 -1.622222 -7.400493
v 0.001479 -0.387862 -7.400493
v 0.001479 0.846499 -7.400493
v 0.001479 2.080859 -7.400493
v -0.493001 3.315219 -6.354638
v -0.493562 3.315219 -1.266238
v -0.493562 3.315219 1.263320
v -0.493562 3.315219 3.792878
v -0.493562 2.080859 7.051488
v -0.493562 0.846499 7.051488
v -0.493562 -0.387862 7.051488
v -0.493562 -1.622222 7.051488
v -0.493562 -2.856582 3.792878
v -0.493562 -2.856582 0.893176
v -0.493562 -2.856582 -2.527126
v -0.493000 -2.856582 -5.560118
v -0.492083 -1.622222 -7.400493
v -0.492083 -0.387862 -7.400493
v -0.492083 0.846499 -7.400493
v -0.492083 2.080859 -7.400493
v -0.097233 -2.856582 -7.400493
v -0.195945 -2.856582 -7.400493
v -0.294658 -2.856582 -7.400493
v -0.393370 -2.856582 -7.400493
v -0.394850 -2.856582 7.051488
v -0.296137 -2.856582 7.051488
v -0.197425 -2.856582 7.051488
v -0.098712 -2.856582 7.051488
v -0.098713 3.315219 7.051488
v -0.197425 3.315219 7.051488
v -0.296138 3.315219 7.051488
v -0.394850 3.315219 7.051488
v -0.393371 3.315219 -7.400493
v -0.294658 3.315219 -7.400493
v -0.195946 3.315219 -7.400493
v -0.097233 3.315219 -7.400493
v -0.098713 2.080859 7.051488
v -0.197425 2.080859 7.051488
v -0.296138 2.080859 7.051488
v -0.394850 2.080859 7.051488
v -0.098713 0.846499 7.051488
v -0.197425 0.846499 7.051488
v -0.296137 0.846499 7.051488
v -0.394850 0.846499 7.051488
v -0.098712 -0.387862 7.051488
v -0.197425 -0.387862 7.051488
v -0.296137 -0.387862 7.051488
v -0.394850 -0.387862 7.051488
v -0.098712 -1.622222 7.051488
v -0.197425 -1.622222 7.051488
v -0.296137 -1.622222 7.051488
v -0.394850 -1.622222 7.051488
v -0.097233 -1.622222 -7.400493
v -0.195945 -1.622222 -7.400493
v -0.294658 -1.622222 -7.400493
v -0.393370 -1.622222 -7.400493
v -0.097233 -0.387862 -7.400493
v -0.195946 -0.387862 -7.400493
v -0.294658 -0.387862 -7.400493
v -0.393371 -0.387862 -7.400493
v -0.097233 0.846499 -7.400493
v -0.195946 0.846499 -7.400493
v -0.294658 0.846499 -7.400493
v -0.393371 0.846499 -7.400493
v -0.097233 2.080859 -7.400493
v -0.195946 2.080859 -7.400493
v -0.294658 2.080859 -7.400493
v -0.393371 2.080859 -7.400493
v -0.098151 3.315219 -6.354638
v -0.196863 3.315219 -6.354638
v -0.295576 3.315219 -6.354638
v -0.394288 3.315219 -6.354638
v -0.098713 3.315219 -1.266238
v -0.197425 3.315219 -1.266238
v -0.296138 3.315219 -1.266238
v -0.394850 3.315219 -1.266238
v -0.098713 3.315219 1.263320
v -0.197425 3.315219 1.263320
v -0.296138 3.315219 1.263320
v -0.394850 3.315219 1.263320
v -0.098713 3.315219 3.792878
v -0.197425 3.315219 3.792878
v -0.296138 3.315219 3.792878
v -0.394850 3.315219 3.792878
v -0.098712 -2.856582 3.792878
v -0.197425 -2.856582 3.792878
v -0.296137 -2.856582 3.792878
v -0.394850 -2.856582 3.792878
v -0.098712 -2.856582 0.893176
v -0.197425 -2.856582 0.893176
v -0.296137 -2.856582 0.893176
v -0.394850 -2.856582 0.893176
v -0.098712 -2.856582 -2.527126
v -0.197425 -2.856582 -2.527126
v -0.296137 -2.856582 -2.527126
v -0.394850 -2.856582 -2.527126
v -0.098150 -2.856582 -5.560118
v -0.196863 -2.856582 -5.560118
v -0.295575 -2.856582 -5.560118
v -0.394288 -2.856582 -5.560118
v -0.493562 2.080859 3.792878
v -0.493562 2.080859 1.263320
v -0.493562 2.080859 -1.266238
v -0.493001 2.080859 -6.354639
v -0.493562 1.101955 3.792878
v -0.493562 1.101955 0.893176
v -0.493562 1.101955 -2.527126
v -0.493000 1.101955 -5.560118
v -0.493562 -0.387862 3.792878
v -0.493562 -0.387862 0.893176
v -0.493562 -0.387862 -2.527126
v -0.493000 -0.387862 -5.560118
v -0.493562 -1.622222 3.792878
v -0.493562 -1.622222 0.893176
v -0.493562 -1.622222 -2.527126
v -0.493000 -1.622222 -5.560118
v -0.000000 2.080859 3.792878
v -0.000000 1.101955 3.792878
v 0.000000 -0.387862 3.792878
v 0.000000 -1.622222 3.792878
v -0.000000 2.080859 1.263320
v -0.000000 1.101955 0.893176
v 0.000000 -0.387862 0.893176
v 0.000000 -1.622222 0.893176
v -0.000000 2.080859 -1.266238
v -0.000000 1.101955 -2.527126
v 0.000000 -0.387862 -2.527126
v 0.000000 -1.622222 -2.527126
v 0.000562 2.080859 -6.354638
v 0.000562 1.101955 -5.560117
v 0.000562 -0.387862 -5.560117
v 0.000562 -1.622222 -5.560117
vt 0.800000 0.800000
vt 1.000000 0.800000
vt 1.000000 1.000000
vt 0.800000 1.000000
vt 0.800000 0.800000
vt 0.800000 1.000000
vt 1.000000 1.000000
vt 1.000000 0.800000
vt 1.000000 0.800000
vt 1.000000 1.000000
vt 0.000000 0.200000
vt 0.000000 0.200000
vt 0.000000 0.000000
vt 0.000000 0.000000
vt 0.200000 1.000000
vt 0.200000 1.000000
vt 0.000000 1.000000
vt 0.000000 1.000000
vt 0.800000 0.000000
vt 0.800000 0.000000
vt 1.000000 0.000000
vt 1.000000 0.000000
vt 0.200000 0.000000
vt 0.200000 0.000000
vt 0.400000 0.000000
vt 0.400000 0.000000
vt 0.600000 0.000000
vt 0.600000 0.000000
vt 0.000000 0.000000
vt 0.000000 0.000000
vt 0.200000 0.000000
vt 0.200000 0.000000
vt 0.000000 0.000000
vt 0.200000 0.000000
vt 0.000000 0.000000
vt 0.200000 0.000000
vt 0.400000 0.000000
vt 0.400000 0.000000
vt 0.400000 0.000000
vt 0.400000 0.000000
vt 0.600000 0.000000
vt 0.600000 0.000000
vt 0.600000 0.000000
vt 0.600000 0.000000
vt 0.800000 0.000000
vt 0.800000 0.000000
vt 0.800000 0.000000
vt 0.800000 0.000000
vt 1.000000 0.000000
vt 1.000000 0.000000
vt 1.000000 0.000000
vt 1.000000 0.000000
vt 0.800000 1.000000
vt 0.600000 1.000000
vt 0.600000 1.000000
vt 0.400000 1.000000
vt 0.400000 1.000000
vt 1.000000 1.000000
vt 0.800000 1.000000
vt 1.000000 1.000000
vt 0.800000 1.000000
vt 1.000000 1.000000
vt 0.800000 1.000000
vt 0.600000 1.000000
vt 0.600000 1.000000
vt 0.600000 1.000000
vt 0.600000 1.000000
vt 0.400000 1.000000
vt 0.400000 1.000000
vt 0.400000 1.000000
vt 0.400000 1.000000
vt 0.200000 1.000000
vt 0.200000 1.000000
vt 0.200000 1.000000
vt 0.200000 1.000000
vt 0.000000 1.000000
vt 0.000000 1.000000
vt 0.000000 1.000000
vt 0.000000 1.000000
vt 0.000000 0.800000
vt 0.000000 0.800000
vt 0.000000 0.600000
vt 0.000000 0.600000
vt 0.000000 0.400000
vt 0.000000 0.400000
vt 0.000000 0.800000
vt 0.000000 0.800000
vt 0.000000 0.800000
vt 0.000000 0.800000
vt 0.000000 0.600000
vt 0.000000 0.600000
vt 0.000000 0.600000
vt 0.000000 0.600000
vt 0.000000 0.400000
vt 0.000000 0.400000
vt 0.000000 0.400000
vt 0.000000 0.400000
vt 0.000000 0.200000
vt 0.000000 0.200000
vt 0.000000 0.200000
vt 0.000000 0.200000
vt 1.000000 0.200000
vt 1.000000 0.200000
vt 1.000000 0.400000
vt 1.000000 0.400000
vt 1.000000 0.600000
vt 1.000000 0.600000
vt 1.000000 0.200000
vt 1.000000 0.200000
vt 1.000000 0.200000
vt 1.000000 0.200000
vt 1.000000 0.400000
vt 1.000000 0.400000
vt 1.000000 0.600000
vt 1.000000 0.600000
vt 1.000000 0.400000
vt 1.000000 0.600000
vt 1.000000 0.400000
vt 1.000000 0.600000
vt 1.000000 0.800000
vt 1.000000 0.800000
vt 1.000000 0.800000
vt 0.200000 0.800000
vt 0.400000 0.800000
vt 0.600000 0.800000
vt 0.200000 0.200000
vt 0.200000 0.400000
vt 0.200000 0.600000
vt 0.400000 0.200000
vt 0.400000 0.400000
vt 0.400000 0.600000
vt 0.600000 0.200000
vt 0.000000 0.000000
vt 0.000000 0.000000
vt 0.000000 0.000000
vt 0.000000 0.000000
vt 0.000000 0.000000
vt 0.000000 0.000000
vt 0.000000 0.000000
vt 0.000000 0.000000
vt 0.000000 0.000000
vt 0.000000 0.000000
vt 0.000000 0.000000
vt 0.000000 0.000000
vt 0.600000 0.600000
vt 0.600000 0.400000
vt 0.800000 0.200000
vt 0.000000 0.000000
vt 0.400000 0.400000
vt 0.400000 0.200000
vt 0.800000 0.600000
vt 0.800000 0.400000
vt 0.000000 0.000000
vt 0.000000 0.000000
vt 0.000000 0.000000
vt 0.000000 0.000000
vt 0.000000 0.000000
vt 0.000000 0.000000
vt 0.000000 0.000000
vt 0.000000 0.000000
vt 0.000000 0.000000
vt 0.000000 0.000000
vt 0.000000 0.000000
vt 0.800000 0.200000
vt 0.800000 0.400000
vt 0.800000 0.600000
vt 0.200000 0.200000
vt 0.600000 0.200000
vt 0.200000 0.400000
vt 0.200000 0.600000
vt 0.400000 0.600000
vt 0.600000 0.400000
vt 0.600000 0.600000
vt 0.200000 0.800000
vt 0.400000 0.800000
vt 0.600000 0.800000
vt 0.000000 0.000000
vt 0.000000 0.000000
vt 0.000000 0.000000
vt 0.000000 0.000000
vt 0.000000 0.000000
vt 0.000000 0.000000
vt 0.000000 0.000000
vt 0.000000 0.000000
vt 0.000000 0.000000
vt 0.000000 0.000000
vt 0.000000 0.000000
vt 0.000000 0.000000
vt 0.000000 0.000000
vt 0.000000 0.000000
vt 0.000000 0.000000
vt 0.000000 0.000000
vt 0.000000 0.000000
vt 0.000000 0.000000
vt 0.000000 0.000000
vt 0.000000 0.000000
vt 0.000000 0.000000
vt 0.000000 0.000000
vt 0.000000 0.000000
vt 0.000000 0.000000
vn 1.0000 0.0000 0.0005
vn -1.0000 -0.0000 -0.0005
vn 0.0000 -1.0000 0.0000
vn 0.0000 1.0000 0.0000
vn 0.0000 0.0000 -1.0000
vn 0.0000 0.0000 1.0000
vn -1.0000 -0.0000 -0.0009
vn -1.0000 -0.0002 -0.0006
vn -1.0000 -0.0000 0.0000
vn -1.0000 -0.0000 -0.0001
vn 1.0000 0.0000 0.0000
vn 1.0000 0.0000 0.0001
vn 1.0000 0.0000 0.0009
vn 1.0000 0.0002 0.0006
usemtl (null)
s off
f 152/1/1 20/2/1 4/3/1 21/4/1
f 136/5/2 37/6/2 8/7/2 36/8/2
f 120/9/3 36/8/3 8/7/3 44/10/3
f 104/11/4 28/12/4 6/13/4 52/14/4
f 88/15/5 40/16/5 5/17/5 53/18/5
f 72/19/6 32/20/6 7/21/6 45/22/6
f 52/14/6 6/13/6 29/23/6 60/24/6
f 60/24/6 29/23/6 30/25/6 64/26/6
f 64/26/6 30/25/6 31/27/6 68/28/6
f 68/28/6 31/27/6 32/20/6 72/19/6
f 1/29/6 49/30/6 57/31/6 13/32/6
f 49/30/6 50/33/6 58/34/6 57/31/6
f 50/33/6 51/35/6 59/36/6 58/34/6
f 51/35/6 52/14/6 60/24/6 59/36/6
f 13/32/6 57/31/6 61/37/6 14/38/6
f 57/31/6 58/34/6 62/39/6 61/37/6
f 58/34/6 59/36/6 63/40/6 62/39/6
f 59/36/6 60/24/6 64/26/6 63/40/6
f 14/38/6 61/37/6 65/41/6 15/42/6
f 61/37/6 62/39/6 66/43/6 65/41/6
f 62/39/6 63/40/6 67/44/6 66/43/6
f 63/40/6 64/26/6 68/28/6 67/44/6
f 15/42/6 65/41/6 69/45/6 16/46/6
f 65/41/6 66/43/6 70/47/6 69/45/6
f 66/43/6 67/44/6 71/48/6 70/47/6
f 67/44/6 68/28/6 72/19/6 71/48/6
f 16/46/6 69/45/6 48/49/6 2/50/6
f 69/45/6 70/47/6 47/51/6 48/49/6
f 70/47/6 71/48/6 46/52/6 47/51/6
f 71/48/6 72/19/6 45/22/6 46/52/6
f 44/10/5 8/7/5 37/6/5 76/53/5
f 76/53/5 37/6/5 38/54/5 80/55/5
f 80/55/5 38/54/5 39/56/5 84/57/5
f 84/57/5 39/56/5 40/16/5 88/15/5
f 4/3/5 41/58/5 73/59/5 21/4/5
f 41/58/5 42/60/5 74/61/5 73/59/5
f 42/60/5 43/62/5 75/63/5 74/61/5
f 43/62/5 44/10/5 76/53/5 75/63/5
f 21/4/5 73/59/5 77/64/5 22/65/5
f 73/59/5 74/61/5 78/66/5 77/64/5
f 74/61/5 75/63/5 79/67/5 78/66/5
f 75/63/5 76/53/5 80/55/5 79/67/5
f 22/65/5 77/64/5 81/68/5 23/69/5
f 77/64/5 78/66/5 82/70/5 81/68/5
f 78/66/5 79/67/5 83/71/5 82/70/5
f 79/67/5 80/55/5 84/57/5 83/71/5
f 23/69/5 81/68/5 85/72/5 24/73/5
f 81/68/5 82/70/5 86/74/5 85/72/5
f 82/70/5 83/71/5 87/75/5 86/74/5
f 83/71/5 84/57/5 88/15/5 87/75/5
f 24/73/5 85/72/5 56/76/5 3/77/5
f 85/72/5 86/74/5 55/78/5 56/76/5
f 86/74/5 87/75/5 54/79/5 55/78/5
f 87/75/5 88/15/5 53/18/5 54/79/5
f 53/18/4 5/17/4 25/80/4 92/81/4
f 92/81/4 25/80/4 26/82/4 96/83/4
f 96/83/4 26/82/4 27/84/4 100/85/4
f 100/85/4 27/84/4 28/12/4 104/11/4
f 3/77/4 56/76/4 89/86/4 9/87/4
f 56/76/4 55/78/4 90/88/4 89/86/4
f 55/78/4 54/79/4 91/89/4 90/88/4
f 54/79/4 53/18/4 92/81/4 91/89/4
f 9/87/4 89/86/4 93/90/4 10/91/4
f 89/86/4 90/88/4 94/92/4 93/90/4
f 90/88/4 91/89/4 95/93/4 94/92/4
f 91/89/4 92/81/4 96/83/4 95/93/4
f 10/91/4 93/90/4 97/94/4 11/95/4
f 93/90/4 94/92/4 98/96/4 97/94/4
f 94/92/4 95/93/4 99/97/4 98/96/4
f 95/93/4 96/83/4 100/85/4 99/97/4
f 11/95/4 97/94/4 101/98/4 12/99/4
f 97/94/4 98/96/4 102/100/4 101/98/4
f 98/96/4 99/97/4 103/101/4 102/100/4
f 99/97/4 100/85/4 104/11/4 103/101/4
f 12/99/4 101/98/4 49/30/4 1/29/4
f 101/98/4 102/100/4 50/33/4 49/30/4
f 102/100/4 103/101/4 51/35/4 50/33/4
f 103/101/4 104/11/4 52/14/4 51/35/4
f 45/22/3 7/21/3 33/102/3 108/103/3
f 112/104/3 34/105/3 35/106/3 116/107/3
f 2/50/3 48/49/3 105/108/3 17/109/3
f 48/49/3 47/51/3 106/110/3 105/108/3
f 47/51/3 46/52/3 107/111/3 106/110/3
f 46/52/3 45/22/3 108/103/3 107/111/3
f 18/112/3 109/113/3 113/114/3 19/115/3
f 109/113/3 110/116/3 114/117/3 113/114/3
f 110/116/3 111/118/3 115/119/3 114/117/3
f 111/118/3 112/104/3 116/107/3 115/119/3
f 20/2/3 117/120/3 41/58/3 4/3/3
f 117/120/3 118/121/3 42/60/3 41/58/3
f 118/121/3 119/122/3 43/62/3 42/60/3
f 119/122/3 120/9/3 44/10/3 43/62/3
f 25/80/7 5/17/7 40/16/7 124/123/7
f 124/123/8 40/16/8 39/56/8 128/124/8
f 128/124/2 39/56/2 38/54/2 132/125/2
f 132/125/2 38/54/2 37/6/2 136/5/2
f 6/13/9 28/12/9 121/126/9 29/23/9
f 28/12/9 27/84/9 122/127/9 121/126/9
f 27/84/9 26/82/9 123/128/9 122/127/9
f 26/82/10 25/80/10 124/123/10 123/128/10
f 29/23/9 121/126/9 125/129/9 30/25/9
f 121/126/9 122/127/9 126/130/9 125/129/9
f 122/127/9 123/128/9 127/131/9 126/130/9
f 123/128/10 124/123/10 128/124/10 127/131/10
f 30/25/9 125/129/9 129/132/9 31/27/9
f 108/133/5 33/134/5 133/135/5 129/136/5 125/137/5 138/138/5 139/139/5 140/140/5 17/141/5 105/142/5 106/143/5 107/144/5
f 126/130/9 127/131/9 131/145/9 130/146/9
f 31/27/9 129/132/9 133/147/9 32/20/9
f 125/129/3 126/148/3 142/149/3 138/150/3
f 130/146/9 131/145/9 135/151/9 134/152/9
f 32/20/9 133/147/9 33/102/9 7/21/9
f 111/153/6 110/154/6 109/155/6 18/156/6 144/157/6 143/158/6 142/159/6 126/148/6 130/160/6 134/161/6 34/162/6 112/163/6
f 134/152/9 135/151/9 35/106/9 34/105/9
f 16/46/11 2/50/11 17/109/11 140/164/11
f 144/165/11 18/112/11 19/115/11 148/166/11
f 1/29/11 13/32/11 137/167/11 12/99/11
f 13/32/11 14/38/11 138/150/11 137/167/11
f 14/38/11 15/42/11 139/168/11 138/150/11
f 15/42/11 16/46/11 140/164/11 139/168/11
f 12/99/11 137/167/11 141/169/11 11/95/11
f 137/167/11 138/150/11 142/149/11 141/169/11
f 11/95/11 141/169/11 145/170/11 10/91/11
f 141/169/11 142/149/11 146/171/11 145/170/11
f 142/149/11 143/172/11 147/173/11 146/171/11
f 143/172/11 144/165/11 148/166/11 147/173/11
f 10/91/12 145/170/12 149/174/12 9/87/12
f 145/170/12 146/171/12 150/175/12 149/174/12
f 9/87/13 149/174/13 24/73/13 3/77/13
f 149/174/14 150/175/14 23/69/14 24/73/14
f 150/175/1 151/176/1 22/65/1 23/69/1
f 151/176/1 152/1/1 21/4/1 22/65/1
f 119/177/6 118/178/6 117/179/6 20/180/6 152/181/6 151/182/6 150/183/6 128/184/6 132/185/6 136/186/6 36/187/6 120/188/6
f 116/189/5 35/190/5 135/191/5 131/192/5 127/193/5 146/194/5 147/195/5 148/196/5 19/197/5 113/198/5 114/199/5 115/200/5
f 127/193/3 128/184/3 150/175/3 146/194/3
